%TF.GenerationSoftware,KiCad,Pcbnew,8.0.4*%
%TF.CreationDate,2024-09-26T12:10:35+10:00*%
%TF.ProjectId,OuchButtonV2,4f756368-4275-4747-946f-6e56322e6b69,rev?*%
%TF.SameCoordinates,Original*%
%TF.FileFunction,Legend,Top*%
%TF.FilePolarity,Positive*%
%FSLAX46Y46*%
G04 Gerber Fmt 4.6, Leading zero omitted, Abs format (unit mm)*
G04 Created by KiCad (PCBNEW 8.0.4) date 2024-09-26 12:10:35*
%MOMM*%
%LPD*%
G01*
G04 APERTURE LIST*
G04 Aperture macros list*
%AMRoundRect*
0 Rectangle with rounded corners*
0 $1 Rounding radius*
0 $2 $3 $4 $5 $6 $7 $8 $9 X,Y pos of 4 corners*
0 Add a 4 corners polygon primitive as box body*
4,1,4,$2,$3,$4,$5,$6,$7,$8,$9,$2,$3,0*
0 Add four circle primitives for the rounded corners*
1,1,$1+$1,$2,$3*
1,1,$1+$1,$4,$5*
1,1,$1+$1,$6,$7*
1,1,$1+$1,$8,$9*
0 Add four rect primitives between the rounded corners*
20,1,$1+$1,$2,$3,$4,$5,0*
20,1,$1+$1,$4,$5,$6,$7,0*
20,1,$1+$1,$6,$7,$8,$9,0*
20,1,$1+$1,$8,$9,$2,$3,0*%
%AMFreePoly0*
4,1,6,0.725000,-0.725000,-0.725000,-0.725000,-0.725000,0.125000,-0.125000,0.725000,0.725000,0.725000,0.725000,-0.725000,0.725000,-0.725000,$1*%
%AMFreePoly1*
4,1,19,0.500000,-0.750000,0.000000,-0.750000,0.000000,-0.744911,-0.071157,-0.744911,-0.207708,-0.704816,-0.327430,-0.627875,-0.420627,-0.520320,-0.479746,-0.390866,-0.500000,-0.250000,-0.500000,0.250000,-0.479746,0.390866,-0.420627,0.520320,-0.327430,0.627875,-0.207708,0.704816,-0.071157,0.744911,0.000000,0.744911,0.000000,0.750000,0.500000,0.750000,0.500000,-0.750000,0.500000,-0.750000,
$1*%
%AMFreePoly2*
4,1,19,0.000000,0.744911,0.071157,0.744911,0.207708,0.704816,0.327430,0.627875,0.420627,0.520320,0.479746,0.390866,0.500000,0.250000,0.500000,-0.250000,0.479746,-0.390866,0.420627,-0.520320,0.327430,-0.627875,0.207708,-0.704816,0.071157,-0.744911,0.000000,-0.744911,0.000000,-0.750000,-0.500000,-0.750000,-0.500000,0.750000,0.000000,0.750000,0.000000,0.744911,0.000000,0.744911,
$1*%
%AMFreePoly3*
4,1,53,0.180798,1.454629,0.352531,1.394537,0.506585,1.297738,0.635238,1.169085,0.732037,1.015031,0.792129,0.843298,0.812500,0.662500,0.792129,0.481702,0.732037,0.309969,0.635238,0.155915,0.506585,0.027262,0.352531,-0.069537,0.180798,-0.129629,0.000000,-0.150000,-0.180798,-0.129629,-0.352531,-0.069537,-0.506585,0.027262,-0.635238,0.155915,-0.732037,0.309969,-0.792129,0.481702,
-0.812500,0.662500,-0.517770,0.662500,-0.496797,0.516627,-0.435576,0.382572,-0.339067,0.271196,-0.215089,0.191520,-0.073686,0.150000,0.073686,0.150000,0.215089,0.191520,0.339067,0.271196,0.435576,0.382572,0.496797,0.516627,0.517770,0.662500,0.496797,0.808373,0.435576,0.942428,0.339067,1.053804,0.215089,1.133480,0.073686,1.175000,-0.073686,1.175000,-0.215089,1.133480,
-0.339067,1.053804,-0.435576,0.942428,-0.496797,0.808373,-0.517770,0.662500,-0.812500,0.662500,-0.792129,0.843298,-0.732037,1.015031,-0.635238,1.169085,-0.506585,1.297738,-0.352531,1.394537,-0.180798,1.454629,0.000000,1.475000,0.180798,1.454629,0.180798,1.454629,$1*%
G04 Aperture macros list end*
%ADD10C,0.127000*%
%ADD11C,0.150000*%
%ADD12C,0.100000*%
%ADD13C,0.120000*%
%ADD14R,0.700000X0.700000*%
%ADD15RoundRect,0.250000X0.475000X-0.250000X0.475000X0.250000X-0.475000X0.250000X-0.475000X-0.250000X0*%
%ADD16R,0.800000X0.400000*%
%ADD17R,0.400000X0.800000*%
%ADD18FreePoly0,180.000000*%
%ADD19R,1.450000X1.450000*%
%ADD20FreePoly1,0.000000*%
%ADD21FreePoly2,0.000000*%
%ADD22RoundRect,0.250000X-0.550000X0.550000X-0.550000X-0.550000X0.550000X-0.550000X0.550000X0.550000X0*%
%ADD23C,1.600000*%
%ADD24FreePoly1,180.000000*%
%ADD25FreePoly2,180.000000*%
%ADD26C,0.900000*%
%ADD27RoundRect,0.135000X0.315000X0.365000X-0.315000X0.365000X-0.315000X-0.365000X0.315000X-0.365000X0*%
%ADD28RoundRect,0.082500X0.767500X0.192500X-0.767500X0.192500X-0.767500X-0.192500X0.767500X-0.192500X0*%
%ADD29RoundRect,0.070000X-0.345000X0.070000X-0.345000X-0.070000X0.345000X-0.070000X0.345000X0.070000X0*%
%ADD30RoundRect,0.112500X-0.302500X0.112500X-0.302500X-0.112500X0.302500X-0.112500X0.302500X0.112500X0*%
%ADD31C,0.850000*%
%ADD32O,2.050000X0.550000*%
%ADD33RoundRect,0.250000X-0.250000X-0.475000X0.250000X-0.475000X0.250000X0.475000X-0.250000X0.475000X0*%
%ADD34C,0.500000*%
%ADD35R,0.600000X0.522000*%
%ADD36FreePoly3,270.000000*%
G04 APERTURE END LIST*
D10*
X89200000Y-72750000D02*
X114200000Y-72750000D01*
X114200000Y-110750000D01*
X89200000Y-110750000D01*
X89200000Y-72750000D01*
D11*
X75709524Y-80628961D02*
X75709524Y-79828961D01*
X75709524Y-79828961D02*
X75900000Y-79828961D01*
X75900000Y-79828961D02*
X76014286Y-79867056D01*
X76014286Y-79867056D02*
X76090476Y-79943246D01*
X76090476Y-79943246D02*
X76128571Y-80019437D01*
X76128571Y-80019437D02*
X76166667Y-80171818D01*
X76166667Y-80171818D02*
X76166667Y-80286104D01*
X76166667Y-80286104D02*
X76128571Y-80438485D01*
X76128571Y-80438485D02*
X76090476Y-80514675D01*
X76090476Y-80514675D02*
X76014286Y-80590866D01*
X76014286Y-80590866D02*
X75900000Y-80628961D01*
X75900000Y-80628961D02*
X75709524Y-80628961D01*
X76433333Y-79828961D02*
X76928571Y-79828961D01*
X76928571Y-79828961D02*
X76661905Y-80133723D01*
X76661905Y-80133723D02*
X76776190Y-80133723D01*
X76776190Y-80133723D02*
X76852381Y-80171818D01*
X76852381Y-80171818D02*
X76890476Y-80209913D01*
X76890476Y-80209913D02*
X76928571Y-80286104D01*
X76928571Y-80286104D02*
X76928571Y-80476580D01*
X76928571Y-80476580D02*
X76890476Y-80552770D01*
X76890476Y-80552770D02*
X76852381Y-80590866D01*
X76852381Y-80590866D02*
X76776190Y-80628961D01*
X76776190Y-80628961D02*
X76547619Y-80628961D01*
X76547619Y-80628961D02*
X76471428Y-80590866D01*
X76471428Y-80590866D02*
X76433333Y-80552770D01*
X83535714Y-88962295D02*
X83269047Y-88581342D01*
X83078571Y-88962295D02*
X83078571Y-88162295D01*
X83078571Y-88162295D02*
X83383333Y-88162295D01*
X83383333Y-88162295D02*
X83459523Y-88200390D01*
X83459523Y-88200390D02*
X83497618Y-88238485D01*
X83497618Y-88238485D02*
X83535714Y-88314676D01*
X83535714Y-88314676D02*
X83535714Y-88428961D01*
X83535714Y-88428961D02*
X83497618Y-88505152D01*
X83497618Y-88505152D02*
X83459523Y-88543247D01*
X83459523Y-88543247D02*
X83383333Y-88581342D01*
X83383333Y-88581342D02*
X83078571Y-88581342D01*
X84297618Y-88962295D02*
X83840475Y-88962295D01*
X84069047Y-88962295D02*
X84069047Y-88162295D01*
X84069047Y-88162295D02*
X83992856Y-88276580D01*
X83992856Y-88276580D02*
X83916666Y-88352771D01*
X83916666Y-88352771D02*
X83840475Y-88390866D01*
X84678571Y-88962295D02*
X84830952Y-88962295D01*
X84830952Y-88962295D02*
X84907142Y-88924200D01*
X84907142Y-88924200D02*
X84945238Y-88886104D01*
X84945238Y-88886104D02*
X85021428Y-88771819D01*
X85021428Y-88771819D02*
X85059523Y-88619438D01*
X85059523Y-88619438D02*
X85059523Y-88314676D01*
X85059523Y-88314676D02*
X85021428Y-88238485D01*
X85021428Y-88238485D02*
X84983333Y-88200390D01*
X84983333Y-88200390D02*
X84907142Y-88162295D01*
X84907142Y-88162295D02*
X84754761Y-88162295D01*
X84754761Y-88162295D02*
X84678571Y-88200390D01*
X84678571Y-88200390D02*
X84640476Y-88238485D01*
X84640476Y-88238485D02*
X84602380Y-88314676D01*
X84602380Y-88314676D02*
X84602380Y-88505152D01*
X84602380Y-88505152D02*
X84640476Y-88581342D01*
X84640476Y-88581342D02*
X84678571Y-88619438D01*
X84678571Y-88619438D02*
X84754761Y-88657533D01*
X84754761Y-88657533D02*
X84907142Y-88657533D01*
X84907142Y-88657533D02*
X84983333Y-88619438D01*
X84983333Y-88619438D02*
X85021428Y-88581342D01*
X85021428Y-88581342D02*
X85059523Y-88505152D01*
X81185714Y-88962295D02*
X80919047Y-88581342D01*
X80728571Y-88962295D02*
X80728571Y-88162295D01*
X80728571Y-88162295D02*
X81033333Y-88162295D01*
X81033333Y-88162295D02*
X81109523Y-88200390D01*
X81109523Y-88200390D02*
X81147618Y-88238485D01*
X81147618Y-88238485D02*
X81185714Y-88314676D01*
X81185714Y-88314676D02*
X81185714Y-88428961D01*
X81185714Y-88428961D02*
X81147618Y-88505152D01*
X81147618Y-88505152D02*
X81109523Y-88543247D01*
X81109523Y-88543247D02*
X81033333Y-88581342D01*
X81033333Y-88581342D02*
X80728571Y-88581342D01*
X81490475Y-88238485D02*
X81528571Y-88200390D01*
X81528571Y-88200390D02*
X81604761Y-88162295D01*
X81604761Y-88162295D02*
X81795237Y-88162295D01*
X81795237Y-88162295D02*
X81871428Y-88200390D01*
X81871428Y-88200390D02*
X81909523Y-88238485D01*
X81909523Y-88238485D02*
X81947618Y-88314676D01*
X81947618Y-88314676D02*
X81947618Y-88390866D01*
X81947618Y-88390866D02*
X81909523Y-88505152D01*
X81909523Y-88505152D02*
X81452380Y-88962295D01*
X81452380Y-88962295D02*
X81947618Y-88962295D01*
X82442857Y-88162295D02*
X82519047Y-88162295D01*
X82519047Y-88162295D02*
X82595238Y-88200390D01*
X82595238Y-88200390D02*
X82633333Y-88238485D01*
X82633333Y-88238485D02*
X82671428Y-88314676D01*
X82671428Y-88314676D02*
X82709523Y-88467057D01*
X82709523Y-88467057D02*
X82709523Y-88657533D01*
X82709523Y-88657533D02*
X82671428Y-88809914D01*
X82671428Y-88809914D02*
X82633333Y-88886104D01*
X82633333Y-88886104D02*
X82595238Y-88924200D01*
X82595238Y-88924200D02*
X82519047Y-88962295D01*
X82519047Y-88962295D02*
X82442857Y-88962295D01*
X82442857Y-88962295D02*
X82366666Y-88924200D01*
X82366666Y-88924200D02*
X82328571Y-88886104D01*
X82328571Y-88886104D02*
X82290476Y-88809914D01*
X82290476Y-88809914D02*
X82252380Y-88657533D01*
X82252380Y-88657533D02*
X82252380Y-88467057D01*
X82252380Y-88467057D02*
X82290476Y-88314676D01*
X82290476Y-88314676D02*
X82328571Y-88238485D01*
X82328571Y-88238485D02*
X82366666Y-88200390D01*
X82366666Y-88200390D02*
X82442857Y-88162295D01*
X86259524Y-80562295D02*
X86259524Y-79762295D01*
X86259524Y-79762295D02*
X86450000Y-79762295D01*
X86450000Y-79762295D02*
X86564286Y-79800390D01*
X86564286Y-79800390D02*
X86640476Y-79876580D01*
X86640476Y-79876580D02*
X86678571Y-79952771D01*
X86678571Y-79952771D02*
X86716667Y-80105152D01*
X86716667Y-80105152D02*
X86716667Y-80219438D01*
X86716667Y-80219438D02*
X86678571Y-80371819D01*
X86678571Y-80371819D02*
X86640476Y-80448009D01*
X86640476Y-80448009D02*
X86564286Y-80524200D01*
X86564286Y-80524200D02*
X86450000Y-80562295D01*
X86450000Y-80562295D02*
X86259524Y-80562295D01*
X87402381Y-79762295D02*
X87250000Y-79762295D01*
X87250000Y-79762295D02*
X87173809Y-79800390D01*
X87173809Y-79800390D02*
X87135714Y-79838485D01*
X87135714Y-79838485D02*
X87059524Y-79952771D01*
X87059524Y-79952771D02*
X87021428Y-80105152D01*
X87021428Y-80105152D02*
X87021428Y-80409914D01*
X87021428Y-80409914D02*
X87059524Y-80486104D01*
X87059524Y-80486104D02*
X87097619Y-80524200D01*
X87097619Y-80524200D02*
X87173809Y-80562295D01*
X87173809Y-80562295D02*
X87326190Y-80562295D01*
X87326190Y-80562295D02*
X87402381Y-80524200D01*
X87402381Y-80524200D02*
X87440476Y-80486104D01*
X87440476Y-80486104D02*
X87478571Y-80409914D01*
X87478571Y-80409914D02*
X87478571Y-80219438D01*
X87478571Y-80219438D02*
X87440476Y-80143247D01*
X87440476Y-80143247D02*
X87402381Y-80105152D01*
X87402381Y-80105152D02*
X87326190Y-80067057D01*
X87326190Y-80067057D02*
X87173809Y-80067057D01*
X87173809Y-80067057D02*
X87097619Y-80105152D01*
X87097619Y-80105152D02*
X87059524Y-80143247D01*
X87059524Y-80143247D02*
X87021428Y-80219438D01*
X74490476Y-111262295D02*
X74490476Y-111909914D01*
X74490476Y-111909914D02*
X74528571Y-111986104D01*
X74528571Y-111986104D02*
X74566666Y-112024200D01*
X74566666Y-112024200D02*
X74642857Y-112062295D01*
X74642857Y-112062295D02*
X74795238Y-112062295D01*
X74795238Y-112062295D02*
X74871428Y-112024200D01*
X74871428Y-112024200D02*
X74909523Y-111986104D01*
X74909523Y-111986104D02*
X74947619Y-111909914D01*
X74947619Y-111909914D02*
X74947619Y-111262295D01*
X75747618Y-112062295D02*
X75290475Y-112062295D01*
X75519047Y-112062295D02*
X75519047Y-111262295D01*
X75519047Y-111262295D02*
X75442856Y-111376580D01*
X75442856Y-111376580D02*
X75366666Y-111452771D01*
X75366666Y-111452771D02*
X75290475Y-111490866D01*
X76388094Y-108269104D02*
X76864284Y-108269104D01*
X76292856Y-108554819D02*
X76626189Y-107554819D01*
X76626189Y-107554819D02*
X76959522Y-108554819D01*
X77292856Y-107888152D02*
X77292856Y-108554819D01*
X77292856Y-107983390D02*
X77340475Y-107935771D01*
X77340475Y-107935771D02*
X77435713Y-107888152D01*
X77435713Y-107888152D02*
X77578570Y-107888152D01*
X77578570Y-107888152D02*
X77673808Y-107935771D01*
X77673808Y-107935771D02*
X77721427Y-108031009D01*
X77721427Y-108031009D02*
X77721427Y-108554819D01*
X78054761Y-107888152D02*
X78435713Y-107888152D01*
X78197618Y-107554819D02*
X78197618Y-108411961D01*
X78197618Y-108411961D02*
X78245237Y-108507200D01*
X78245237Y-108507200D02*
X78340475Y-108554819D01*
X78340475Y-108554819D02*
X78435713Y-108554819D01*
X79149999Y-108507200D02*
X79054761Y-108554819D01*
X79054761Y-108554819D02*
X78864285Y-108554819D01*
X78864285Y-108554819D02*
X78769047Y-108507200D01*
X78769047Y-108507200D02*
X78721428Y-108411961D01*
X78721428Y-108411961D02*
X78721428Y-108031009D01*
X78721428Y-108031009D02*
X78769047Y-107935771D01*
X78769047Y-107935771D02*
X78864285Y-107888152D01*
X78864285Y-107888152D02*
X79054761Y-107888152D01*
X79054761Y-107888152D02*
X79149999Y-107935771D01*
X79149999Y-107935771D02*
X79197618Y-108031009D01*
X79197618Y-108031009D02*
X79197618Y-108126247D01*
X79197618Y-108126247D02*
X78721428Y-108221485D01*
X79626190Y-107888152D02*
X79626190Y-108554819D01*
X79626190Y-107983390D02*
X79673809Y-107935771D01*
X79673809Y-107935771D02*
X79769047Y-107888152D01*
X79769047Y-107888152D02*
X79911904Y-107888152D01*
X79911904Y-107888152D02*
X80007142Y-107935771D01*
X80007142Y-107935771D02*
X80054761Y-108031009D01*
X80054761Y-108031009D02*
X80054761Y-108554819D01*
X80530952Y-107888152D02*
X80530952Y-108554819D01*
X80530952Y-107983390D02*
X80578571Y-107935771D01*
X80578571Y-107935771D02*
X80673809Y-107888152D01*
X80673809Y-107888152D02*
X80816666Y-107888152D01*
X80816666Y-107888152D02*
X80911904Y-107935771D01*
X80911904Y-107935771D02*
X80959523Y-108031009D01*
X80959523Y-108031009D02*
X80959523Y-108554819D01*
X81864285Y-108554819D02*
X81864285Y-108031009D01*
X81864285Y-108031009D02*
X81816666Y-107935771D01*
X81816666Y-107935771D02*
X81721428Y-107888152D01*
X81721428Y-107888152D02*
X81530952Y-107888152D01*
X81530952Y-107888152D02*
X81435714Y-107935771D01*
X81864285Y-108507200D02*
X81769047Y-108554819D01*
X81769047Y-108554819D02*
X81530952Y-108554819D01*
X81530952Y-108554819D02*
X81435714Y-108507200D01*
X81435714Y-108507200D02*
X81388095Y-108411961D01*
X81388095Y-108411961D02*
X81388095Y-108316723D01*
X81388095Y-108316723D02*
X81435714Y-108221485D01*
X81435714Y-108221485D02*
X81530952Y-108173866D01*
X81530952Y-108173866D02*
X81769047Y-108173866D01*
X81769047Y-108173866D02*
X81864285Y-108126247D01*
X83054762Y-108269104D02*
X83530952Y-108269104D01*
X82959524Y-108554819D02*
X83292857Y-107554819D01*
X83292857Y-107554819D02*
X83626190Y-108554819D01*
X83959524Y-108554819D02*
X83959524Y-107888152D01*
X83959524Y-108078628D02*
X84007143Y-107983390D01*
X84007143Y-107983390D02*
X84054762Y-107935771D01*
X84054762Y-107935771D02*
X84150000Y-107888152D01*
X84150000Y-107888152D02*
X84245238Y-107888152D01*
X84959524Y-108507200D02*
X84864286Y-108554819D01*
X84864286Y-108554819D02*
X84673810Y-108554819D01*
X84673810Y-108554819D02*
X84578572Y-108507200D01*
X84578572Y-108507200D02*
X84530953Y-108411961D01*
X84530953Y-108411961D02*
X84530953Y-108031009D01*
X84530953Y-108031009D02*
X84578572Y-107935771D01*
X84578572Y-107935771D02*
X84673810Y-107888152D01*
X84673810Y-107888152D02*
X84864286Y-107888152D01*
X84864286Y-107888152D02*
X84959524Y-107935771D01*
X84959524Y-107935771D02*
X85007143Y-108031009D01*
X85007143Y-108031009D02*
X85007143Y-108126247D01*
X85007143Y-108126247D02*
X84530953Y-108221485D01*
X85864286Y-108554819D02*
X85864286Y-108031009D01*
X85864286Y-108031009D02*
X85816667Y-107935771D01*
X85816667Y-107935771D02*
X85721429Y-107888152D01*
X85721429Y-107888152D02*
X85530953Y-107888152D01*
X85530953Y-107888152D02*
X85435715Y-107935771D01*
X85864286Y-108507200D02*
X85769048Y-108554819D01*
X85769048Y-108554819D02*
X85530953Y-108554819D01*
X85530953Y-108554819D02*
X85435715Y-108507200D01*
X85435715Y-108507200D02*
X85388096Y-108411961D01*
X85388096Y-108411961D02*
X85388096Y-108316723D01*
X85388096Y-108316723D02*
X85435715Y-108221485D01*
X85435715Y-108221485D02*
X85530953Y-108173866D01*
X85530953Y-108173866D02*
X85769048Y-108173866D01*
X85769048Y-108173866D02*
X85864286Y-108126247D01*
D12*
X85942715Y-72624895D02*
X85688715Y-72243942D01*
X85507286Y-72624895D02*
X85507286Y-71824895D01*
X85507286Y-71824895D02*
X85797572Y-71824895D01*
X85797572Y-71824895D02*
X85870143Y-71862990D01*
X85870143Y-71862990D02*
X85906429Y-71901085D01*
X85906429Y-71901085D02*
X85942715Y-71977276D01*
X85942715Y-71977276D02*
X85942715Y-72091561D01*
X85942715Y-72091561D02*
X85906429Y-72167752D01*
X85906429Y-72167752D02*
X85870143Y-72205847D01*
X85870143Y-72205847D02*
X85797572Y-72243942D01*
X85797572Y-72243942D02*
X85507286Y-72243942D01*
X86233000Y-72586800D02*
X86341858Y-72624895D01*
X86341858Y-72624895D02*
X86523286Y-72624895D01*
X86523286Y-72624895D02*
X86595858Y-72586800D01*
X86595858Y-72586800D02*
X86632143Y-72548704D01*
X86632143Y-72548704D02*
X86668429Y-72472514D01*
X86668429Y-72472514D02*
X86668429Y-72396323D01*
X86668429Y-72396323D02*
X86632143Y-72320133D01*
X86632143Y-72320133D02*
X86595858Y-72282038D01*
X86595858Y-72282038D02*
X86523286Y-72243942D01*
X86523286Y-72243942D02*
X86378143Y-72205847D01*
X86378143Y-72205847D02*
X86305572Y-72167752D01*
X86305572Y-72167752D02*
X86269286Y-72129657D01*
X86269286Y-72129657D02*
X86233000Y-72053466D01*
X86233000Y-72053466D02*
X86233000Y-71977276D01*
X86233000Y-71977276D02*
X86269286Y-71901085D01*
X86269286Y-71901085D02*
X86305572Y-71862990D01*
X86305572Y-71862990D02*
X86378143Y-71824895D01*
X86378143Y-71824895D02*
X86559572Y-71824895D01*
X86559572Y-71824895D02*
X86668429Y-71862990D01*
X86886143Y-71824895D02*
X87321572Y-71824895D01*
X87103857Y-72624895D02*
X87103857Y-71824895D01*
D11*
X82742856Y-80612295D02*
X82742856Y-79812295D01*
X82742856Y-79812295D02*
X82933332Y-79812295D01*
X82933332Y-79812295D02*
X83047618Y-79850390D01*
X83047618Y-79850390D02*
X83123808Y-79926580D01*
X83123808Y-79926580D02*
X83161903Y-80002771D01*
X83161903Y-80002771D02*
X83199999Y-80155152D01*
X83199999Y-80155152D02*
X83199999Y-80269438D01*
X83199999Y-80269438D02*
X83161903Y-80421819D01*
X83161903Y-80421819D02*
X83123808Y-80498009D01*
X83123808Y-80498009D02*
X83047618Y-80574200D01*
X83047618Y-80574200D02*
X82933332Y-80612295D01*
X82933332Y-80612295D02*
X82742856Y-80612295D01*
X83923808Y-79812295D02*
X83542856Y-79812295D01*
X83542856Y-79812295D02*
X83504760Y-80193247D01*
X83504760Y-80193247D02*
X83542856Y-80155152D01*
X83542856Y-80155152D02*
X83619046Y-80117057D01*
X83619046Y-80117057D02*
X83809522Y-80117057D01*
X83809522Y-80117057D02*
X83885713Y-80155152D01*
X83885713Y-80155152D02*
X83923808Y-80193247D01*
X83923808Y-80193247D02*
X83961903Y-80269438D01*
X83961903Y-80269438D02*
X83961903Y-80459914D01*
X83961903Y-80459914D02*
X83923808Y-80536104D01*
X83923808Y-80536104D02*
X83885713Y-80574200D01*
X83885713Y-80574200D02*
X83809522Y-80612295D01*
X83809522Y-80612295D02*
X83619046Y-80612295D01*
X83619046Y-80612295D02*
X83542856Y-80574200D01*
X83542856Y-80574200D02*
X83504760Y-80536104D01*
X80911904Y-82718247D02*
X81026190Y-82756342D01*
X81026190Y-82756342D02*
X81064285Y-82794438D01*
X81064285Y-82794438D02*
X81102381Y-82870628D01*
X81102381Y-82870628D02*
X81102381Y-82984914D01*
X81102381Y-82984914D02*
X81064285Y-83061104D01*
X81064285Y-83061104D02*
X81026190Y-83099200D01*
X81026190Y-83099200D02*
X80950000Y-83137295D01*
X80950000Y-83137295D02*
X80645238Y-83137295D01*
X80645238Y-83137295D02*
X80645238Y-82337295D01*
X80645238Y-82337295D02*
X80911904Y-82337295D01*
X80911904Y-82337295D02*
X80988095Y-82375390D01*
X80988095Y-82375390D02*
X81026190Y-82413485D01*
X81026190Y-82413485D02*
X81064285Y-82489676D01*
X81064285Y-82489676D02*
X81064285Y-82565866D01*
X81064285Y-82565866D02*
X81026190Y-82642057D01*
X81026190Y-82642057D02*
X80988095Y-82680152D01*
X80988095Y-82680152D02*
X80911904Y-82718247D01*
X80911904Y-82718247D02*
X80645238Y-82718247D01*
X81445238Y-82832533D02*
X82054762Y-82832533D01*
X81750000Y-83137295D02*
X81750000Y-82527771D01*
X80911904Y-86218247D02*
X81026190Y-86256342D01*
X81026190Y-86256342D02*
X81064285Y-86294438D01*
X81064285Y-86294438D02*
X81102381Y-86370628D01*
X81102381Y-86370628D02*
X81102381Y-86484914D01*
X81102381Y-86484914D02*
X81064285Y-86561104D01*
X81064285Y-86561104D02*
X81026190Y-86599200D01*
X81026190Y-86599200D02*
X80950000Y-86637295D01*
X80950000Y-86637295D02*
X80645238Y-86637295D01*
X80645238Y-86637295D02*
X80645238Y-85837295D01*
X80645238Y-85837295D02*
X80911904Y-85837295D01*
X80911904Y-85837295D02*
X80988095Y-85875390D01*
X80988095Y-85875390D02*
X81026190Y-85913485D01*
X81026190Y-85913485D02*
X81064285Y-85989676D01*
X81064285Y-85989676D02*
X81064285Y-86065866D01*
X81064285Y-86065866D02*
X81026190Y-86142057D01*
X81026190Y-86142057D02*
X80988095Y-86180152D01*
X80988095Y-86180152D02*
X80911904Y-86218247D01*
X80911904Y-86218247D02*
X80645238Y-86218247D01*
X81445238Y-86332533D02*
X82054762Y-86332533D01*
D12*
X79795857Y-72175847D02*
X79904714Y-72213942D01*
X79904714Y-72213942D02*
X79941000Y-72252038D01*
X79941000Y-72252038D02*
X79977286Y-72328228D01*
X79977286Y-72328228D02*
X79977286Y-72442514D01*
X79977286Y-72442514D02*
X79941000Y-72518704D01*
X79941000Y-72518704D02*
X79904714Y-72556800D01*
X79904714Y-72556800D02*
X79832143Y-72594895D01*
X79832143Y-72594895D02*
X79541857Y-72594895D01*
X79541857Y-72594895D02*
X79541857Y-71794895D01*
X79541857Y-71794895D02*
X79795857Y-71794895D01*
X79795857Y-71794895D02*
X79868429Y-71832990D01*
X79868429Y-71832990D02*
X79904714Y-71871085D01*
X79904714Y-71871085D02*
X79941000Y-71947276D01*
X79941000Y-71947276D02*
X79941000Y-72023466D01*
X79941000Y-72023466D02*
X79904714Y-72099657D01*
X79904714Y-72099657D02*
X79868429Y-72137752D01*
X79868429Y-72137752D02*
X79795857Y-72175847D01*
X79795857Y-72175847D02*
X79541857Y-72175847D01*
X80449000Y-71794895D02*
X80594143Y-71794895D01*
X80594143Y-71794895D02*
X80666714Y-71832990D01*
X80666714Y-71832990D02*
X80739286Y-71909180D01*
X80739286Y-71909180D02*
X80775571Y-72061561D01*
X80775571Y-72061561D02*
X80775571Y-72328228D01*
X80775571Y-72328228D02*
X80739286Y-72480609D01*
X80739286Y-72480609D02*
X80666714Y-72556800D01*
X80666714Y-72556800D02*
X80594143Y-72594895D01*
X80594143Y-72594895D02*
X80449000Y-72594895D01*
X80449000Y-72594895D02*
X80376429Y-72556800D01*
X80376429Y-72556800D02*
X80303857Y-72480609D01*
X80303857Y-72480609D02*
X80267571Y-72328228D01*
X80267571Y-72328228D02*
X80267571Y-72061561D01*
X80267571Y-72061561D02*
X80303857Y-71909180D01*
X80303857Y-71909180D02*
X80376429Y-71832990D01*
X80376429Y-71832990D02*
X80449000Y-71794895D01*
X81247286Y-71794895D02*
X81392429Y-71794895D01*
X81392429Y-71794895D02*
X81465000Y-71832990D01*
X81465000Y-71832990D02*
X81537572Y-71909180D01*
X81537572Y-71909180D02*
X81573857Y-72061561D01*
X81573857Y-72061561D02*
X81573857Y-72328228D01*
X81573857Y-72328228D02*
X81537572Y-72480609D01*
X81537572Y-72480609D02*
X81465000Y-72556800D01*
X81465000Y-72556800D02*
X81392429Y-72594895D01*
X81392429Y-72594895D02*
X81247286Y-72594895D01*
X81247286Y-72594895D02*
X81174715Y-72556800D01*
X81174715Y-72556800D02*
X81102143Y-72480609D01*
X81102143Y-72480609D02*
X81065857Y-72328228D01*
X81065857Y-72328228D02*
X81065857Y-72061561D01*
X81065857Y-72061561D02*
X81102143Y-71909180D01*
X81102143Y-71909180D02*
X81174715Y-71832990D01*
X81174715Y-71832990D02*
X81247286Y-71794895D01*
X81791572Y-71794895D02*
X82227001Y-71794895D01*
X82009286Y-72594895D02*
X82009286Y-71794895D01*
D11*
X75640475Y-75724200D02*
X75754761Y-75762295D01*
X75754761Y-75762295D02*
X75945237Y-75762295D01*
X75945237Y-75762295D02*
X76021428Y-75724200D01*
X76021428Y-75724200D02*
X76059523Y-75686104D01*
X76059523Y-75686104D02*
X76097618Y-75609914D01*
X76097618Y-75609914D02*
X76097618Y-75533723D01*
X76097618Y-75533723D02*
X76059523Y-75457533D01*
X76059523Y-75457533D02*
X76021428Y-75419438D01*
X76021428Y-75419438D02*
X75945237Y-75381342D01*
X75945237Y-75381342D02*
X75792856Y-75343247D01*
X75792856Y-75343247D02*
X75716666Y-75305152D01*
X75716666Y-75305152D02*
X75678571Y-75267057D01*
X75678571Y-75267057D02*
X75640475Y-75190866D01*
X75640475Y-75190866D02*
X75640475Y-75114676D01*
X75640475Y-75114676D02*
X75678571Y-75038485D01*
X75678571Y-75038485D02*
X75716666Y-75000390D01*
X75716666Y-75000390D02*
X75792856Y-74962295D01*
X75792856Y-74962295D02*
X75983333Y-74962295D01*
X75983333Y-74962295D02*
X76097618Y-75000390D01*
X76859523Y-75762295D02*
X76402380Y-75762295D01*
X76630952Y-75762295D02*
X76630952Y-74962295D01*
X76630952Y-74962295D02*
X76554761Y-75076580D01*
X76554761Y-75076580D02*
X76478571Y-75152771D01*
X76478571Y-75152771D02*
X76402380Y-75190866D01*
X74583333Y-80812295D02*
X74583333Y-81383723D01*
X74583333Y-81383723D02*
X74545238Y-81498009D01*
X74545238Y-81498009D02*
X74469047Y-81574200D01*
X74469047Y-81574200D02*
X74354762Y-81612295D01*
X74354762Y-81612295D02*
X74278571Y-81612295D01*
X75383333Y-81612295D02*
X74926190Y-81612295D01*
X75154762Y-81612295D02*
X75154762Y-80812295D01*
X75154762Y-80812295D02*
X75078571Y-80926580D01*
X75078571Y-80926580D02*
X75002381Y-81002771D01*
X75002381Y-81002771D02*
X74926190Y-81040866D01*
X85872381Y-89862295D02*
X85872381Y-89062295D01*
X85872381Y-89062295D02*
X86139047Y-89633723D01*
X86139047Y-89633723D02*
X86405714Y-89062295D01*
X86405714Y-89062295D02*
X86405714Y-89862295D01*
X86786667Y-89862295D02*
X86786667Y-89062295D01*
X87243810Y-89862295D02*
X86900952Y-89405152D01*
X87243810Y-89062295D02*
X86786667Y-89519438D01*
X88005714Y-89862295D02*
X87548571Y-89862295D01*
X87777143Y-89862295D02*
X87777143Y-89062295D01*
X87777143Y-89062295D02*
X87700952Y-89176580D01*
X87700952Y-89176580D02*
X87624762Y-89252771D01*
X87624762Y-89252771D02*
X87548571Y-89290866D01*
X79226190Y-80595629D02*
X79226190Y-79795629D01*
X79226190Y-79795629D02*
X79416666Y-79795629D01*
X79416666Y-79795629D02*
X79530952Y-79833724D01*
X79530952Y-79833724D02*
X79607142Y-79909914D01*
X79607142Y-79909914D02*
X79645237Y-79986105D01*
X79645237Y-79986105D02*
X79683333Y-80138486D01*
X79683333Y-80138486D02*
X79683333Y-80252772D01*
X79683333Y-80252772D02*
X79645237Y-80405153D01*
X79645237Y-80405153D02*
X79607142Y-80481343D01*
X79607142Y-80481343D02*
X79530952Y-80557534D01*
X79530952Y-80557534D02*
X79416666Y-80595629D01*
X79416666Y-80595629D02*
X79226190Y-80595629D01*
X80369047Y-80062295D02*
X80369047Y-80595629D01*
X80178571Y-79757534D02*
X79988094Y-80328962D01*
X79988094Y-80328962D02*
X80483333Y-80328962D01*
D13*
%TO.C,D3*%
X75150000Y-76615000D02*
X75150000Y-79455000D01*
X77450000Y-76615000D02*
X76800000Y-76615000D01*
X77450000Y-76615000D02*
X77450000Y-79455000D01*
%TO.C,R19*%
X83315000Y-91211252D02*
X83315000Y-90688748D01*
X84785000Y-91211252D02*
X84785000Y-90688748D01*
%TO.C,R20*%
X80965000Y-91211252D02*
X80965000Y-90688748D01*
X82435000Y-91211252D02*
X82435000Y-90688748D01*
%TO.C,D6*%
X85700000Y-76615000D02*
X85700000Y-79455000D01*
X88000000Y-76615000D02*
X87350000Y-76615000D01*
X88000000Y-76615000D02*
X88000000Y-79455000D01*
%TO.C,U1*%
X74350000Y-93750000D02*
X75150000Y-93750000D01*
X74350000Y-94550000D02*
X74350000Y-93750000D01*
X74350000Y-110750000D02*
X74350000Y-110150000D01*
X74550000Y-93950000D02*
X87750000Y-93950000D01*
X74550000Y-110550000D02*
X74550000Y-93950000D01*
X75100000Y-110750000D02*
X74350000Y-110750000D01*
X87075000Y-110750000D02*
X87925000Y-110750000D01*
X87750000Y-93950000D02*
X87750000Y-110550000D01*
X87750000Y-105150000D02*
X74550000Y-105150000D01*
X87750000Y-110550000D02*
X74550000Y-110550000D01*
X87950000Y-93750000D02*
X87150000Y-93750000D01*
X87950000Y-94550000D02*
X87950000Y-93750000D01*
%TO.C,RST1*%
X85100000Y-74050000D02*
X85100000Y-73450000D01*
X85800000Y-72750000D02*
X87200000Y-72750000D01*
X87200000Y-74750000D02*
X85800000Y-74750000D01*
X87900000Y-73450000D02*
X87900000Y-74050000D01*
X85100000Y-73450000D02*
G75*
G02*
X85800000Y-72750000I699999J1D01*
G01*
X85800000Y-74750000D02*
G75*
G02*
X85100000Y-74050000I-1J699999D01*
G01*
X87200000Y-72750000D02*
G75*
G02*
X87900000Y-73450000I0J-700000D01*
G01*
X87900000Y-74050000D02*
G75*
G02*
X87200000Y-74750000I-700000J0D01*
G01*
%TO.C,D5*%
X82183332Y-76615000D02*
X82183332Y-79455000D01*
X84483332Y-76615000D02*
X83833332Y-76615000D01*
X84483332Y-76615000D02*
X84483332Y-79455000D01*
%TO.C,BOOT1*%
X79950000Y-74050000D02*
X79950000Y-73450000D01*
X80650000Y-72750000D02*
X82050000Y-72750000D01*
X82050000Y-74750000D02*
X80650000Y-74750000D01*
X82750000Y-73450000D02*
X82750000Y-74050000D01*
X79950000Y-73450000D02*
G75*
G02*
X80650000Y-72750000I700000J0D01*
G01*
X80650000Y-74750000D02*
G75*
G02*
X79950000Y-74050000I0J700000D01*
G01*
X82050000Y-72750000D02*
G75*
G02*
X82750000Y-73450000I1J-699999D01*
G01*
X82750000Y-74050000D02*
G75*
G02*
X82050000Y-74750000I-699999J-1D01*
G01*
%TO.C,S1*%
X74040000Y-72840000D02*
X74040000Y-72760000D01*
X75140000Y-74360000D02*
X74040000Y-74360000D01*
X78460000Y-72840000D02*
X78460000Y-72760000D01*
X78460000Y-74360000D02*
X77360000Y-74360000D01*
%TO.C,J1*%
X76970000Y-91980000D02*
X78030000Y-91980000D01*
X78030000Y-82420000D02*
X76970000Y-82420000D01*
X80130000Y-83190000D02*
X79980000Y-83190000D01*
X80130000Y-83990000D02*
X80130000Y-83190000D01*
%TO.C,C16*%
X86638748Y-81415000D02*
X87161252Y-81415000D01*
X86638748Y-82885000D02*
X87161252Y-82885000D01*
%TO.C,MK1*%
X85445000Y-84710000D02*
X88295000Y-84710000D01*
X85445000Y-88410000D02*
X85445000Y-84710000D01*
X87995000Y-88410000D02*
X85445000Y-88410000D01*
X88295000Y-84710000D02*
X88295000Y-88110000D01*
X88295000Y-88690000D02*
X88295000Y-88410000D01*
X88575000Y-88410000D01*
X88295000Y-88690000D01*
G36*
X88295000Y-88690000D02*
G01*
X88295000Y-88410000D01*
X88575000Y-88410000D01*
X88295000Y-88690000D01*
G37*
%TO.C,D4*%
X78666666Y-76615000D02*
X78666666Y-79455000D01*
X80966666Y-76615000D02*
X80316666Y-76615000D01*
X80966666Y-76615000D02*
X80966666Y-79455000D01*
%TD*%
%LPC*%
D12*
X79085116Y-83597611D02*
X79815011Y-83597611D01*
X79815011Y-90790000D01*
X79085116Y-90790000D01*
X79085116Y-83597611D01*
G36*
X79085116Y-83597611D02*
G01*
X79815011Y-83597611D01*
X79815011Y-90790000D01*
X79085116Y-90790000D01*
X79085116Y-83597611D01*
G37*
D14*
%TO.C,D3*%
X76850000Y-77120000D03*
X75750000Y-77120000D03*
X75750000Y-78950000D03*
X76850000Y-78950000D03*
%TD*%
D15*
%TO.C,R19*%
X84050000Y-91900000D03*
X84050000Y-90000000D03*
%TD*%
%TO.C,R20*%
X81700000Y-91900000D03*
X81700000Y-90000000D03*
%TD*%
D14*
%TO.C,D6*%
X87400000Y-77120000D03*
X86300000Y-77120000D03*
X86300000Y-78950000D03*
X87400000Y-78950000D03*
%TD*%
D16*
%TO.C,U1*%
X87050000Y-103550000D03*
X87050000Y-102750000D03*
X87050000Y-101950000D03*
X87050000Y-101150000D03*
X87050000Y-100350000D03*
X87050000Y-99550000D03*
X87050000Y-98750000D03*
X87050000Y-97950000D03*
X87050000Y-97150000D03*
X87050000Y-96350000D03*
X87050000Y-95550000D03*
D17*
X85950000Y-94650000D03*
X85150000Y-94650000D03*
X84350000Y-94650000D03*
X83550000Y-94650000D03*
X82750000Y-94650000D03*
X81950000Y-94650000D03*
X81150000Y-94650000D03*
X80350000Y-94650000D03*
X79550000Y-94650000D03*
X78750000Y-94650000D03*
X77950000Y-94650000D03*
X77150000Y-94650000D03*
X76350000Y-94650000D03*
D16*
X75250000Y-95550000D03*
X75250000Y-96350000D03*
X75250000Y-97150000D03*
X75250000Y-97950000D03*
X75250000Y-98750000D03*
X75250000Y-99550000D03*
X75250000Y-100350000D03*
X75250000Y-101150000D03*
X75250000Y-101950000D03*
X75250000Y-102750000D03*
X75250000Y-103550000D03*
D17*
X76350000Y-104450000D03*
X77150000Y-104450000D03*
X77950000Y-104450000D03*
X78750000Y-104450000D03*
X79550000Y-104450000D03*
X80350000Y-104450000D03*
X81150000Y-104450000D03*
X81950000Y-104450000D03*
X82750000Y-104450000D03*
X83550000Y-104450000D03*
X84350000Y-104450000D03*
X85150000Y-104450000D03*
X85950000Y-104450000D03*
D18*
X83125000Y-101525000D03*
D19*
X83125000Y-99550000D03*
X83125000Y-97575000D03*
X81150000Y-101525000D03*
X81150000Y-99550000D03*
X81150000Y-97575000D03*
X79175000Y-101525000D03*
X79175000Y-99550000D03*
X79175000Y-97575000D03*
D14*
X75200000Y-104500000D03*
X75200000Y-94600000D03*
X87100000Y-94600000D03*
X87100000Y-104500000D03*
%TD*%
D20*
%TO.C,RST1*%
X85850000Y-73750000D03*
D21*
X87150000Y-73750000D03*
%TD*%
D14*
%TO.C,D5*%
X83883332Y-77120000D03*
X82783332Y-77120000D03*
X82783332Y-78950000D03*
X83883332Y-78950000D03*
%TD*%
D22*
%TO.C,J_BATT1*%
X83150000Y-82775000D03*
D23*
X83150000Y-86375000D03*
%TD*%
D24*
%TO.C,BOOT1*%
X82000000Y-73750000D03*
D25*
X80700000Y-73750000D03*
%TD*%
D26*
%TO.C,S1*%
X77225000Y-72050000D03*
X75275000Y-72050000D03*
D27*
X78300000Y-73600000D03*
X74200000Y-73600000D03*
X78300000Y-72000000D03*
X74200000Y-72000000D03*
D28*
X76250000Y-74225000D03*
%TD*%
D29*
%TO.C,J1*%
X79450000Y-84200000D03*
X79450000Y-85000000D03*
X79450000Y-85800000D03*
X79450000Y-86600000D03*
X79450000Y-87000000D03*
X79450000Y-87400000D03*
X79450000Y-89000000D03*
X79450000Y-89800000D03*
X79450000Y-90200000D03*
X79450000Y-89400000D03*
X79450000Y-88600000D03*
X79450000Y-88200000D03*
X79450000Y-87800000D03*
X79450000Y-86200000D03*
X79450000Y-85400000D03*
X79450000Y-84600000D03*
D30*
X79450000Y-83685000D03*
X79450000Y-90715000D03*
D31*
X78690000Y-82605000D03*
D32*
X75710000Y-82605000D03*
D31*
X78690000Y-91795000D03*
D32*
X75710000Y-91795000D03*
%TD*%
D33*
%TO.C,C16*%
X85950000Y-82150000D03*
X87850000Y-82150000D03*
%TD*%
D34*
%TO.C,MK1*%
X86870000Y-85850000D03*
D35*
X87770000Y-87924000D03*
X87770000Y-87102000D03*
D36*
X86207500Y-85850000D03*
D35*
X85970000Y-87102000D03*
X85970000Y-87924000D03*
X86870000Y-87924000D03*
%TD*%
D14*
%TO.C,D4*%
X80366666Y-77120000D03*
X79266666Y-77120000D03*
X79266666Y-78950000D03*
X80366666Y-78950000D03*
%TD*%
%LPD*%
M02*
