%TF.GenerationSoftware,KiCad,Pcbnew,8.0.4*%
%TF.CreationDate,2024-09-26T12:10:35+10:00*%
%TF.ProjectId,OuchButtonV2,4f756368-4275-4747-946f-6e56322e6b69,rev?*%
%TF.SameCoordinates,Original*%
%TF.FileFunction,Copper,L3,Inr*%
%TF.FilePolarity,Positive*%
%FSLAX46Y46*%
G04 Gerber Fmt 4.6, Leading zero omitted, Abs format (unit mm)*
G04 Created by KiCad (PCBNEW 8.0.4) date 2024-09-26 12:10:35*
%MOMM*%
%LPD*%
G01*
G04 APERTURE LIST*
G04 Aperture macros list*
%AMRoundRect*
0 Rectangle with rounded corners*
0 $1 Rounding radius*
0 $2 $3 $4 $5 $6 $7 $8 $9 X,Y pos of 4 corners*
0 Add a 4 corners polygon primitive as box body*
4,1,4,$2,$3,$4,$5,$6,$7,$8,$9,$2,$3,0*
0 Add four circle primitives for the rounded corners*
1,1,$1+$1,$2,$3*
1,1,$1+$1,$4,$5*
1,1,$1+$1,$6,$7*
1,1,$1+$1,$8,$9*
0 Add four rect primitives between the rounded corners*
20,1,$1+$1,$2,$3,$4,$5,0*
20,1,$1+$1,$4,$5,$6,$7,0*
20,1,$1+$1,$6,$7,$8,$9,0*
20,1,$1+$1,$8,$9,$2,$3,0*%
G04 Aperture macros list end*
%TA.AperFunction,ComponentPad*%
%ADD10RoundRect,0.250000X-0.550000X0.550000X-0.550000X-0.550000X0.550000X-0.550000X0.550000X0.550000X0*%
%TD*%
%TA.AperFunction,ComponentPad*%
%ADD11C,1.600000*%
%TD*%
%TA.AperFunction,ComponentPad*%
%ADD12C,0.850000*%
%TD*%
%TA.AperFunction,ComponentPad*%
%ADD13O,2.050000X0.550000*%
%TD*%
%TA.AperFunction,ViaPad*%
%ADD14C,0.600000*%
%TD*%
%TA.AperFunction,ViaPad*%
%ADD15C,0.300000*%
%TD*%
%TA.AperFunction,Conductor*%
%ADD16C,0.200000*%
%TD*%
G04 APERTURE END LIST*
D10*
%TO.N,VBATT*%
%TO.C,J_BATT1*%
X83150000Y-82775000D03*
D11*
%TO.N,GND*%
X83150000Y-86375000D03*
%TD*%
D12*
%TO.N,Net-(J1-SHIELD)*%
%TO.C,J1*%
X78690000Y-82605000D03*
D13*
X75710000Y-82605000D03*
D12*
X78690000Y-91795000D03*
D13*
X75710000Y-91795000D03*
%TD*%
D14*
%TO.N,GND*%
X92760000Y-106950000D03*
X85500000Y-100500000D03*
X112580000Y-78280000D03*
X75750000Y-77120000D03*
X88366626Y-84128096D03*
X78050000Y-83800000D03*
X109430000Y-92950000D03*
X113275000Y-104650000D03*
X97150000Y-110775000D03*
X93950000Y-83650000D03*
X98870000Y-77130000D03*
X83125000Y-99540000D03*
X73975000Y-97425000D03*
X85475000Y-111700000D03*
X112720000Y-98050000D03*
X78100000Y-77100000D03*
X81150000Y-99550000D03*
X83000000Y-98000000D03*
X79028053Y-90103718D03*
X109920000Y-83530000D03*
X78500000Y-73500000D03*
X113225000Y-110050000D03*
X94300000Y-73850000D03*
X100600000Y-94075000D03*
X111560000Y-92600000D03*
X85075000Y-77150000D03*
X105200000Y-97575000D03*
X107325000Y-105225000D03*
X110650000Y-86350000D03*
X79175000Y-101525000D03*
X84500000Y-94000000D03*
X81150000Y-97575000D03*
X112570000Y-75980000D03*
X81150000Y-101525000D03*
X105500000Y-110950000D03*
X79175000Y-99550000D03*
X100030000Y-80120000D03*
X82833521Y-101628565D03*
X98630000Y-100460000D03*
X101350000Y-73275000D03*
X75225000Y-93025000D03*
X91450000Y-76300000D03*
X88050000Y-72875000D03*
X97450000Y-94000000D03*
X81025000Y-72000000D03*
%TO.N,VBATT*%
X80975000Y-84875000D03*
%TO.N,IO2{slash}BATT*%
X88275000Y-100375000D03*
%TO.N,+3V3*%
X112430000Y-86290000D03*
X101175000Y-105050000D03*
X102925000Y-95375000D03*
X108225000Y-72850000D03*
X110250000Y-78950000D03*
X102775000Y-89025000D03*
X110475000Y-103025000D03*
X85950000Y-81000000D03*
X97550000Y-106950000D03*
X88300000Y-101950000D03*
X79800000Y-92050000D03*
X85000000Y-96500000D03*
X96925000Y-74750000D03*
X74025000Y-102200000D03*
X99875000Y-74775000D03*
X83625000Y-73625000D03*
X106075000Y-76925000D03*
%TO.N,EN*%
X88300000Y-97925000D03*
%TO.N,VCC_TX*%
X92725000Y-96300000D03*
X94975000Y-98100000D03*
%TO.N,VUSB*%
X78350000Y-85000000D03*
%TO.N,Net-(FL1-Pad1)*%
X104475000Y-88650000D03*
X100725000Y-91150000D03*
%TO.N,INP1*%
X96700000Y-91150001D03*
X102775000Y-93325000D03*
%TO.N,TX1*%
X91375000Y-88750000D03*
X90911765Y-96688235D03*
%TO.N,INM1*%
X91350000Y-91149999D03*
X97000000Y-92150000D03*
D15*
%TO.N,TX2*%
X105390000Y-95190000D03*
D14*
X91350000Y-93549999D03*
%TO.N,IO18{slash}LR*%
X76350000Y-93425000D03*
X88650000Y-85950000D03*
%TO.N,IO19{slash}WS*%
X76425000Y-95550752D03*
X88625000Y-86900000D03*
%TO.N,IO20{slash}SCK*%
X76745000Y-96745000D03*
X85425000Y-86500000D03*
%TO.N,IO14{slash}SD*%
X87500000Y-90700000D03*
X80350000Y-95900000D03*
%TO.N,Net-(J1-CC2)*%
X78350000Y-88600000D03*
%TO.N,Net-(J1-CC1)*%
X78350000Y-85800000D03*
%TO.N,IO7{slash}SCL*%
X106550000Y-84575000D03*
X103925000Y-84575000D03*
X82750000Y-95900000D03*
%TO.N,IO6{slash}SDA*%
X107325000Y-95975000D03*
X83550003Y-95900000D03*
X105475000Y-85225000D03*
X107175000Y-85225000D03*
X108525000Y-96000000D03*
%TO.N,IO21{slash}S1*%
X76610000Y-97720000D03*
X76250000Y-72900000D03*
%TO.N,Net-(U1-GPIO8)*%
X77950000Y-95900000D03*
%TO.N,IO22{slash}AFE_CLK*%
X76587500Y-98562500D03*
D15*
%TO.N,Net-(U8-CLK)*%
X104890000Y-95190000D03*
D14*
X89500000Y-105000000D03*
%TO.N,IO15{slash}AFE_RST*%
X106650000Y-93800000D03*
X79550000Y-95900000D03*
X111240000Y-90880000D03*
%TO.N,IO23{slash}TOUCH*%
X76400000Y-100000000D03*
%TO.N,IO3{slash}CHG*%
X90775000Y-77875000D03*
%TO.N,IO5{slash}SELECT*%
X97400000Y-87950000D03*
X99901471Y-92150000D03*
X88675000Y-89500000D03*
%TD*%
D16*
%TO.N,IO18{slash}LR*%
X89225000Y-86525000D02*
X88650000Y-85950000D01*
X78950000Y-98298529D02*
X78950000Y-95650000D01*
X89225000Y-87950000D02*
X89225000Y-86525000D01*
X76151471Y-100600000D02*
X76648529Y-100600000D01*
X76648529Y-100600000D02*
X78950000Y-98298529D01*
X78950000Y-95650000D02*
X86275000Y-88325000D01*
X75800000Y-100248529D02*
X76151471Y-100600000D01*
X88850000Y-88325000D02*
X89225000Y-87950000D01*
X75800000Y-93975000D02*
X75800000Y-100248529D01*
X76350000Y-93425000D02*
X75800000Y-93975000D01*
X86275000Y-88325000D02*
X88850000Y-88325000D01*
%TO.N,IO19{slash}WS*%
X88050000Y-85225686D02*
X87514314Y-84690000D01*
X77350000Y-94625752D02*
X76425000Y-95550752D01*
X84825000Y-87395000D02*
X81345000Y-90875000D01*
X78200000Y-90875000D02*
X77350000Y-91725000D01*
X87514314Y-84690000D02*
X85310000Y-84690000D01*
X81345000Y-90875000D02*
X78200000Y-90875000D01*
X84825000Y-85175000D02*
X84825000Y-87395000D01*
X77350000Y-91725000D02*
X77350000Y-94625752D01*
X88050000Y-86325000D02*
X88050000Y-85225686D01*
X88625000Y-86900000D02*
X88050000Y-86325000D01*
X85310000Y-84690000D02*
X84825000Y-85175000D01*
%TO.N,IO20{slash}SCK*%
X85425000Y-87399281D02*
X85425000Y-86500000D01*
X76745000Y-96079281D02*
X85425000Y-87399281D01*
X76745000Y-96745000D02*
X76745000Y-96079281D01*
%TO.N,IO14{slash}SD*%
X85550000Y-90700000D02*
X80350000Y-95900000D01*
X87500000Y-90700000D02*
X85550000Y-90700000D01*
%TO.N,Net-(U8-CLK)*%
X91130000Y-103370000D02*
X89500000Y-105000000D01*
X97080000Y-103370000D02*
X91130000Y-103370000D01*
X104890000Y-95190000D02*
X104890000Y-95560000D01*
X104890000Y-95560000D02*
X97080000Y-103370000D01*
%TO.N,IO15{slash}AFE_RST*%
X111240000Y-90880000D02*
X109570000Y-90880000D01*
X102950000Y-90100000D02*
X106650000Y-93800000D01*
X109570000Y-90880000D02*
X106650000Y-93800000D01*
X79550000Y-95851471D02*
X85301471Y-90100000D01*
X85301471Y-90100000D02*
X102950000Y-90100000D01*
X79550000Y-95900000D02*
X79550000Y-95851471D01*
%TD*%
%TA.AperFunction,Conductor*%
%TO.N,GND*%
G36*
X74634731Y-71520185D02*
G01*
X74680486Y-71572989D01*
X74690430Y-71642147D01*
X74670794Y-71693391D01*
X74654228Y-71718182D01*
X74654221Y-71718195D01*
X74601421Y-71845667D01*
X74601418Y-71845677D01*
X74574500Y-71981004D01*
X74574500Y-71981007D01*
X74574500Y-72118993D01*
X74574500Y-72118995D01*
X74574499Y-72118995D01*
X74601418Y-72254322D01*
X74601421Y-72254332D01*
X74654221Y-72381804D01*
X74654228Y-72381817D01*
X74730885Y-72496541D01*
X74730888Y-72496545D01*
X74828454Y-72594111D01*
X74828458Y-72594114D01*
X74943182Y-72670771D01*
X74943195Y-72670778D01*
X75070667Y-72723578D01*
X75070672Y-72723580D01*
X75070676Y-72723580D01*
X75070677Y-72723581D01*
X75206004Y-72750500D01*
X75322524Y-72750500D01*
X75389563Y-72770185D01*
X75435318Y-72822989D01*
X75445743Y-72888384D01*
X75444524Y-72899209D01*
X75444435Y-72900001D01*
X75444435Y-72900003D01*
X75464630Y-73079249D01*
X75464631Y-73079254D01*
X75524211Y-73249523D01*
X75540520Y-73275478D01*
X75620184Y-73402262D01*
X75747738Y-73529816D01*
X75900478Y-73625789D01*
X75985573Y-73655565D01*
X76070745Y-73685368D01*
X76070750Y-73685369D01*
X76249996Y-73705565D01*
X76250000Y-73705565D01*
X76250004Y-73705565D01*
X76429249Y-73685369D01*
X76429252Y-73685368D01*
X76429255Y-73685368D01*
X76599522Y-73625789D01*
X76752262Y-73529816D01*
X76879816Y-73402262D01*
X76975789Y-73249522D01*
X77035368Y-73079255D01*
X77041002Y-73029254D01*
X77055565Y-72900003D01*
X77055565Y-72900001D01*
X77054256Y-72888387D01*
X77066309Y-72819565D01*
X77113657Y-72768184D01*
X77177476Y-72750500D01*
X77293995Y-72750500D01*
X77385041Y-72732389D01*
X77429328Y-72723580D01*
X77556811Y-72670775D01*
X77671542Y-72594114D01*
X77769114Y-72496542D01*
X77845775Y-72381811D01*
X77898580Y-72254328D01*
X77925500Y-72118993D01*
X77925500Y-71981007D01*
X77925500Y-71981004D01*
X77898581Y-71845677D01*
X77898580Y-71845676D01*
X77898580Y-71845672D01*
X77880695Y-71802494D01*
X77845778Y-71718195D01*
X77845771Y-71718182D01*
X77829206Y-71693391D01*
X77808328Y-71626714D01*
X77826812Y-71559334D01*
X77878791Y-71512643D01*
X77932308Y-71500500D01*
X82287957Y-71500500D01*
X82354996Y-71520185D01*
X82400751Y-71572989D01*
X82404209Y-71582072D01*
X82404265Y-71582051D01*
X82405960Y-71586370D01*
X82510035Y-71802485D01*
X82510040Y-71802494D01*
X82645170Y-72000694D01*
X82808331Y-72176539D01*
X82995878Y-72326103D01*
X83203622Y-72446044D01*
X83426921Y-72533683D01*
X83426933Y-72533685D01*
X83426934Y-72533686D01*
X83619057Y-72577537D01*
X83680036Y-72611645D01*
X83712894Y-72673307D01*
X83707199Y-72742944D01*
X83664759Y-72798448D01*
X83605349Y-72821648D01*
X83445749Y-72839630D01*
X83445745Y-72839631D01*
X83275476Y-72899211D01*
X83122737Y-72995184D01*
X82995184Y-73122737D01*
X82899211Y-73275476D01*
X82839631Y-73445745D01*
X82839630Y-73445750D01*
X82819435Y-73624996D01*
X82819435Y-73625003D01*
X82839630Y-73804249D01*
X82839631Y-73804254D01*
X82899211Y-73974523D01*
X82946141Y-74049211D01*
X82995184Y-74127262D01*
X83122738Y-74254816D01*
X83275478Y-74350789D01*
X83417475Y-74400476D01*
X83445745Y-74410368D01*
X83445750Y-74410369D01*
X83624996Y-74430565D01*
X83625000Y-74430565D01*
X83625004Y-74430565D01*
X83804249Y-74410369D01*
X83804252Y-74410368D01*
X83804255Y-74410368D01*
X83974522Y-74350789D01*
X84127262Y-74254816D01*
X84254816Y-74127262D01*
X84350789Y-73974522D01*
X84410368Y-73804255D01*
X84423763Y-73685369D01*
X84430565Y-73625003D01*
X84430565Y-73624996D01*
X84410369Y-73445750D01*
X84410368Y-73445745D01*
X84350788Y-73275476D01*
X84254815Y-73122737D01*
X84127262Y-72995184D01*
X83974519Y-72899209D01*
X83833877Y-72849996D01*
X107419435Y-72849996D01*
X107419435Y-72850003D01*
X107439630Y-73029249D01*
X107439631Y-73029254D01*
X107499211Y-73199523D01*
X107546936Y-73275476D01*
X107595184Y-73352262D01*
X107722738Y-73479816D01*
X107875478Y-73575789D01*
X108016104Y-73624996D01*
X108045745Y-73635368D01*
X108045750Y-73635369D01*
X108224996Y-73655565D01*
X108225000Y-73655565D01*
X108225004Y-73655565D01*
X108404249Y-73635369D01*
X108404252Y-73635368D01*
X108404255Y-73635368D01*
X108574522Y-73575789D01*
X108727262Y-73479816D01*
X108854816Y-73352262D01*
X108950789Y-73199522D01*
X109010368Y-73029255D01*
X109024931Y-72900003D01*
X109030565Y-72850003D01*
X109030565Y-72849996D01*
X109010369Y-72670750D01*
X109010368Y-72670745D01*
X108986417Y-72602296D01*
X108950789Y-72500478D01*
X108854816Y-72347738D01*
X108727262Y-72220184D01*
X108574523Y-72124211D01*
X108404254Y-72064631D01*
X108404249Y-72064630D01*
X108225004Y-72044435D01*
X108224996Y-72044435D01*
X108045750Y-72064630D01*
X108045745Y-72064631D01*
X107875476Y-72124211D01*
X107722737Y-72220184D01*
X107595184Y-72347737D01*
X107499211Y-72500476D01*
X107439631Y-72670745D01*
X107439630Y-72670750D01*
X107419435Y-72849996D01*
X83833877Y-72849996D01*
X83813855Y-72842990D01*
X83757079Y-72802269D01*
X83731332Y-72737316D01*
X83744788Y-72668754D01*
X83793176Y-72618352D01*
X83861131Y-72602110D01*
X83864077Y-72602296D01*
X83899997Y-72604988D01*
X83900000Y-72604988D01*
X83900005Y-72604988D01*
X84049506Y-72593784D01*
X84139211Y-72587062D01*
X84373079Y-72533683D01*
X84596378Y-72446044D01*
X84804122Y-72326103D01*
X84991669Y-72176539D01*
X85154830Y-72000694D01*
X85289960Y-71802494D01*
X85394041Y-71586368D01*
X85394045Y-71586353D01*
X85395735Y-71582051D01*
X85397105Y-71582588D01*
X85432110Y-71529702D01*
X85496050Y-71501536D01*
X85512043Y-71500500D01*
X109137957Y-71500500D01*
X109204996Y-71520185D01*
X109250751Y-71572989D01*
X109254209Y-71582072D01*
X109254265Y-71582051D01*
X109255960Y-71586370D01*
X109360035Y-71802485D01*
X109360040Y-71802494D01*
X109495170Y-72000694D01*
X109658331Y-72176539D01*
X109845878Y-72326103D01*
X110053622Y-72446044D01*
X110276921Y-72533683D01*
X110510789Y-72587062D01*
X110579135Y-72592183D01*
X110749995Y-72604988D01*
X110750000Y-72604988D01*
X110750005Y-72604988D01*
X110899506Y-72593784D01*
X110989211Y-72587062D01*
X111223079Y-72533683D01*
X111446378Y-72446044D01*
X111654122Y-72326103D01*
X111841669Y-72176539D01*
X112004830Y-72000694D01*
X112139960Y-71802494D01*
X112244041Y-71586368D01*
X112244045Y-71586353D01*
X112245735Y-71582051D01*
X112247105Y-71582588D01*
X112282110Y-71529702D01*
X112346050Y-71501536D01*
X112362043Y-71500500D01*
X114375500Y-71500500D01*
X114442539Y-71520185D01*
X114488294Y-71572989D01*
X114499500Y-71624500D01*
X114499500Y-111875500D01*
X114479815Y-111942539D01*
X114427011Y-111988294D01*
X114375500Y-111999500D01*
X112362043Y-111999500D01*
X112295004Y-111979815D01*
X112249249Y-111927011D01*
X112245790Y-111917927D01*
X112245735Y-111917949D01*
X112244044Y-111913641D01*
X112244041Y-111913632D01*
X112139960Y-111697506D01*
X112004830Y-111499306D01*
X111841669Y-111323461D01*
X111654122Y-111173897D01*
X111446378Y-111053956D01*
X111446372Y-111053953D01*
X111223084Y-110966319D01*
X111223079Y-110966317D01*
X111223070Y-110966315D01*
X111223067Y-110966314D01*
X110989208Y-110912937D01*
X110750005Y-110895012D01*
X110749995Y-110895012D01*
X110510791Y-110912937D01*
X110276932Y-110966314D01*
X110276924Y-110966316D01*
X110276921Y-110966317D01*
X110276918Y-110966317D01*
X110276915Y-110966319D01*
X110053627Y-111053953D01*
X110053619Y-111053957D01*
X109845878Y-111173897D01*
X109658331Y-111323460D01*
X109658329Y-111323463D01*
X109495168Y-111499308D01*
X109360040Y-111697505D01*
X109360035Y-111697514D01*
X109255960Y-111913629D01*
X109254265Y-111917949D01*
X109252894Y-111917411D01*
X109217890Y-111970298D01*
X109153950Y-111998464D01*
X109137957Y-111999500D01*
X93312043Y-111999500D01*
X93245004Y-111979815D01*
X93199249Y-111927011D01*
X93195790Y-111917927D01*
X93195735Y-111917949D01*
X93194044Y-111913641D01*
X93194041Y-111913632D01*
X93089960Y-111697506D01*
X92954830Y-111499306D01*
X92791669Y-111323461D01*
X92604122Y-111173897D01*
X92396378Y-111053956D01*
X92396372Y-111053953D01*
X92173084Y-110966319D01*
X92173079Y-110966317D01*
X92173070Y-110966315D01*
X92173067Y-110966314D01*
X91939208Y-110912937D01*
X91700005Y-110895012D01*
X91699995Y-110895012D01*
X91460791Y-110912937D01*
X91226932Y-110966314D01*
X91226924Y-110966316D01*
X91226921Y-110966317D01*
X91226918Y-110966317D01*
X91226915Y-110966319D01*
X91003627Y-111053953D01*
X91003619Y-111053957D01*
X90795878Y-111173897D01*
X90608331Y-111323460D01*
X90608329Y-111323463D01*
X90445168Y-111499308D01*
X90310040Y-111697505D01*
X90310035Y-111697514D01*
X90205960Y-111913629D01*
X90204265Y-111917949D01*
X90202894Y-111917411D01*
X90167890Y-111970298D01*
X90103950Y-111998464D01*
X90087957Y-111999500D01*
X80812043Y-111999500D01*
X80745004Y-111979815D01*
X80699249Y-111927011D01*
X80695790Y-111917927D01*
X80695735Y-111917949D01*
X80694044Y-111913641D01*
X80694041Y-111913632D01*
X80589960Y-111697506D01*
X80454830Y-111499306D01*
X80291669Y-111323461D01*
X80104122Y-111173897D01*
X79896378Y-111053956D01*
X79896372Y-111053953D01*
X79673084Y-110966319D01*
X79673079Y-110966317D01*
X79673070Y-110966315D01*
X79673067Y-110966314D01*
X79439208Y-110912937D01*
X79200005Y-110895012D01*
X79199995Y-110895012D01*
X78960791Y-110912937D01*
X78726932Y-110966314D01*
X78726924Y-110966316D01*
X78726921Y-110966317D01*
X78726918Y-110966317D01*
X78726915Y-110966319D01*
X78503627Y-111053953D01*
X78503619Y-111053957D01*
X78295878Y-111173897D01*
X78108331Y-111323460D01*
X78108329Y-111323463D01*
X77945168Y-111499308D01*
X77810040Y-111697505D01*
X77810035Y-111697514D01*
X77705960Y-111913629D01*
X77704265Y-111917949D01*
X77702894Y-111917411D01*
X77667890Y-111970298D01*
X77603950Y-111998464D01*
X77587957Y-111999500D01*
X73624500Y-111999500D01*
X73557461Y-111979815D01*
X73511706Y-111927011D01*
X73500500Y-111875500D01*
X73500500Y-110550000D01*
X74550000Y-110550000D01*
X87750000Y-110550000D01*
X87750000Y-106949996D01*
X96744435Y-106949996D01*
X96744435Y-106950003D01*
X96764630Y-107129249D01*
X96764631Y-107129254D01*
X96824211Y-107299523D01*
X96920184Y-107452262D01*
X97047738Y-107579816D01*
X97200478Y-107675789D01*
X97370745Y-107735368D01*
X97370750Y-107735369D01*
X97549996Y-107755565D01*
X97550000Y-107755565D01*
X97550004Y-107755565D01*
X97729249Y-107735369D01*
X97729252Y-107735368D01*
X97729255Y-107735368D01*
X97899522Y-107675789D01*
X98052262Y-107579816D01*
X98179816Y-107452262D01*
X98275789Y-107299522D01*
X98335368Y-107129255D01*
X98355565Y-106950000D01*
X98335368Y-106770745D01*
X98275789Y-106600478D01*
X98179816Y-106447738D01*
X98052262Y-106320184D01*
X97899523Y-106224211D01*
X97729254Y-106164631D01*
X97729249Y-106164630D01*
X97550004Y-106144435D01*
X97549996Y-106144435D01*
X97370750Y-106164630D01*
X97370745Y-106164631D01*
X97200476Y-106224211D01*
X97047737Y-106320184D01*
X96920184Y-106447737D01*
X96824211Y-106600476D01*
X96764631Y-106770745D01*
X96764630Y-106770750D01*
X96744435Y-106949996D01*
X87750000Y-106949996D01*
X87750000Y-105150000D01*
X74550000Y-105150000D01*
X74550000Y-110550000D01*
X73500500Y-110550000D01*
X73500500Y-104999996D01*
X88694435Y-104999996D01*
X88694435Y-105000003D01*
X88714630Y-105179249D01*
X88714631Y-105179254D01*
X88774211Y-105349523D01*
X88870184Y-105502262D01*
X88997738Y-105629816D01*
X89150478Y-105725789D01*
X89293367Y-105775788D01*
X89320745Y-105785368D01*
X89320750Y-105785369D01*
X89499996Y-105805565D01*
X89500000Y-105805565D01*
X89500004Y-105805565D01*
X89679249Y-105785369D01*
X89679252Y-105785368D01*
X89679255Y-105785368D01*
X89849522Y-105725789D01*
X90002262Y-105629816D01*
X90129816Y-105502262D01*
X90225789Y-105349522D01*
X90285368Y-105179255D01*
X90294073Y-105101986D01*
X90315919Y-105049996D01*
X100369435Y-105049996D01*
X100369435Y-105050003D01*
X100389630Y-105229249D01*
X100389631Y-105229254D01*
X100449211Y-105399523D01*
X100513767Y-105502262D01*
X100545184Y-105552262D01*
X100672738Y-105679816D01*
X100825478Y-105775789D01*
X100910573Y-105805565D01*
X100995745Y-105835368D01*
X100995750Y-105835369D01*
X101174996Y-105855565D01*
X101175000Y-105855565D01*
X101175004Y-105855565D01*
X101354249Y-105835369D01*
X101354252Y-105835368D01*
X101354255Y-105835368D01*
X101524522Y-105775789D01*
X101677262Y-105679816D01*
X101804816Y-105552262D01*
X101900789Y-105399522D01*
X101960368Y-105229255D01*
X101960369Y-105229249D01*
X101980565Y-105050003D01*
X101980565Y-105049996D01*
X101960369Y-104870750D01*
X101960368Y-104870745D01*
X101900788Y-104700476D01*
X101804815Y-104547737D01*
X101677262Y-104420184D01*
X101524523Y-104324211D01*
X101354254Y-104264631D01*
X101354249Y-104264630D01*
X101175004Y-104244435D01*
X101174996Y-104244435D01*
X100995750Y-104264630D01*
X100995745Y-104264631D01*
X100825476Y-104324211D01*
X100672737Y-104420184D01*
X100545184Y-104547737D01*
X100449211Y-104700476D01*
X100389631Y-104870745D01*
X100389630Y-104870750D01*
X100369435Y-105049996D01*
X90315919Y-105049996D01*
X90321138Y-105037577D01*
X90327385Y-105030477D01*
X90353604Y-105002879D01*
X90353613Y-105002869D01*
X90386913Y-104964335D01*
X90397879Y-104951354D01*
X91342416Y-104006819D01*
X91403739Y-103973334D01*
X91430097Y-103970500D01*
X96993331Y-103970500D01*
X96993347Y-103970501D01*
X97000943Y-103970501D01*
X97159054Y-103970501D01*
X97159057Y-103970501D01*
X97311785Y-103929577D01*
X97361904Y-103900639D01*
X97448716Y-103850520D01*
X97560520Y-103738716D01*
X97560520Y-103738714D01*
X97570728Y-103728507D01*
X97570729Y-103728504D01*
X98274237Y-103024996D01*
X109669435Y-103024996D01*
X109669435Y-103025003D01*
X109689630Y-103204249D01*
X109689631Y-103204254D01*
X109749211Y-103374523D01*
X109845184Y-103527262D01*
X109972738Y-103654816D01*
X110125478Y-103750789D01*
X110295745Y-103810368D01*
X110295750Y-103810369D01*
X110474996Y-103830565D01*
X110475000Y-103830565D01*
X110475004Y-103830565D01*
X110654249Y-103810369D01*
X110654252Y-103810368D01*
X110654255Y-103810368D01*
X110824522Y-103750789D01*
X110977262Y-103654816D01*
X111104816Y-103527262D01*
X111200789Y-103374522D01*
X111260368Y-103204255D01*
X111260369Y-103204249D01*
X111280565Y-103025003D01*
X111280565Y-103024996D01*
X111260369Y-102845750D01*
X111260368Y-102845745D01*
X111232697Y-102766666D01*
X111200789Y-102675478D01*
X111104816Y-102522738D01*
X110977262Y-102395184D01*
X110951902Y-102379249D01*
X110824523Y-102299211D01*
X110654254Y-102239631D01*
X110654249Y-102239630D01*
X110475004Y-102219435D01*
X110474996Y-102219435D01*
X110295750Y-102239630D01*
X110295745Y-102239631D01*
X110125476Y-102299211D01*
X109972737Y-102395184D01*
X109845184Y-102522737D01*
X109749211Y-102675476D01*
X109689631Y-102845745D01*
X109689630Y-102845750D01*
X109669435Y-103024996D01*
X98274237Y-103024996D01*
X105324239Y-95974996D01*
X106519435Y-95974996D01*
X106519435Y-95975003D01*
X106539630Y-96154249D01*
X106539631Y-96154254D01*
X106599211Y-96324523D01*
X106648058Y-96402262D01*
X106695184Y-96477262D01*
X106822738Y-96604816D01*
X106879564Y-96640522D01*
X106969743Y-96697186D01*
X106975478Y-96700789D01*
X107046924Y-96725789D01*
X107145745Y-96760368D01*
X107145750Y-96760369D01*
X107324996Y-96780565D01*
X107325000Y-96780565D01*
X107325004Y-96780565D01*
X107504249Y-96760369D01*
X107504252Y-96760368D01*
X107504255Y-96760368D01*
X107674522Y-96700789D01*
X107827262Y-96604816D01*
X107827266Y-96604811D01*
X107832705Y-96600475D01*
X107834081Y-96602201D01*
X107886142Y-96573774D01*
X107955834Y-96578758D01*
X108000181Y-96607259D01*
X108022738Y-96629816D01*
X108175478Y-96725789D01*
X108274299Y-96760368D01*
X108345745Y-96785368D01*
X108345750Y-96785369D01*
X108524996Y-96805565D01*
X108525000Y-96805565D01*
X108525004Y-96805565D01*
X108704249Y-96785369D01*
X108704252Y-96785368D01*
X108704255Y-96785368D01*
X108874522Y-96725789D01*
X109027262Y-96629816D01*
X109154816Y-96502262D01*
X109250789Y-96349522D01*
X109310368Y-96179255D01*
X109312496Y-96160368D01*
X109330565Y-96000003D01*
X109330565Y-95999996D01*
X109310369Y-95820750D01*
X109310368Y-95820745D01*
X109304052Y-95802696D01*
X109250789Y-95650478D01*
X109235080Y-95625478D01*
X109187955Y-95550478D01*
X109154816Y-95497738D01*
X109027262Y-95370184D01*
X109023374Y-95367741D01*
X108874523Y-95274211D01*
X108704254Y-95214631D01*
X108704249Y-95214630D01*
X108525004Y-95194435D01*
X108524996Y-95194435D01*
X108345750Y-95214630D01*
X108345745Y-95214631D01*
X108175476Y-95274211D01*
X108022737Y-95370184D01*
X108017295Y-95374525D01*
X108015918Y-95372798D01*
X107963858Y-95401226D01*
X107894166Y-95396242D01*
X107849819Y-95367741D01*
X107827262Y-95345184D01*
X107674523Y-95249211D01*
X107504254Y-95189631D01*
X107504249Y-95189630D01*
X107325004Y-95169435D01*
X107324996Y-95169435D01*
X107145750Y-95189630D01*
X107145745Y-95189631D01*
X106975476Y-95249211D01*
X106822737Y-95345184D01*
X106695184Y-95472737D01*
X106599211Y-95625476D01*
X106539631Y-95795745D01*
X106539630Y-95795750D01*
X106519435Y-95974996D01*
X105324239Y-95974996D01*
X105430941Y-95868294D01*
X105488945Y-95835580D01*
X105622365Y-95802696D01*
X105762240Y-95729283D01*
X105880483Y-95624530D01*
X105970220Y-95494523D01*
X106026237Y-95346818D01*
X106045278Y-95190000D01*
X106042787Y-95169480D01*
X106026237Y-95033181D01*
X106004992Y-94977164D01*
X105970220Y-94885477D01*
X105880483Y-94755470D01*
X105762240Y-94650717D01*
X105762238Y-94650716D01*
X105762237Y-94650715D01*
X105622365Y-94577303D01*
X105468986Y-94539500D01*
X105468985Y-94539500D01*
X105311015Y-94539500D01*
X105311014Y-94539500D01*
X105169674Y-94574336D01*
X105110326Y-94574336D01*
X104968986Y-94539500D01*
X104968985Y-94539500D01*
X104811015Y-94539500D01*
X104811014Y-94539500D01*
X104657634Y-94577303D01*
X104517762Y-94650715D01*
X104399516Y-94755471D01*
X104309781Y-94885475D01*
X104309780Y-94885476D01*
X104253762Y-95033181D01*
X104234722Y-95189999D01*
X104234722Y-95190000D01*
X104246505Y-95287045D01*
X104235044Y-95355968D01*
X104211090Y-95389672D01*
X103913594Y-95687169D01*
X103852271Y-95720654D01*
X103782580Y-95715670D01*
X103726646Y-95673799D01*
X103702229Y-95608334D01*
X103708872Y-95558533D01*
X103710366Y-95554262D01*
X103710369Y-95554249D01*
X103730565Y-95375003D01*
X103730565Y-95374996D01*
X103710369Y-95195750D01*
X103710368Y-95195745D01*
X103681985Y-95114631D01*
X103650789Y-95025478D01*
X103554816Y-94872738D01*
X103427262Y-94745184D01*
X103383496Y-94717684D01*
X103274523Y-94649211D01*
X103104254Y-94589631D01*
X103104249Y-94589630D01*
X102925004Y-94569435D01*
X102924996Y-94569435D01*
X102745750Y-94589630D01*
X102745745Y-94589631D01*
X102575476Y-94649211D01*
X102422737Y-94745184D01*
X102295184Y-94872737D01*
X102199211Y-95025476D01*
X102139631Y-95195745D01*
X102139630Y-95195750D01*
X102119435Y-95374996D01*
X102119435Y-95375003D01*
X102139630Y-95554249D01*
X102139631Y-95554254D01*
X102199211Y-95724523D01*
X102248331Y-95802696D01*
X102295184Y-95877262D01*
X102422738Y-96004816D01*
X102575478Y-96100789D01*
X102717475Y-96150476D01*
X102745745Y-96160368D01*
X102745750Y-96160369D01*
X102924996Y-96180565D01*
X102925000Y-96180565D01*
X102925004Y-96180565D01*
X103104249Y-96160369D01*
X103104251Y-96160368D01*
X103104255Y-96160368D01*
X103108524Y-96158873D01*
X103178302Y-96155306D01*
X103238932Y-96190030D01*
X103271165Y-96252020D01*
X103264766Y-96321596D01*
X103237169Y-96363593D01*
X96867584Y-102733181D01*
X96806261Y-102766666D01*
X96779903Y-102769500D01*
X91050943Y-102769500D01*
X90898213Y-102810423D01*
X90864626Y-102829816D01*
X90864625Y-102829816D01*
X90761287Y-102889477D01*
X90761282Y-102889481D01*
X90649478Y-103001286D01*
X89529469Y-104121294D01*
X89513533Y-104134750D01*
X89497122Y-104146391D01*
X89497118Y-104146395D01*
X89469524Y-104172608D01*
X89407362Y-104204509D01*
X89398006Y-104205926D01*
X89320750Y-104214630D01*
X89150478Y-104274210D01*
X88997737Y-104370184D01*
X88870184Y-104497737D01*
X88774211Y-104650476D01*
X88714631Y-104820745D01*
X88714630Y-104820750D01*
X88694435Y-104999996D01*
X73500500Y-104999996D01*
X73500500Y-103038869D01*
X73520185Y-102971830D01*
X73572989Y-102926075D01*
X73642147Y-102916131D01*
X73668652Y-102924210D01*
X73668905Y-102923489D01*
X73845745Y-102985368D01*
X73845750Y-102985369D01*
X74024996Y-103005565D01*
X74025000Y-103005565D01*
X74025004Y-103005565D01*
X74204249Y-102985369D01*
X74204252Y-102985368D01*
X74204255Y-102985368D01*
X74374522Y-102925789D01*
X74527262Y-102829816D01*
X74654816Y-102702262D01*
X74750789Y-102549522D01*
X74810368Y-102379255D01*
X74826100Y-102239630D01*
X74830565Y-102200003D01*
X74830565Y-102199996D01*
X74810369Y-102020750D01*
X74810368Y-102020745D01*
X74750788Y-101850476D01*
X74711582Y-101788080D01*
X74654816Y-101697738D01*
X74527262Y-101570184D01*
X74374523Y-101474211D01*
X74204254Y-101414631D01*
X74204249Y-101414630D01*
X74025004Y-101394435D01*
X74024996Y-101394435D01*
X73845750Y-101414630D01*
X73845745Y-101414631D01*
X73668905Y-101476511D01*
X73668206Y-101474515D01*
X73609348Y-101484201D01*
X73545216Y-101456472D01*
X73506256Y-101398472D01*
X73500500Y-101361130D01*
X73500500Y-91732399D01*
X74484500Y-91732399D01*
X74484500Y-91857601D01*
X74516905Y-91978536D01*
X74579505Y-92086964D01*
X74668036Y-92175495D01*
X74776464Y-92238095D01*
X74897399Y-92270500D01*
X74897401Y-92270500D01*
X76522599Y-92270500D01*
X76522601Y-92270500D01*
X76593407Y-92251527D01*
X76663256Y-92253190D01*
X76721118Y-92292352D01*
X76748623Y-92356580D01*
X76749500Y-92371302D01*
X76749500Y-92541936D01*
X76729815Y-92608975D01*
X76677011Y-92654730D01*
X76607853Y-92664674D01*
X76584547Y-92658978D01*
X76529260Y-92639633D01*
X76529249Y-92639630D01*
X76350004Y-92619435D01*
X76349996Y-92619435D01*
X76170750Y-92639630D01*
X76170745Y-92639631D01*
X76000476Y-92699211D01*
X75847737Y-92795184D01*
X75720184Y-92922737D01*
X75624210Y-93075478D01*
X75564630Y-93245750D01*
X75555925Y-93323009D01*
X75528858Y-93387423D01*
X75522623Y-93394510D01*
X75519043Y-93398280D01*
X75519025Y-93398299D01*
X75496402Y-93422111D01*
X75463125Y-93460618D01*
X75452115Y-93473648D01*
X75431288Y-93494476D01*
X75431286Y-93494478D01*
X75319481Y-93606282D01*
X75319479Y-93606285D01*
X75290325Y-93656783D01*
X75290324Y-93656785D01*
X75240423Y-93743214D01*
X75231119Y-93777937D01*
X75199499Y-93895943D01*
X75199499Y-93895945D01*
X75199499Y-94064046D01*
X75199500Y-94064059D01*
X75199500Y-100161859D01*
X75199499Y-100161877D01*
X75199499Y-100327583D01*
X75199498Y-100327583D01*
X75240423Y-100480314D01*
X75269358Y-100530429D01*
X75269359Y-100530433D01*
X75269360Y-100530433D01*
X75319479Y-100617243D01*
X75319481Y-100617246D01*
X75438349Y-100736114D01*
X75438355Y-100736119D01*
X75666610Y-100964374D01*
X75666620Y-100964385D01*
X75670950Y-100968715D01*
X75670951Y-100968716D01*
X75782755Y-101080520D01*
X75817863Y-101100789D01*
X75869566Y-101130639D01*
X75869568Y-101130641D01*
X75907622Y-101152611D01*
X75919686Y-101159577D01*
X76072414Y-101200500D01*
X76230528Y-101200500D01*
X76561860Y-101200500D01*
X76561876Y-101200501D01*
X76569472Y-101200501D01*
X76727583Y-101200501D01*
X76727586Y-101200501D01*
X76880314Y-101159577D01*
X76930433Y-101130639D01*
X77017245Y-101080520D01*
X77129049Y-100968716D01*
X77129049Y-100968714D01*
X77139257Y-100958507D01*
X77139258Y-100958504D01*
X77722767Y-100374996D01*
X87469435Y-100374996D01*
X87469435Y-100375003D01*
X87489630Y-100554249D01*
X87489631Y-100554254D01*
X87549211Y-100724523D01*
X87645184Y-100877262D01*
X87772738Y-101004816D01*
X87844092Y-101049651D01*
X87869093Y-101065360D01*
X87915384Y-101117695D01*
X87926032Y-101186749D01*
X87897657Y-101250597D01*
X87869094Y-101275347D01*
X87797740Y-101320182D01*
X87797737Y-101320184D01*
X87670184Y-101447737D01*
X87574211Y-101600476D01*
X87514631Y-101770745D01*
X87514630Y-101770750D01*
X87494435Y-101949996D01*
X87494435Y-101950003D01*
X87514630Y-102129249D01*
X87514631Y-102129254D01*
X87574211Y-102299523D01*
X87634319Y-102395184D01*
X87670184Y-102452262D01*
X87797738Y-102579816D01*
X87888080Y-102636582D01*
X87949979Y-102675476D01*
X87950478Y-102675789D01*
X88114495Y-102733181D01*
X88120745Y-102735368D01*
X88120750Y-102735369D01*
X88299996Y-102755565D01*
X88300000Y-102755565D01*
X88300004Y-102755565D01*
X88479249Y-102735369D01*
X88479252Y-102735368D01*
X88479255Y-102735368D01*
X88649522Y-102675789D01*
X88802262Y-102579816D01*
X88929816Y-102452262D01*
X89025789Y-102299522D01*
X89085368Y-102129255D01*
X89085369Y-102129249D01*
X89105565Y-101950003D01*
X89105565Y-101949996D01*
X89085369Y-101770750D01*
X89085368Y-101770745D01*
X89025788Y-101600476D01*
X88929815Y-101447737D01*
X88802260Y-101320182D01*
X88705905Y-101259638D01*
X88659615Y-101207304D01*
X88648967Y-101138250D01*
X88677342Y-101074402D01*
X88705905Y-101049652D01*
X88777262Y-101004816D01*
X88904816Y-100877262D01*
X89000789Y-100724522D01*
X89060368Y-100554255D01*
X89080565Y-100375000D01*
X89075222Y-100327583D01*
X89060369Y-100195750D01*
X89060368Y-100195745D01*
X89000788Y-100025476D01*
X88904815Y-99872737D01*
X88777262Y-99745184D01*
X88624523Y-99649211D01*
X88454254Y-99589631D01*
X88454249Y-99589630D01*
X88275004Y-99569435D01*
X88274996Y-99569435D01*
X88095750Y-99589630D01*
X88095745Y-99589631D01*
X87925476Y-99649211D01*
X87772737Y-99745184D01*
X87645184Y-99872737D01*
X87549211Y-100025476D01*
X87489631Y-100195745D01*
X87489630Y-100195750D01*
X87469435Y-100374996D01*
X77722767Y-100374996D01*
X79430520Y-98667245D01*
X79509577Y-98530313D01*
X79550501Y-98377586D01*
X79550501Y-98219471D01*
X79550501Y-98211876D01*
X79550500Y-98211858D01*
X79550500Y-97924996D01*
X87494435Y-97924996D01*
X87494435Y-97925003D01*
X87514630Y-98104249D01*
X87514631Y-98104254D01*
X87574211Y-98274523D01*
X87638969Y-98377584D01*
X87670184Y-98427262D01*
X87797738Y-98554816D01*
X87950478Y-98650789D01*
X88120745Y-98710368D01*
X88120750Y-98710369D01*
X88299996Y-98730565D01*
X88300000Y-98730565D01*
X88300004Y-98730565D01*
X88479249Y-98710369D01*
X88479252Y-98710368D01*
X88479255Y-98710368D01*
X88649522Y-98650789D01*
X88802262Y-98554816D01*
X88929816Y-98427262D01*
X89025789Y-98274522D01*
X89085368Y-98104255D01*
X89085847Y-98100003D01*
X89085848Y-98099996D01*
X94169435Y-98099996D01*
X94169435Y-98100003D01*
X94189630Y-98279249D01*
X94189631Y-98279254D01*
X94249211Y-98449523D01*
X94320197Y-98562496D01*
X94345184Y-98602262D01*
X94472738Y-98729816D01*
X94625478Y-98825789D01*
X94795745Y-98885368D01*
X94795750Y-98885369D01*
X94974996Y-98905565D01*
X94975000Y-98905565D01*
X94975004Y-98905565D01*
X95154249Y-98885369D01*
X95154252Y-98885368D01*
X95154255Y-98885368D01*
X95324522Y-98825789D01*
X95477262Y-98729816D01*
X95604816Y-98602262D01*
X95700789Y-98449522D01*
X95760368Y-98279255D01*
X95760901Y-98274523D01*
X95780565Y-98100003D01*
X95780565Y-98099996D01*
X95760369Y-97920750D01*
X95760368Y-97920745D01*
X95700788Y-97750476D01*
X95604815Y-97597737D01*
X95477262Y-97470184D01*
X95324523Y-97374211D01*
X95154254Y-97314631D01*
X95154249Y-97314630D01*
X94975004Y-97294435D01*
X94974996Y-97294435D01*
X94795750Y-97314630D01*
X94795745Y-97314631D01*
X94625476Y-97374211D01*
X94472737Y-97470184D01*
X94345184Y-97597737D01*
X94249211Y-97750476D01*
X94189631Y-97920745D01*
X94189630Y-97920750D01*
X94169435Y-98099996D01*
X89085848Y-98099996D01*
X89105565Y-97925003D01*
X89105565Y-97924996D01*
X89085369Y-97745750D01*
X89085368Y-97745745D01*
X89025788Y-97575476D01*
X88961777Y-97473604D01*
X88929816Y-97422738D01*
X88802262Y-97295184D01*
X88691821Y-97225789D01*
X88649523Y-97199211D01*
X88479254Y-97139631D01*
X88479249Y-97139630D01*
X88300004Y-97119435D01*
X88299996Y-97119435D01*
X88120750Y-97139630D01*
X88120745Y-97139631D01*
X87950476Y-97199211D01*
X87797737Y-97295184D01*
X87670184Y-97422737D01*
X87574211Y-97575476D01*
X87514631Y-97745745D01*
X87514630Y-97745750D01*
X87494435Y-97924996D01*
X79550500Y-97924996D01*
X79550500Y-96816321D01*
X79570185Y-96749282D01*
X79622989Y-96703527D01*
X79660612Y-96693101D01*
X79729255Y-96685368D01*
X79729259Y-96685366D01*
X79729262Y-96685366D01*
X79906095Y-96623489D01*
X79906846Y-96625637D01*
X79965128Y-96616035D01*
X79993588Y-96624392D01*
X79993905Y-96623489D01*
X80170737Y-96685366D01*
X80170743Y-96685367D01*
X80170745Y-96685368D01*
X80170746Y-96685368D01*
X80170750Y-96685369D01*
X80349996Y-96705565D01*
X80350000Y-96705565D01*
X80350004Y-96705565D01*
X80529249Y-96685369D01*
X80529252Y-96685368D01*
X80529255Y-96685368D01*
X80699522Y-96625789D01*
X80852262Y-96529816D01*
X80979816Y-96402262D01*
X81075789Y-96249522D01*
X81135368Y-96079255D01*
X81144073Y-96001986D01*
X81171138Y-95937577D01*
X81177385Y-95930477D01*
X81203604Y-95902879D01*
X81206095Y-95899996D01*
X81944435Y-95899996D01*
X81944435Y-95900003D01*
X81964630Y-96079249D01*
X81964631Y-96079254D01*
X82024211Y-96249523D01*
X82120184Y-96402262D01*
X82247738Y-96529816D01*
X82278928Y-96549414D01*
X82398254Y-96624392D01*
X82400478Y-96625789D01*
X82553258Y-96679249D01*
X82570745Y-96685368D01*
X82570750Y-96685369D01*
X82749996Y-96705565D01*
X82750000Y-96705565D01*
X82750004Y-96705565D01*
X82929249Y-96685369D01*
X82929251Y-96685368D01*
X82929255Y-96685368D01*
X82929258Y-96685366D01*
X82929262Y-96685366D01*
X83106095Y-96623489D01*
X83106846Y-96625637D01*
X83165128Y-96616035D01*
X83193592Y-96624391D01*
X83193908Y-96623489D01*
X83200480Y-96625788D01*
X83200481Y-96625789D01*
X83268297Y-96649519D01*
X83370748Y-96685368D01*
X83370753Y-96685369D01*
X83549999Y-96705565D01*
X83550003Y-96705565D01*
X83550007Y-96705565D01*
X83729252Y-96685369D01*
X83729255Y-96685368D01*
X83729258Y-96685368D01*
X83899525Y-96625789D01*
X83901749Y-96624392D01*
X83982306Y-96573774D01*
X84021075Y-96549413D01*
X84088311Y-96530413D01*
X84155146Y-96550780D01*
X84200361Y-96604048D01*
X84210267Y-96640522D01*
X84214631Y-96679251D01*
X84214631Y-96679254D01*
X84274211Y-96849523D01*
X84321165Y-96924249D01*
X84370184Y-97002262D01*
X84497738Y-97129816D01*
X84650478Y-97225789D01*
X84728283Y-97253014D01*
X84820745Y-97285368D01*
X84820750Y-97285369D01*
X84999996Y-97305565D01*
X85000000Y-97305565D01*
X85000004Y-97305565D01*
X85179249Y-97285369D01*
X85179252Y-97285368D01*
X85179255Y-97285368D01*
X85349522Y-97225789D01*
X85502262Y-97129816D01*
X85629816Y-97002262D01*
X85725789Y-96849522D01*
X85782227Y-96688231D01*
X90106200Y-96688231D01*
X90106200Y-96688238D01*
X90126395Y-96867484D01*
X90126396Y-96867489D01*
X90185976Y-97037758D01*
X90249987Y-97139630D01*
X90281949Y-97190497D01*
X90409503Y-97318051D01*
X90562243Y-97414024D01*
X90722739Y-97470184D01*
X90732510Y-97473603D01*
X90732515Y-97473604D01*
X90911761Y-97493800D01*
X90911765Y-97493800D01*
X90911769Y-97493800D01*
X91091014Y-97473604D01*
X91091017Y-97473603D01*
X91091020Y-97473603D01*
X91261287Y-97414024D01*
X91414027Y-97318051D01*
X91541581Y-97190497D01*
X91637554Y-97037757D01*
X91697133Y-96867490D01*
X91697134Y-96867484D01*
X91717330Y-96688238D01*
X91717330Y-96688232D01*
X91704433Y-96573774D01*
X91700244Y-96536592D01*
X91703340Y-96518912D01*
X91698982Y-96513560D01*
X91696258Y-96506479D01*
X91677069Y-96451641D01*
X91637554Y-96338713D01*
X91613226Y-96299996D01*
X91919435Y-96299996D01*
X91919435Y-96300003D01*
X91936520Y-96451641D01*
X91933423Y-96469321D01*
X91937781Y-96474673D01*
X91940505Y-96481755D01*
X91999209Y-96649519D01*
X92034389Y-96705508D01*
X92095184Y-96802262D01*
X92222738Y-96929816D01*
X92375478Y-97025789D01*
X92545745Y-97085368D01*
X92545750Y-97085369D01*
X92724996Y-97105565D01*
X92725000Y-97105565D01*
X92725004Y-97105565D01*
X92904249Y-97085369D01*
X92904252Y-97085368D01*
X92904255Y-97085368D01*
X93074522Y-97025789D01*
X93227262Y-96929816D01*
X93354816Y-96802262D01*
X93450789Y-96649522D01*
X93510368Y-96479255D01*
X93510593Y-96477262D01*
X93530565Y-96300003D01*
X93530565Y-96299996D01*
X93510369Y-96120750D01*
X93510368Y-96120745D01*
X93484716Y-96047437D01*
X93450789Y-95950478D01*
X93354816Y-95797738D01*
X93227262Y-95670184D01*
X93156110Y-95625476D01*
X93074523Y-95574211D01*
X92904254Y-95514631D01*
X92904249Y-95514630D01*
X92725004Y-95494435D01*
X92724996Y-95494435D01*
X92545750Y-95514630D01*
X92545745Y-95514631D01*
X92375476Y-95574211D01*
X92222737Y-95670184D01*
X92095184Y-95797737D01*
X91999211Y-95950476D01*
X91939631Y-96120745D01*
X91939630Y-96120750D01*
X91919435Y-96299996D01*
X91613226Y-96299996D01*
X91541581Y-96185973D01*
X91414027Y-96058419D01*
X91396549Y-96047437D01*
X91261288Y-95962446D01*
X91091019Y-95902866D01*
X91091014Y-95902865D01*
X90911769Y-95882670D01*
X90911761Y-95882670D01*
X90732515Y-95902865D01*
X90732510Y-95902866D01*
X90562241Y-95962446D01*
X90409502Y-96058419D01*
X90281949Y-96185972D01*
X90185976Y-96338711D01*
X90126396Y-96508980D01*
X90126395Y-96508985D01*
X90106200Y-96688231D01*
X85782227Y-96688231D01*
X85785368Y-96679255D01*
X85785368Y-96679252D01*
X85785369Y-96679249D01*
X85805565Y-96500003D01*
X85805565Y-96499996D01*
X85785369Y-96320750D01*
X85785368Y-96320745D01*
X85736317Y-96180565D01*
X85725789Y-96150478D01*
X85707106Y-96120745D01*
X85634263Y-96004816D01*
X85629816Y-95997738D01*
X85502262Y-95870184D01*
X85468895Y-95849218D01*
X85349523Y-95774211D01*
X85179254Y-95714631D01*
X85179249Y-95714630D01*
X85000004Y-95694435D01*
X84999996Y-95694435D01*
X84820750Y-95714630D01*
X84820745Y-95714631D01*
X84650476Y-95774211D01*
X84528927Y-95850586D01*
X84461690Y-95869586D01*
X84394855Y-95849218D01*
X84349641Y-95795950D01*
X84339735Y-95759474D01*
X84335372Y-95720750D01*
X84335371Y-95720745D01*
X84317679Y-95670184D01*
X84275792Y-95550478D01*
X84253268Y-95514632D01*
X84216064Y-95455422D01*
X84179819Y-95397738D01*
X84052265Y-95270184D01*
X83963855Y-95214632D01*
X83899526Y-95174211D01*
X83729257Y-95114631D01*
X83729252Y-95114630D01*
X83550007Y-95094435D01*
X83549999Y-95094435D01*
X83370753Y-95114630D01*
X83370740Y-95114633D01*
X83193909Y-95176510D01*
X83193160Y-95174369D01*
X83134824Y-95183958D01*
X83106408Y-95175611D01*
X83106094Y-95176510D01*
X82929262Y-95114633D01*
X82929249Y-95114630D01*
X82750004Y-95094435D01*
X82749996Y-95094435D01*
X82570750Y-95114630D01*
X82570745Y-95114631D01*
X82400476Y-95174211D01*
X82247737Y-95270184D01*
X82120184Y-95397737D01*
X82024211Y-95550476D01*
X81964631Y-95720745D01*
X81964630Y-95720750D01*
X81944435Y-95899996D01*
X81206095Y-95899996D01*
X81234734Y-95866856D01*
X81234735Y-95866853D01*
X81236879Y-95864373D01*
X81247879Y-95851354D01*
X83549240Y-93549995D01*
X90544435Y-93549995D01*
X90544435Y-93550002D01*
X90564630Y-93729248D01*
X90564631Y-93729253D01*
X90624211Y-93899522D01*
X90658955Y-93954816D01*
X90720184Y-94052261D01*
X90847738Y-94179815D01*
X91000478Y-94275788D01*
X91170745Y-94335367D01*
X91170750Y-94335368D01*
X91349996Y-94355564D01*
X91350000Y-94355564D01*
X91350004Y-94355564D01*
X91529249Y-94335368D01*
X91529252Y-94335367D01*
X91529255Y-94335367D01*
X91699522Y-94275788D01*
X91852262Y-94179815D01*
X91979816Y-94052261D01*
X92075789Y-93899521D01*
X92135368Y-93729254D01*
X92141535Y-93674522D01*
X92155565Y-93550002D01*
X92155565Y-93549995D01*
X92135369Y-93370749D01*
X92135368Y-93370744D01*
X92133019Y-93364030D01*
X92119360Y-93324996D01*
X101969435Y-93324996D01*
X101969435Y-93325003D01*
X101989630Y-93504249D01*
X101989631Y-93504254D01*
X102049211Y-93674523D01*
X102105668Y-93764373D01*
X102145184Y-93827262D01*
X102272738Y-93954816D01*
X102425478Y-94050789D01*
X102595745Y-94110368D01*
X102595750Y-94110369D01*
X102774996Y-94130565D01*
X102775000Y-94130565D01*
X102775004Y-94130565D01*
X102954249Y-94110369D01*
X102954252Y-94110368D01*
X102954255Y-94110368D01*
X103124522Y-94050789D01*
X103277262Y-93954816D01*
X103404816Y-93827262D01*
X103500789Y-93674522D01*
X103560368Y-93504255D01*
X103560369Y-93504249D01*
X103580565Y-93325003D01*
X103580565Y-93324996D01*
X103560369Y-93145750D01*
X103560368Y-93145745D01*
X103500789Y-92975478D01*
X103404816Y-92822738D01*
X103277262Y-92695184D01*
X103212880Y-92654730D01*
X103124523Y-92599211D01*
X102954254Y-92539631D01*
X102954249Y-92539630D01*
X102775004Y-92519435D01*
X102774996Y-92519435D01*
X102595750Y-92539630D01*
X102595745Y-92539631D01*
X102425476Y-92599211D01*
X102272737Y-92695184D01*
X102145184Y-92822737D01*
X102049211Y-92975476D01*
X101989631Y-93145745D01*
X101989630Y-93145750D01*
X101969435Y-93324996D01*
X92119360Y-93324996D01*
X92075789Y-93200477D01*
X91979816Y-93047737D01*
X91852262Y-92920183D01*
X91806747Y-92891584D01*
X91699523Y-92824210D01*
X91529254Y-92764630D01*
X91529249Y-92764629D01*
X91350004Y-92744434D01*
X91349996Y-92744434D01*
X91170750Y-92764629D01*
X91170745Y-92764630D01*
X91000476Y-92824210D01*
X90847737Y-92920183D01*
X90720184Y-93047736D01*
X90624211Y-93200475D01*
X90564631Y-93370744D01*
X90564630Y-93370749D01*
X90544435Y-93549995D01*
X83549240Y-93549995D01*
X85762417Y-91336819D01*
X85823740Y-91303334D01*
X85850098Y-91300500D01*
X86857832Y-91300500D01*
X86878618Y-91302254D01*
X86898444Y-91305626D01*
X86928093Y-91306386D01*
X86991433Y-91326760D01*
X86991842Y-91326111D01*
X86994388Y-91327710D01*
X86994606Y-91327781D01*
X86995221Y-91328234D01*
X86997736Y-91329814D01*
X86997738Y-91329816D01*
X87081205Y-91382262D01*
X87147966Y-91424211D01*
X87150478Y-91425789D01*
X87292544Y-91475500D01*
X87320745Y-91485368D01*
X87320750Y-91485369D01*
X87499996Y-91505565D01*
X87500000Y-91505565D01*
X87500004Y-91505565D01*
X87679249Y-91485369D01*
X87679252Y-91485368D01*
X87679255Y-91485368D01*
X87849522Y-91425789D01*
X88002262Y-91329816D01*
X88129816Y-91202262D01*
X88225789Y-91049522D01*
X88285368Y-90879255D01*
X88293102Y-90810617D01*
X88320168Y-90746203D01*
X88377763Y-90706648D01*
X88416322Y-90700500D01*
X90484432Y-90700500D01*
X90551471Y-90720185D01*
X90597226Y-90772989D01*
X90607170Y-90842147D01*
X90601474Y-90865454D01*
X90564632Y-90970741D01*
X90564630Y-90970749D01*
X90544435Y-91149995D01*
X90544435Y-91150002D01*
X90564630Y-91329248D01*
X90564631Y-91329253D01*
X90624211Y-91499522D01*
X90717341Y-91647737D01*
X90720184Y-91652261D01*
X90847738Y-91779815D01*
X90880620Y-91800476D01*
X90971533Y-91857601D01*
X91000478Y-91875788D01*
X91081492Y-91904136D01*
X91170745Y-91935367D01*
X91170750Y-91935368D01*
X91349996Y-91955564D01*
X91350000Y-91955564D01*
X91350004Y-91955564D01*
X91529249Y-91935368D01*
X91529252Y-91935367D01*
X91529255Y-91935367D01*
X91699522Y-91875788D01*
X91852262Y-91779815D01*
X91979816Y-91652261D01*
X92075789Y-91499521D01*
X92135368Y-91329254D01*
X92135368Y-91329251D01*
X92135369Y-91329248D01*
X92155565Y-91150002D01*
X92155565Y-91149995D01*
X92135369Y-90970749D01*
X92135367Y-90970741D01*
X92098526Y-90865454D01*
X92094965Y-90795676D01*
X92129694Y-90735048D01*
X92191687Y-90702821D01*
X92215568Y-90700500D01*
X95834433Y-90700500D01*
X95901472Y-90720185D01*
X95947227Y-90772989D01*
X95957171Y-90842147D01*
X95951475Y-90865455D01*
X95914631Y-90970746D01*
X95914630Y-90970751D01*
X95894435Y-91149997D01*
X95894435Y-91150004D01*
X95914630Y-91329250D01*
X95914631Y-91329255D01*
X95974211Y-91499524D01*
X96070184Y-91652263D01*
X96202662Y-91784741D01*
X96200932Y-91786470D01*
X96234528Y-91834325D01*
X96237384Y-91904136D01*
X96234120Y-91915047D01*
X96214631Y-91970745D01*
X96214631Y-91970746D01*
X96194435Y-92149996D01*
X96194435Y-92150003D01*
X96214630Y-92329249D01*
X96214631Y-92329254D01*
X96274211Y-92499523D01*
X96331615Y-92590880D01*
X96370184Y-92652262D01*
X96497738Y-92779816D01*
X96522196Y-92795184D01*
X96630256Y-92863083D01*
X96650478Y-92875789D01*
X96763294Y-92915265D01*
X96820745Y-92935368D01*
X96820750Y-92935369D01*
X96999996Y-92955565D01*
X97000000Y-92955565D01*
X97000004Y-92955565D01*
X97179249Y-92935369D01*
X97179252Y-92935368D01*
X97179255Y-92935368D01*
X97349522Y-92875789D01*
X97502262Y-92779816D01*
X97629816Y-92652262D01*
X97725789Y-92499522D01*
X97785368Y-92329255D01*
X97791988Y-92270500D01*
X97805565Y-92150003D01*
X97805565Y-92149996D01*
X97785369Y-91970750D01*
X97785368Y-91970745D01*
X97765878Y-91915047D01*
X97725789Y-91800478D01*
X97629816Y-91647738D01*
X97502262Y-91520184D01*
X97497338Y-91515260D01*
X97499064Y-91513533D01*
X97465466Y-91465660D01*
X97462618Y-91395849D01*
X97465874Y-91384964D01*
X97485368Y-91329256D01*
X97485483Y-91328234D01*
X97505565Y-91150004D01*
X97505565Y-91149997D01*
X97485369Y-90970751D01*
X97485368Y-90970746D01*
X97448525Y-90865455D01*
X97444964Y-90795676D01*
X97479693Y-90735048D01*
X97541686Y-90702821D01*
X97565567Y-90700500D01*
X99859433Y-90700500D01*
X99926472Y-90720185D01*
X99972227Y-90772989D01*
X99982171Y-90842147D01*
X99976474Y-90865455D01*
X99939633Y-90970737D01*
X99939630Y-90970750D01*
X99919435Y-91149996D01*
X99919435Y-91150004D01*
X99926958Y-91216778D01*
X99914903Y-91285600D01*
X99867554Y-91336979D01*
X99817622Y-91353881D01*
X99722220Y-91364630D01*
X99722216Y-91364631D01*
X99551947Y-91424211D01*
X99399208Y-91520184D01*
X99271655Y-91647737D01*
X99175682Y-91800476D01*
X99116102Y-91970745D01*
X99116101Y-91970750D01*
X99095906Y-92149996D01*
X99095906Y-92150003D01*
X99116101Y-92329249D01*
X99116102Y-92329254D01*
X99175682Y-92499523D01*
X99233086Y-92590880D01*
X99271655Y-92652262D01*
X99399209Y-92779816D01*
X99423667Y-92795184D01*
X99531727Y-92863083D01*
X99551949Y-92875789D01*
X99664765Y-92915265D01*
X99722216Y-92935368D01*
X99722221Y-92935369D01*
X99901467Y-92955565D01*
X99901471Y-92955565D01*
X99901475Y-92955565D01*
X100080720Y-92935369D01*
X100080723Y-92935368D01*
X100080726Y-92935368D01*
X100250993Y-92875789D01*
X100403733Y-92779816D01*
X100531287Y-92652262D01*
X100627260Y-92499522D01*
X100686839Y-92329255D01*
X100693459Y-92270500D01*
X100707036Y-92150003D01*
X100707036Y-92149997D01*
X100699512Y-92083222D01*
X100711566Y-92014400D01*
X100758915Y-91963021D01*
X100808849Y-91946118D01*
X100904249Y-91935369D01*
X100904252Y-91935368D01*
X100904255Y-91935368D01*
X101074522Y-91875789D01*
X101227262Y-91779816D01*
X101354816Y-91652262D01*
X101450789Y-91499522D01*
X101510368Y-91329255D01*
X101510649Y-91326760D01*
X101530565Y-91150003D01*
X101530565Y-91149996D01*
X101510369Y-90970750D01*
X101510366Y-90970737D01*
X101473526Y-90865455D01*
X101469964Y-90795676D01*
X101504692Y-90735049D01*
X101566686Y-90702821D01*
X101590567Y-90700500D01*
X102649903Y-90700500D01*
X102716942Y-90720185D01*
X102737584Y-90736819D01*
X105771300Y-93770535D01*
X105784755Y-93786470D01*
X105796392Y-93802876D01*
X105805879Y-93812863D01*
X105822607Y-93830471D01*
X105854508Y-93892633D01*
X105855926Y-93901992D01*
X105864630Y-93979249D01*
X105924210Y-94149521D01*
X105971972Y-94225533D01*
X106020184Y-94302262D01*
X106147738Y-94429816D01*
X106300478Y-94525789D01*
X106470745Y-94585368D01*
X106470750Y-94585369D01*
X106649996Y-94605565D01*
X106650000Y-94605565D01*
X106650004Y-94605565D01*
X106829249Y-94585369D01*
X106829252Y-94585368D01*
X106829255Y-94585368D01*
X106999522Y-94525789D01*
X107152262Y-94429816D01*
X107279816Y-94302262D01*
X107375789Y-94149522D01*
X107435368Y-93979255D01*
X107444073Y-93901986D01*
X107471138Y-93837577D01*
X107477391Y-93830471D01*
X107503604Y-93802879D01*
X107534734Y-93766856D01*
X107534735Y-93766853D01*
X107536879Y-93764373D01*
X107547879Y-93751354D01*
X109782417Y-91516819D01*
X109843740Y-91483334D01*
X109870098Y-91480500D01*
X110597832Y-91480500D01*
X110618618Y-91482254D01*
X110638444Y-91485626D01*
X110668093Y-91486386D01*
X110731433Y-91506760D01*
X110731842Y-91506111D01*
X110734388Y-91507710D01*
X110734606Y-91507781D01*
X110735221Y-91508234D01*
X110737736Y-91509814D01*
X110737738Y-91509816D01*
X110890478Y-91605789D01*
X111023290Y-91652262D01*
X111060745Y-91665368D01*
X111060750Y-91665369D01*
X111239996Y-91685565D01*
X111240000Y-91685565D01*
X111240004Y-91685565D01*
X111419249Y-91665369D01*
X111419252Y-91665368D01*
X111419255Y-91665368D01*
X111589522Y-91605789D01*
X111742262Y-91509816D01*
X111869816Y-91382262D01*
X111965789Y-91229522D01*
X112025368Y-91059255D01*
X112035340Y-90970749D01*
X112045565Y-90880003D01*
X112045565Y-90879996D01*
X112025369Y-90700750D01*
X112025368Y-90700745D01*
X111965788Y-90530476D01*
X111880336Y-90394481D01*
X111869816Y-90377738D01*
X111742262Y-90250184D01*
X111723159Y-90238181D01*
X111589523Y-90154211D01*
X111419254Y-90094631D01*
X111419249Y-90094630D01*
X111240004Y-90074435D01*
X111239996Y-90074435D01*
X111060750Y-90094630D01*
X111060745Y-90094631D01*
X110890476Y-90154211D01*
X110731842Y-90253889D01*
X110730328Y-90251480D01*
X110677434Y-90273019D01*
X110668101Y-90273611D01*
X110638463Y-90274371D01*
X110638412Y-90274374D01*
X110587052Y-90278121D01*
X110570667Y-90279500D01*
X109656670Y-90279500D01*
X109656654Y-90279499D01*
X109649058Y-90279499D01*
X109490943Y-90279499D01*
X109414579Y-90299961D01*
X109338214Y-90320423D01*
X109338209Y-90320426D01*
X109201290Y-90399475D01*
X109201282Y-90399481D01*
X106737680Y-92863083D01*
X106676357Y-92896568D01*
X106606665Y-92891584D01*
X106562318Y-92863083D01*
X103437590Y-89738355D01*
X103437588Y-89738352D01*
X103403338Y-89704102D01*
X103369853Y-89642779D01*
X103374837Y-89573087D01*
X103400681Y-89532877D01*
X103400472Y-89532710D01*
X103402105Y-89530661D01*
X103403345Y-89528733D01*
X103403368Y-89528709D01*
X103404816Y-89527262D01*
X103500789Y-89374522D01*
X103560368Y-89204255D01*
X103568965Y-89127952D01*
X103596031Y-89063539D01*
X103653625Y-89023983D01*
X103723462Y-89021844D01*
X103783369Y-89057802D01*
X103797178Y-89075862D01*
X103845182Y-89152260D01*
X103845184Y-89152262D01*
X103972738Y-89279816D01*
X104037876Y-89320745D01*
X104123461Y-89374522D01*
X104125478Y-89375789D01*
X104210573Y-89405565D01*
X104295745Y-89435368D01*
X104295750Y-89435369D01*
X104474996Y-89455565D01*
X104475000Y-89455565D01*
X104475004Y-89455565D01*
X104654249Y-89435369D01*
X104654252Y-89435368D01*
X104654255Y-89435368D01*
X104824522Y-89375789D01*
X104977262Y-89279816D01*
X105104816Y-89152262D01*
X105200789Y-88999522D01*
X105260368Y-88829255D01*
X105261947Y-88815245D01*
X105280565Y-88650003D01*
X105280565Y-88649996D01*
X105260369Y-88470750D01*
X105260368Y-88470745D01*
X105200789Y-88300478D01*
X105200188Y-88299522D01*
X105126209Y-88181785D01*
X105104816Y-88147738D01*
X104977262Y-88020184D01*
X104888852Y-87964632D01*
X104824523Y-87924211D01*
X104654254Y-87864631D01*
X104654249Y-87864630D01*
X104475004Y-87844435D01*
X104474996Y-87844435D01*
X104295750Y-87864630D01*
X104295745Y-87864631D01*
X104125476Y-87924211D01*
X103972737Y-88020184D01*
X103845184Y-88147737D01*
X103749211Y-88300476D01*
X103689631Y-88470745D01*
X103689630Y-88470749D01*
X103681034Y-88547048D01*
X103653967Y-88611462D01*
X103596372Y-88651017D01*
X103526535Y-88653154D01*
X103466629Y-88617196D01*
X103452820Y-88599136D01*
X103404816Y-88522738D01*
X103277262Y-88395184D01*
X103124523Y-88299211D01*
X102954254Y-88239631D01*
X102954249Y-88239630D01*
X102775004Y-88219435D01*
X102774996Y-88219435D01*
X102595750Y-88239630D01*
X102595745Y-88239631D01*
X102425476Y-88299211D01*
X102272737Y-88395184D01*
X102145184Y-88522737D01*
X102049211Y-88675476D01*
X101989631Y-88845745D01*
X101989630Y-88845750D01*
X101969435Y-89024996D01*
X101969435Y-89025003D01*
X101989630Y-89204249D01*
X101989632Y-89204257D01*
X102035222Y-89334546D01*
X102038783Y-89404325D01*
X102004054Y-89464952D01*
X101942061Y-89497179D01*
X101918180Y-89499500D01*
X92056940Y-89499500D01*
X91989901Y-89479815D01*
X91944146Y-89427011D01*
X91934202Y-89357853D01*
X91963227Y-89294297D01*
X91969259Y-89287819D01*
X91977263Y-89279815D01*
X92004816Y-89252262D01*
X92100789Y-89099522D01*
X92160368Y-88929255D01*
X92160791Y-88925500D01*
X92180565Y-88750003D01*
X92180565Y-88749996D01*
X92160369Y-88570750D01*
X92160368Y-88570745D01*
X92114872Y-88440726D01*
X92100789Y-88400478D01*
X92004816Y-88247738D01*
X91877262Y-88120184D01*
X91724523Y-88024211D01*
X91554254Y-87964631D01*
X91554249Y-87964630D01*
X91424362Y-87949996D01*
X96594435Y-87949996D01*
X96594435Y-87950003D01*
X96614630Y-88129249D01*
X96614631Y-88129254D01*
X96674211Y-88299523D01*
X96756523Y-88430521D01*
X96770184Y-88452262D01*
X96897738Y-88579816D01*
X96957228Y-88617196D01*
X97049979Y-88675476D01*
X97050478Y-88675789D01*
X97220745Y-88735368D01*
X97220750Y-88735369D01*
X97399996Y-88755565D01*
X97400000Y-88755565D01*
X97400004Y-88755565D01*
X97579249Y-88735369D01*
X97579252Y-88735368D01*
X97579255Y-88735368D01*
X97749522Y-88675789D01*
X97902262Y-88579816D01*
X98029816Y-88452262D01*
X98125789Y-88299522D01*
X98185368Y-88129255D01*
X98188919Y-88097738D01*
X98205565Y-87950003D01*
X98205565Y-87949996D01*
X98185369Y-87770750D01*
X98185368Y-87770745D01*
X98146666Y-87660141D01*
X98125789Y-87600478D01*
X98029816Y-87447738D01*
X97902262Y-87320184D01*
X97890208Y-87312610D01*
X97749523Y-87224211D01*
X97579254Y-87164631D01*
X97579249Y-87164630D01*
X97400004Y-87144435D01*
X97399996Y-87144435D01*
X97220750Y-87164630D01*
X97220745Y-87164631D01*
X97050476Y-87224211D01*
X96897737Y-87320184D01*
X96770184Y-87447737D01*
X96674211Y-87600476D01*
X96614631Y-87770745D01*
X96614630Y-87770750D01*
X96594435Y-87949996D01*
X91424362Y-87949996D01*
X91375004Y-87944435D01*
X91374996Y-87944435D01*
X91195750Y-87964630D01*
X91195745Y-87964631D01*
X91025476Y-88024211D01*
X90872737Y-88120184D01*
X90745184Y-88247737D01*
X90649211Y-88400476D01*
X90589631Y-88570745D01*
X90589630Y-88570750D01*
X90569435Y-88749996D01*
X90569435Y-88750003D01*
X90589630Y-88929249D01*
X90589631Y-88929254D01*
X90649211Y-89099523D01*
X90745184Y-89252262D01*
X90780741Y-89287819D01*
X90814226Y-89349142D01*
X90809242Y-89418834D01*
X90767370Y-89474767D01*
X90701906Y-89499184D01*
X90693060Y-89499500D01*
X89591322Y-89499500D01*
X89524283Y-89479815D01*
X89478528Y-89427011D01*
X89468102Y-89389383D01*
X89460369Y-89320750D01*
X89460368Y-89320748D01*
X89460368Y-89320745D01*
X89400789Y-89150478D01*
X89304816Y-88997738D01*
X89253338Y-88946260D01*
X89219853Y-88884937D01*
X89224837Y-88815245D01*
X89253338Y-88770898D01*
X89288868Y-88735368D01*
X89330520Y-88693716D01*
X89330520Y-88693714D01*
X89340724Y-88683511D01*
X89340728Y-88683506D01*
X89593713Y-88430521D01*
X89593716Y-88430520D01*
X89705520Y-88318716D01*
X89755639Y-88231904D01*
X89784577Y-88181785D01*
X89825500Y-88029057D01*
X89825500Y-87870943D01*
X89825500Y-86614060D01*
X89825501Y-86614047D01*
X89825501Y-86445945D01*
X89825501Y-86445943D01*
X89784577Y-86293215D01*
X89782719Y-86289996D01*
X111624435Y-86289996D01*
X111624435Y-86290003D01*
X111644630Y-86469249D01*
X111644631Y-86469254D01*
X111704211Y-86639523D01*
X111738263Y-86693716D01*
X111800184Y-86792262D01*
X111927738Y-86919816D01*
X112018080Y-86976582D01*
X112068982Y-87008566D01*
X112080478Y-87015789D01*
X112240854Y-87071907D01*
X112250745Y-87075368D01*
X112250750Y-87075369D01*
X112429996Y-87095565D01*
X112430000Y-87095565D01*
X112430004Y-87095565D01*
X112609249Y-87075369D01*
X112609252Y-87075368D01*
X112609255Y-87075368D01*
X112779522Y-87015789D01*
X112932262Y-86919816D01*
X113059816Y-86792262D01*
X113155789Y-86639522D01*
X113215368Y-86469255D01*
X113215369Y-86469249D01*
X113235565Y-86290003D01*
X113235565Y-86289996D01*
X113215369Y-86110750D01*
X113215368Y-86110745D01*
X113180245Y-86010369D01*
X113155789Y-85940478D01*
X113148371Y-85928673D01*
X113097684Y-85848005D01*
X113059816Y-85787738D01*
X112932262Y-85660184D01*
X112926899Y-85656814D01*
X112779523Y-85564211D01*
X112609254Y-85504631D01*
X112609249Y-85504630D01*
X112430004Y-85484435D01*
X112429996Y-85484435D01*
X112250750Y-85504630D01*
X112250745Y-85504631D01*
X112080476Y-85564211D01*
X111927737Y-85660184D01*
X111800184Y-85787737D01*
X111704211Y-85940476D01*
X111644631Y-86110745D01*
X111644630Y-86110750D01*
X111624435Y-86289996D01*
X89782719Y-86289996D01*
X89705520Y-86156284D01*
X89528698Y-85979462D01*
X89515239Y-85963522D01*
X89506207Y-85950789D01*
X89503607Y-85947123D01*
X89477391Y-85919527D01*
X89445490Y-85857368D01*
X89444076Y-85848043D01*
X89435368Y-85770745D01*
X89375789Y-85600478D01*
X89279816Y-85447738D01*
X89152262Y-85320184D01*
X89121395Y-85300789D01*
X88999523Y-85224211D01*
X88829254Y-85164631D01*
X88829249Y-85164630D01*
X88733919Y-85153890D01*
X88669505Y-85126824D01*
X88629950Y-85069229D01*
X88628034Y-85062785D01*
X88609577Y-84993902D01*
X88580312Y-84943213D01*
X88530524Y-84856976D01*
X88530522Y-84856973D01*
X88530520Y-84856970D01*
X88418716Y-84745166D01*
X88418715Y-84745165D01*
X88414385Y-84740835D01*
X88414374Y-84740825D01*
X88248545Y-84574996D01*
X103119435Y-84574996D01*
X103119435Y-84575003D01*
X103139630Y-84754249D01*
X103139631Y-84754254D01*
X103199211Y-84924523D01*
X103290642Y-85070034D01*
X103295184Y-85077262D01*
X103422738Y-85204816D01*
X103575478Y-85300789D01*
X103734437Y-85356411D01*
X103745745Y-85360368D01*
X103745750Y-85360369D01*
X103924996Y-85380565D01*
X103925000Y-85380565D01*
X103925004Y-85380565D01*
X104104249Y-85360369D01*
X104104252Y-85360368D01*
X104104255Y-85360368D01*
X104274522Y-85300789D01*
X104427262Y-85204816D01*
X104460796Y-85171281D01*
X104522116Y-85137797D01*
X104591808Y-85142781D01*
X104647742Y-85184651D01*
X104671696Y-85245079D01*
X104689630Y-85404250D01*
X104689631Y-85404254D01*
X104749211Y-85574523D01*
X104832388Y-85706897D01*
X104845184Y-85727262D01*
X104972738Y-85854816D01*
X104997196Y-85870184D01*
X105119643Y-85947123D01*
X105125478Y-85950789D01*
X105207421Y-85979462D01*
X105295745Y-86010368D01*
X105295750Y-86010369D01*
X105474996Y-86030565D01*
X105475000Y-86030565D01*
X105475004Y-86030565D01*
X105654249Y-86010369D01*
X105654252Y-86010368D01*
X105654255Y-86010368D01*
X105824522Y-85950789D01*
X105977262Y-85854816D01*
X106104816Y-85727262D01*
X106200789Y-85574522D01*
X106207958Y-85554035D01*
X106248679Y-85497258D01*
X106313631Y-85471510D01*
X106382193Y-85484965D01*
X106432597Y-85533352D01*
X106442042Y-85554035D01*
X106449211Y-85574522D01*
X106545184Y-85727262D01*
X106672738Y-85854816D01*
X106697196Y-85870184D01*
X106819643Y-85947123D01*
X106825478Y-85950789D01*
X106907421Y-85979462D01*
X106995745Y-86010368D01*
X106995750Y-86010369D01*
X107174996Y-86030565D01*
X107175000Y-86030565D01*
X107175004Y-86030565D01*
X107354249Y-86010369D01*
X107354252Y-86010368D01*
X107354255Y-86010368D01*
X107524522Y-85950789D01*
X107677262Y-85854816D01*
X107804816Y-85727262D01*
X107900789Y-85574522D01*
X107960368Y-85404255D01*
X107960369Y-85404249D01*
X107980565Y-85225003D01*
X107980565Y-85224996D01*
X107960369Y-85045750D01*
X107960368Y-85045745D01*
X107924491Y-84943215D01*
X107900789Y-84875478D01*
X107889163Y-84856976D01*
X107824619Y-84754254D01*
X107804816Y-84722738D01*
X107677262Y-84595184D01*
X107645144Y-84575003D01*
X107524523Y-84499211D01*
X107406596Y-84457947D01*
X107349820Y-84417225D01*
X107330509Y-84381859D01*
X107327317Y-84372738D01*
X107275789Y-84225478D01*
X107179816Y-84072738D01*
X107052262Y-83945184D01*
X107008541Y-83917712D01*
X106899523Y-83849211D01*
X106729254Y-83789631D01*
X106729249Y-83789630D01*
X106550004Y-83769435D01*
X106549996Y-83769435D01*
X106370750Y-83789630D01*
X106370745Y-83789631D01*
X106200476Y-83849211D01*
X106047737Y-83945184D01*
X105920184Y-84072737D01*
X105824210Y-84225478D01*
X105778332Y-84356593D01*
X105737610Y-84413369D01*
X105672658Y-84439117D01*
X105647407Y-84438859D01*
X105475004Y-84419435D01*
X105474996Y-84419435D01*
X105295750Y-84439630D01*
X105295745Y-84439631D01*
X105125476Y-84499211D01*
X104972737Y-84595184D01*
X104939203Y-84628718D01*
X104877880Y-84662203D01*
X104808188Y-84657217D01*
X104752255Y-84615345D01*
X104728303Y-84554919D01*
X104710369Y-84395750D01*
X104710368Y-84395745D01*
X104705509Y-84381859D01*
X104650789Y-84225478D01*
X104643973Y-84214631D01*
X104565431Y-84089632D01*
X104554816Y-84072738D01*
X104427262Y-83945184D01*
X104383541Y-83917712D01*
X104274523Y-83849211D01*
X104104254Y-83789631D01*
X104104249Y-83789630D01*
X103925004Y-83769435D01*
X103924996Y-83769435D01*
X103745750Y-83789630D01*
X103745745Y-83789631D01*
X103575476Y-83849211D01*
X103422737Y-83945184D01*
X103295184Y-84072737D01*
X103199211Y-84225476D01*
X103139631Y-84395745D01*
X103139630Y-84395750D01*
X103119435Y-84574996D01*
X88248545Y-84574996D01*
X88001904Y-84328355D01*
X88001902Y-84328352D01*
X87883031Y-84209481D01*
X87883030Y-84209480D01*
X87778640Y-84149211D01*
X87778639Y-84149210D01*
X87746097Y-84130422D01*
X87690195Y-84115443D01*
X87593371Y-84089499D01*
X87435257Y-84089499D01*
X87427661Y-84089499D01*
X87427645Y-84089500D01*
X85396670Y-84089500D01*
X85396654Y-84089499D01*
X85389058Y-84089499D01*
X85230943Y-84089499D01*
X85154579Y-84109961D01*
X85078214Y-84130423D01*
X85078209Y-84130426D01*
X84941290Y-84209475D01*
X84941282Y-84209481D01*
X84449217Y-84701546D01*
X84449214Y-84701548D01*
X84449215Y-84701549D01*
X84344480Y-84806284D01*
X84315217Y-84856970D01*
X84265423Y-84943215D01*
X84224499Y-85095943D01*
X84224499Y-85095945D01*
X84224499Y-85264046D01*
X84224500Y-85264059D01*
X84224500Y-85602691D01*
X84204815Y-85669730D01*
X84188181Y-85690372D01*
X83444854Y-86433698D01*
X83450000Y-86414496D01*
X83450000Y-86335504D01*
X83429556Y-86259204D01*
X83390060Y-86190795D01*
X83334205Y-86134940D01*
X83265796Y-86095444D01*
X83189496Y-86075000D01*
X83110504Y-86075000D01*
X83034204Y-86095444D01*
X82965795Y-86134940D01*
X82909940Y-86190795D01*
X82870444Y-86259204D01*
X82850000Y-86335504D01*
X82850000Y-86414496D01*
X82870444Y-86490796D01*
X82909940Y-86559205D01*
X82965795Y-86615060D01*
X83034204Y-86654556D01*
X83110504Y-86675000D01*
X83189496Y-86675000D01*
X83208698Y-86669854D01*
X83150000Y-86728553D01*
X82424526Y-87454025D01*
X82497513Y-87505132D01*
X82497521Y-87505136D01*
X82703668Y-87601264D01*
X82703682Y-87601269D01*
X82923389Y-87660139D01*
X82923400Y-87660141D01*
X83149998Y-87679966D01*
X83150002Y-87679966D01*
X83376599Y-87660141D01*
X83376604Y-87660140D01*
X83385871Y-87657657D01*
X83455721Y-87659316D01*
X83513586Y-87698475D01*
X83541094Y-87762701D01*
X83529512Y-87831604D01*
X83505653Y-87865111D01*
X81132584Y-90238181D01*
X81071261Y-90271666D01*
X81044903Y-90274500D01*
X78286670Y-90274500D01*
X78286654Y-90274499D01*
X78279058Y-90274499D01*
X78120943Y-90274499D01*
X78044579Y-90294961D01*
X77968214Y-90315423D01*
X77968209Y-90315426D01*
X77831290Y-90394475D01*
X77831282Y-90394481D01*
X76869479Y-91356284D01*
X76868635Y-91357385D01*
X76867686Y-91358077D01*
X76863733Y-91362031D01*
X76863116Y-91361414D01*
X76812203Y-91398582D01*
X76742457Y-91402730D01*
X76708267Y-91389277D01*
X76643536Y-91351905D01*
X76643537Y-91351905D01*
X76587235Y-91336819D01*
X76522601Y-91319500D01*
X74897399Y-91319500D01*
X74832765Y-91336819D01*
X74776463Y-91351905D01*
X74668037Y-91414504D01*
X74668034Y-91414506D01*
X74579506Y-91503034D01*
X74579504Y-91503037D01*
X74516905Y-91611463D01*
X74507185Y-91647738D01*
X74484500Y-91732399D01*
X73500500Y-91732399D01*
X73500500Y-88599996D01*
X77544435Y-88599996D01*
X77544435Y-88600003D01*
X77564630Y-88779249D01*
X77564631Y-88779254D01*
X77624211Y-88949523D01*
X77671637Y-89025000D01*
X77720184Y-89102262D01*
X77847738Y-89229816D01*
X77938080Y-89286582D01*
X77992450Y-89320745D01*
X78000478Y-89325789D01*
X78092112Y-89357853D01*
X78170745Y-89385368D01*
X78170750Y-89385369D01*
X78349996Y-89405565D01*
X78350000Y-89405565D01*
X78350004Y-89405565D01*
X78529249Y-89385369D01*
X78529252Y-89385368D01*
X78529255Y-89385368D01*
X78699522Y-89325789D01*
X78852262Y-89229816D01*
X78979816Y-89102262D01*
X79075789Y-88949522D01*
X79135368Y-88779255D01*
X79136310Y-88770898D01*
X79155565Y-88600003D01*
X79155565Y-88599996D01*
X79135369Y-88420750D01*
X79135368Y-88420745D01*
X79126424Y-88395184D01*
X79075789Y-88250478D01*
X79074067Y-88247738D01*
X78999619Y-88129254D01*
X78979816Y-88097738D01*
X78852262Y-87970184D01*
X78843426Y-87964632D01*
X78699523Y-87874211D01*
X78529254Y-87814631D01*
X78529249Y-87814630D01*
X78350004Y-87794435D01*
X78349996Y-87794435D01*
X78170750Y-87814630D01*
X78170745Y-87814631D01*
X78000476Y-87874211D01*
X77847737Y-87970184D01*
X77720184Y-88097737D01*
X77624211Y-88250476D01*
X77564631Y-88420745D01*
X77564630Y-88420750D01*
X77544435Y-88599996D01*
X73500500Y-88599996D01*
X73500500Y-84999996D01*
X77544435Y-84999996D01*
X77544435Y-85000003D01*
X77564630Y-85179249D01*
X77564633Y-85179262D01*
X77626510Y-85356094D01*
X77624364Y-85356844D01*
X77633962Y-85415144D01*
X77625609Y-85443590D01*
X77626510Y-85443906D01*
X77564633Y-85620737D01*
X77564630Y-85620750D01*
X77544435Y-85799996D01*
X77544435Y-85800003D01*
X77564630Y-85979249D01*
X77564631Y-85979254D01*
X77624211Y-86149523D01*
X77658044Y-86203367D01*
X77720184Y-86302262D01*
X77847738Y-86429816D01*
X78000478Y-86525789D01*
X78105952Y-86562696D01*
X78170745Y-86585368D01*
X78170750Y-86585369D01*
X78349996Y-86605565D01*
X78350000Y-86605565D01*
X78350004Y-86605565D01*
X78529249Y-86585369D01*
X78529252Y-86585368D01*
X78529255Y-86585368D01*
X78699522Y-86525789D01*
X78852262Y-86429816D01*
X78907081Y-86374997D01*
X81845034Y-86374997D01*
X81845034Y-86375002D01*
X81864858Y-86601599D01*
X81864860Y-86601610D01*
X81923730Y-86821317D01*
X81923735Y-86821331D01*
X82019863Y-87027478D01*
X82070974Y-87100472D01*
X82796447Y-86375000D01*
X82796447Y-86374999D01*
X82070974Y-85649526D01*
X82070973Y-85649526D01*
X82019868Y-85722512D01*
X82019866Y-85722516D01*
X81923734Y-85928673D01*
X81923730Y-85928682D01*
X81864860Y-86148389D01*
X81864858Y-86148400D01*
X81845034Y-86374997D01*
X78907081Y-86374997D01*
X78979816Y-86302262D01*
X79075789Y-86149522D01*
X79135368Y-85979255D01*
X79137141Y-85963522D01*
X79155565Y-85800003D01*
X79155565Y-85799996D01*
X79135369Y-85620750D01*
X79135366Y-85620737D01*
X79073489Y-85443905D01*
X79075637Y-85443153D01*
X79066035Y-85384872D01*
X79074392Y-85356411D01*
X79073489Y-85356095D01*
X79135366Y-85179262D01*
X79135369Y-85179249D01*
X79155565Y-85000003D01*
X79155565Y-84999996D01*
X79141481Y-84874996D01*
X80169435Y-84874996D01*
X80169435Y-84875003D01*
X80189630Y-85054249D01*
X80189631Y-85054254D01*
X80249211Y-85224523D01*
X80334569Y-85360368D01*
X80345184Y-85377262D01*
X80472738Y-85504816D01*
X80518153Y-85533352D01*
X80567264Y-85564211D01*
X80625478Y-85600789D01*
X80785583Y-85656812D01*
X80795745Y-85660368D01*
X80795750Y-85660369D01*
X80974996Y-85680565D01*
X80975000Y-85680565D01*
X80975004Y-85680565D01*
X81154249Y-85660369D01*
X81154252Y-85660368D01*
X81154255Y-85660368D01*
X81324522Y-85600789D01*
X81477262Y-85504816D01*
X81604816Y-85377262D01*
X81655893Y-85295973D01*
X82424526Y-85295973D01*
X82424526Y-85295974D01*
X83150000Y-86021447D01*
X83150001Y-86021447D01*
X83875472Y-85295974D01*
X83802478Y-85244863D01*
X83596331Y-85148735D01*
X83596317Y-85148730D01*
X83376610Y-85089860D01*
X83376599Y-85089858D01*
X83150002Y-85070034D01*
X83149998Y-85070034D01*
X82923400Y-85089858D01*
X82923389Y-85089860D01*
X82703682Y-85148730D01*
X82703673Y-85148734D01*
X82497516Y-85244866D01*
X82497512Y-85244868D01*
X82424526Y-85295973D01*
X81655893Y-85295973D01*
X81700789Y-85224522D01*
X81760368Y-85054255D01*
X81760369Y-85054249D01*
X81780565Y-84875003D01*
X81780565Y-84874996D01*
X81760369Y-84695750D01*
X81760368Y-84695745D01*
X81725180Y-84595184D01*
X81700789Y-84525478D01*
X81669149Y-84475124D01*
X81604815Y-84372737D01*
X81477262Y-84245184D01*
X81324523Y-84149211D01*
X81154254Y-84089631D01*
X81154249Y-84089630D01*
X80975004Y-84069435D01*
X80974996Y-84069435D01*
X80795750Y-84089630D01*
X80795745Y-84089631D01*
X80625476Y-84149211D01*
X80472737Y-84245184D01*
X80345184Y-84372737D01*
X80249211Y-84525476D01*
X80189631Y-84695745D01*
X80189630Y-84695750D01*
X80169435Y-84874996D01*
X79141481Y-84874996D01*
X79135369Y-84820750D01*
X79135368Y-84820745D01*
X79101074Y-84722738D01*
X79075789Y-84650478D01*
X79053713Y-84615345D01*
X78997245Y-84525476D01*
X78979816Y-84497738D01*
X78852262Y-84370184D01*
X78785687Y-84328352D01*
X78699523Y-84274211D01*
X78529254Y-84214631D01*
X78529249Y-84214630D01*
X78350004Y-84194435D01*
X78349996Y-84194435D01*
X78170750Y-84214630D01*
X78170745Y-84214631D01*
X78000476Y-84274211D01*
X77847737Y-84370184D01*
X77720184Y-84497737D01*
X77624211Y-84650476D01*
X77564631Y-84820745D01*
X77564630Y-84820750D01*
X77544435Y-84999996D01*
X73500500Y-84999996D01*
X73500500Y-82542399D01*
X74484500Y-82542399D01*
X74484500Y-82667601D01*
X74516905Y-82788536D01*
X74579505Y-82896964D01*
X74668036Y-82985495D01*
X74776464Y-83048095D01*
X74897399Y-83080500D01*
X74897401Y-83080500D01*
X76522599Y-83080500D01*
X76522601Y-83080500D01*
X76643536Y-83048095D01*
X76751964Y-82985495D01*
X76840495Y-82896964D01*
X76903095Y-82788536D01*
X76935500Y-82667601D01*
X76935500Y-82605000D01*
X78059906Y-82605000D01*
X78078215Y-82755791D01*
X78132079Y-82897819D01*
X78218368Y-83022830D01*
X78332066Y-83123557D01*
X78466566Y-83194148D01*
X78540308Y-83212324D01*
X78614050Y-83230500D01*
X78614051Y-83230500D01*
X78765950Y-83230500D01*
X78815110Y-83218382D01*
X78913434Y-83194148D01*
X79047934Y-83123557D01*
X79161632Y-83022830D01*
X79247921Y-82897819D01*
X79301785Y-82755791D01*
X79320094Y-82605000D01*
X79301785Y-82454209D01*
X79247921Y-82312181D01*
X79161632Y-82187170D01*
X79147876Y-82174983D01*
X81849500Y-82174983D01*
X81849500Y-83375001D01*
X81849501Y-83375018D01*
X81860000Y-83477796D01*
X81860001Y-83477799D01*
X81915185Y-83644331D01*
X81915186Y-83644334D01*
X82007288Y-83793656D01*
X82131344Y-83917712D01*
X82280666Y-84009814D01*
X82447203Y-84064999D01*
X82549991Y-84075500D01*
X83750008Y-84075499D01*
X83852797Y-84064999D01*
X84019334Y-84009814D01*
X84168656Y-83917712D01*
X84292712Y-83793656D01*
X84384814Y-83644334D01*
X84439999Y-83477797D01*
X84450500Y-83375009D01*
X84450499Y-82174992D01*
X84439999Y-82072203D01*
X84384814Y-81905666D01*
X84292712Y-81756344D01*
X84168656Y-81632288D01*
X84019334Y-81540186D01*
X83852797Y-81485001D01*
X83852795Y-81485000D01*
X83750010Y-81474500D01*
X82549998Y-81474500D01*
X82549981Y-81474501D01*
X82447203Y-81485000D01*
X82447200Y-81485001D01*
X82280668Y-81540185D01*
X82280663Y-81540187D01*
X82131342Y-81632289D01*
X82007289Y-81756342D01*
X81915187Y-81905663D01*
X81915186Y-81905666D01*
X81860001Y-82072203D01*
X81860001Y-82072204D01*
X81860000Y-82072204D01*
X81849500Y-82174983D01*
X79147876Y-82174983D01*
X79047934Y-82086443D01*
X78913434Y-82015852D01*
X78913433Y-82015851D01*
X78913432Y-82015851D01*
X78765950Y-81979500D01*
X78765949Y-81979500D01*
X78614051Y-81979500D01*
X78614050Y-81979500D01*
X78466567Y-82015851D01*
X78332067Y-82086442D01*
X78332066Y-82086443D01*
X78232108Y-82174998D01*
X78218367Y-82187171D01*
X78132080Y-82312179D01*
X78132079Y-82312180D01*
X78090634Y-82421464D01*
X78078215Y-82454209D01*
X78059906Y-82605000D01*
X76935500Y-82605000D01*
X76935500Y-82542399D01*
X76903095Y-82421464D01*
X76840495Y-82313036D01*
X76751964Y-82224505D01*
X76643536Y-82161905D01*
X76643537Y-82161905D01*
X76603224Y-82151103D01*
X76522601Y-82129500D01*
X74897399Y-82129500D01*
X74816775Y-82151103D01*
X74776463Y-82161905D01*
X74668037Y-82224504D01*
X74668034Y-82224506D01*
X74579506Y-82313034D01*
X74579504Y-82313037D01*
X74516905Y-82421463D01*
X74516905Y-82421464D01*
X74484500Y-82542399D01*
X73500500Y-82542399D01*
X73500500Y-80999996D01*
X85144435Y-80999996D01*
X85144435Y-81000003D01*
X85164630Y-81179249D01*
X85164631Y-81179254D01*
X85224211Y-81349523D01*
X85309338Y-81485001D01*
X85320184Y-81502262D01*
X85447738Y-81629816D01*
X85600478Y-81725789D01*
X85770745Y-81785368D01*
X85770750Y-81785369D01*
X85949996Y-81805565D01*
X85950000Y-81805565D01*
X85950004Y-81805565D01*
X86129249Y-81785369D01*
X86129252Y-81785368D01*
X86129255Y-81785368D01*
X86299522Y-81725789D01*
X86452262Y-81629816D01*
X86579816Y-81502262D01*
X86675789Y-81349522D01*
X86735368Y-81179255D01*
X86755565Y-81000000D01*
X86735368Y-80820745D01*
X86675789Y-80650478D01*
X86579816Y-80497738D01*
X86452262Y-80370184D01*
X86299523Y-80274211D01*
X86129254Y-80214631D01*
X86129249Y-80214630D01*
X85950004Y-80194435D01*
X85949996Y-80194435D01*
X85770750Y-80214630D01*
X85770745Y-80214631D01*
X85600476Y-80274211D01*
X85447737Y-80370184D01*
X85320184Y-80497737D01*
X85224211Y-80650476D01*
X85164631Y-80820745D01*
X85164630Y-80820750D01*
X85144435Y-80999996D01*
X73500500Y-80999996D01*
X73500500Y-78949996D01*
X109444435Y-78949996D01*
X109444435Y-78950003D01*
X109464630Y-79129249D01*
X109464631Y-79129254D01*
X109524211Y-79299523D01*
X109620184Y-79452262D01*
X109747738Y-79579816D01*
X109900478Y-79675789D01*
X110070745Y-79735368D01*
X110070750Y-79735369D01*
X110249996Y-79755565D01*
X110250000Y-79755565D01*
X110250004Y-79755565D01*
X110429249Y-79735369D01*
X110429252Y-79735368D01*
X110429255Y-79735368D01*
X110599522Y-79675789D01*
X110752262Y-79579816D01*
X110879816Y-79452262D01*
X110975789Y-79299522D01*
X111035368Y-79129255D01*
X111055565Y-78950000D01*
X111035368Y-78770745D01*
X110975789Y-78600478D01*
X110879816Y-78447738D01*
X110752262Y-78320184D01*
X110599523Y-78224211D01*
X110429254Y-78164631D01*
X110429249Y-78164630D01*
X110250004Y-78144435D01*
X110249996Y-78144435D01*
X110070750Y-78164630D01*
X110070745Y-78164631D01*
X109900476Y-78224211D01*
X109747737Y-78320184D01*
X109620184Y-78447737D01*
X109524211Y-78600476D01*
X109464631Y-78770745D01*
X109464630Y-78770750D01*
X109444435Y-78949996D01*
X73500500Y-78949996D01*
X73500500Y-77874996D01*
X89969435Y-77874996D01*
X89969435Y-77875003D01*
X89989630Y-78054249D01*
X89989631Y-78054254D01*
X90049211Y-78224523D01*
X90109319Y-78320184D01*
X90145184Y-78377262D01*
X90272738Y-78504816D01*
X90363080Y-78561582D01*
X90424979Y-78600476D01*
X90425478Y-78600789D01*
X90595745Y-78660368D01*
X90595750Y-78660369D01*
X90774996Y-78680565D01*
X90775000Y-78680565D01*
X90775004Y-78680565D01*
X90954249Y-78660369D01*
X90954252Y-78660368D01*
X90954255Y-78660368D01*
X91124522Y-78600789D01*
X91277262Y-78504816D01*
X91404816Y-78377262D01*
X91500789Y-78224522D01*
X91560368Y-78054255D01*
X91580565Y-77875000D01*
X91564291Y-77730565D01*
X91560369Y-77695750D01*
X91560368Y-77695745D01*
X91500788Y-77525476D01*
X91404815Y-77372737D01*
X91277262Y-77245184D01*
X91124523Y-77149211D01*
X90954254Y-77089631D01*
X90954249Y-77089630D01*
X90775004Y-77069435D01*
X90774996Y-77069435D01*
X90595750Y-77089630D01*
X90595745Y-77089631D01*
X90425476Y-77149211D01*
X90272737Y-77245184D01*
X90145184Y-77372737D01*
X90049211Y-77525476D01*
X89989631Y-77695745D01*
X89989630Y-77695750D01*
X89969435Y-77874996D01*
X73500500Y-77874996D01*
X73500500Y-76924996D01*
X105269435Y-76924996D01*
X105269435Y-76925003D01*
X105289630Y-77104249D01*
X105289631Y-77104254D01*
X105349211Y-77274523D01*
X105410924Y-77372738D01*
X105445184Y-77427262D01*
X105572738Y-77554816D01*
X105725478Y-77650789D01*
X105853955Y-77695745D01*
X105895745Y-77710368D01*
X105895750Y-77710369D01*
X106074996Y-77730565D01*
X106075000Y-77730565D01*
X106075004Y-77730565D01*
X106254249Y-77710369D01*
X106254252Y-77710368D01*
X106254255Y-77710368D01*
X106424522Y-77650789D01*
X106577262Y-77554816D01*
X106704816Y-77427262D01*
X106800789Y-77274522D01*
X106860368Y-77104255D01*
X106862016Y-77089630D01*
X106880565Y-76925003D01*
X106880565Y-76924996D01*
X106860369Y-76745750D01*
X106860368Y-76745745D01*
X106800788Y-76575476D01*
X106704815Y-76422737D01*
X106577262Y-76295184D01*
X106424523Y-76199211D01*
X106254254Y-76139631D01*
X106254249Y-76139630D01*
X106075004Y-76119435D01*
X106074996Y-76119435D01*
X105895750Y-76139630D01*
X105895745Y-76139631D01*
X105725476Y-76199211D01*
X105572737Y-76295184D01*
X105445184Y-76422737D01*
X105349211Y-76575476D01*
X105289631Y-76745745D01*
X105289630Y-76745750D01*
X105269435Y-76924996D01*
X73500500Y-76924996D01*
X73500500Y-74749996D01*
X96119435Y-74749996D01*
X96119435Y-74750003D01*
X96139630Y-74929249D01*
X96139631Y-74929254D01*
X96199211Y-75099523D01*
X96214920Y-75124523D01*
X96295184Y-75252262D01*
X96422738Y-75379816D01*
X96575478Y-75475789D01*
X96646924Y-75500789D01*
X96745745Y-75535368D01*
X96745750Y-75535369D01*
X96924996Y-75555565D01*
X96925000Y-75555565D01*
X96925004Y-75555565D01*
X97104249Y-75535369D01*
X97104252Y-75535368D01*
X97104255Y-75535368D01*
X97274522Y-75475789D01*
X97427262Y-75379816D01*
X97554816Y-75252262D01*
X97650789Y-75099522D01*
X97710368Y-74929255D01*
X97727748Y-74775003D01*
X97727749Y-74774996D01*
X99069435Y-74774996D01*
X99069435Y-74775003D01*
X99089630Y-74954249D01*
X99089631Y-74954254D01*
X99149211Y-75124523D01*
X99229475Y-75252262D01*
X99245184Y-75277262D01*
X99372738Y-75404816D01*
X99525478Y-75500789D01*
X99624299Y-75535368D01*
X99695745Y-75560368D01*
X99695750Y-75560369D01*
X99874996Y-75580565D01*
X99875000Y-75580565D01*
X99875004Y-75580565D01*
X100054249Y-75560369D01*
X100054252Y-75560368D01*
X100054255Y-75560368D01*
X100224522Y-75500789D01*
X100377262Y-75404816D01*
X100504816Y-75277262D01*
X100600789Y-75124522D01*
X100660368Y-74954255D01*
X100663185Y-74929254D01*
X100680565Y-74775003D01*
X100680565Y-74774996D01*
X100660369Y-74595750D01*
X100660368Y-74595745D01*
X100600788Y-74425476D01*
X100504815Y-74272737D01*
X100377262Y-74145184D01*
X100224523Y-74049211D01*
X100054254Y-73989631D01*
X100054249Y-73989630D01*
X99875004Y-73969435D01*
X99874996Y-73969435D01*
X99695750Y-73989630D01*
X99695745Y-73989631D01*
X99525476Y-74049211D01*
X99372737Y-74145184D01*
X99245184Y-74272737D01*
X99149211Y-74425476D01*
X99089631Y-74595745D01*
X99089630Y-74595750D01*
X99069435Y-74774996D01*
X97727749Y-74774996D01*
X97730565Y-74750003D01*
X97730565Y-74749996D01*
X97710369Y-74570750D01*
X97710368Y-74570745D01*
X97654250Y-74410369D01*
X97650789Y-74400478D01*
X97554816Y-74247738D01*
X97427262Y-74120184D01*
X97274523Y-74024211D01*
X97104254Y-73964631D01*
X97104249Y-73964630D01*
X96925004Y-73944435D01*
X96924996Y-73944435D01*
X96745750Y-73964630D01*
X96745745Y-73964631D01*
X96575476Y-74024211D01*
X96422737Y-74120184D01*
X96295184Y-74247737D01*
X96199211Y-74400476D01*
X96139631Y-74570745D01*
X96139630Y-74570750D01*
X96119435Y-74749996D01*
X73500500Y-74749996D01*
X73500500Y-71624500D01*
X73520185Y-71557461D01*
X73572989Y-71511706D01*
X73624500Y-71500500D01*
X74567692Y-71500500D01*
X74634731Y-71520185D01*
G37*
%TD.AperFunction*%
%TD*%
%TA.AperFunction,Conductor*%
%TO.N,IO14{slash}SD*%
G36*
X80711616Y-95413089D02*
G01*
X80836910Y-95538383D01*
X80840337Y-95546656D01*
X80837119Y-95554714D01*
X80772106Y-95623148D01*
X80772093Y-95623162D01*
X80713678Y-95693776D01*
X80713670Y-95693788D01*
X80671466Y-95757581D01*
X80671460Y-95757592D01*
X80647154Y-95813914D01*
X80647152Y-95813921D01*
X80643361Y-95852844D01*
X80639148Y-95860746D01*
X80633244Y-95863310D01*
X80364412Y-95898715D01*
X80355762Y-95896398D01*
X80351284Y-95888643D01*
X80351284Y-95885587D01*
X80354556Y-95860746D01*
X80386689Y-95616753D01*
X80391167Y-95608999D01*
X80397153Y-95606637D01*
X80436079Y-95602845D01*
X80492412Y-95578534D01*
X80556222Y-95536319D01*
X80626829Y-95477912D01*
X80695285Y-95412879D01*
X80703643Y-95409666D01*
X80711616Y-95413089D01*
G37*
%TD.AperFunction*%
%TD*%
%TA.AperFunction,Conductor*%
%TO.N,IO15{slash}AFE_RST*%
G36*
X111013772Y-90705658D02*
G01*
X111228901Y-90870717D01*
X111233379Y-90878472D01*
X111231062Y-90887122D01*
X111228901Y-90889283D01*
X111013772Y-91054341D01*
X111005122Y-91056658D01*
X110999218Y-91054094D01*
X110969014Y-91029253D01*
X110969012Y-91029252D01*
X110911988Y-91006608D01*
X110837009Y-90991337D01*
X110745790Y-90982712D01*
X110651400Y-90980292D01*
X110643217Y-90976654D01*
X110640000Y-90968596D01*
X110640000Y-90791403D01*
X110643427Y-90783130D01*
X110651398Y-90779707D01*
X110745790Y-90777286D01*
X110837009Y-90768661D01*
X110837012Y-90768660D01*
X110837016Y-90768660D01*
X110911988Y-90753390D01*
X110969012Y-90730747D01*
X110999219Y-90705903D01*
X111007785Y-90703296D01*
X111013772Y-90705658D01*
G37*
%TD.AperFunction*%
%TD*%
%TA.AperFunction,Conductor*%
%TO.N,IO15{slash}AFE_RST*%
G36*
X106304714Y-93312880D02*
G01*
X106373148Y-93377892D01*
X106373162Y-93377905D01*
X106443776Y-93436319D01*
X106443788Y-93436327D01*
X106507581Y-93478531D01*
X106507592Y-93478537D01*
X106563914Y-93502843D01*
X106563919Y-93502845D01*
X106602845Y-93506637D01*
X106610746Y-93510850D01*
X106613310Y-93516754D01*
X106648715Y-93785587D01*
X106646398Y-93794237D01*
X106638643Y-93798715D01*
X106635587Y-93798715D01*
X106366754Y-93763310D01*
X106358999Y-93758832D01*
X106356637Y-93752844D01*
X106352845Y-93713921D01*
X106352845Y-93713919D01*
X106328534Y-93657586D01*
X106286319Y-93593776D01*
X106227912Y-93523170D01*
X106227909Y-93523166D01*
X106227905Y-93523162D01*
X106227892Y-93523148D01*
X106162880Y-93454714D01*
X106159666Y-93446356D01*
X106163088Y-93438384D01*
X106288384Y-93313088D01*
X106296656Y-93309662D01*
X106304714Y-93312880D01*
G37*
%TD.AperFunction*%
%TD*%
%TA.AperFunction,Conductor*%
%TO.N,IO20{slash}SCK*%
G36*
X76841869Y-96148427D02*
G01*
X76845292Y-96156400D01*
X76847712Y-96250789D01*
X76847712Y-96250790D01*
X76856337Y-96342009D01*
X76871608Y-96416988D01*
X76894253Y-96474014D01*
X76919094Y-96504218D01*
X76921703Y-96512785D01*
X76919341Y-96518772D01*
X76754283Y-96733901D01*
X76746528Y-96738379D01*
X76737878Y-96736062D01*
X76735717Y-96733901D01*
X76570658Y-96518772D01*
X76568341Y-96510122D01*
X76570902Y-96504220D01*
X76595747Y-96474012D01*
X76618390Y-96416988D01*
X76633660Y-96342016D01*
X76642286Y-96250790D01*
X76644708Y-96156400D01*
X76648346Y-96148217D01*
X76656404Y-96145000D01*
X76833596Y-96145000D01*
X76841869Y-96148427D01*
G37*
%TD.AperFunction*%
%TD*%
%TA.AperFunction,Conductor*%
%TO.N,IO19{slash}WS*%
G36*
X88279714Y-86412880D02*
G01*
X88348148Y-86477892D01*
X88348162Y-86477905D01*
X88418776Y-86536319D01*
X88418788Y-86536327D01*
X88482581Y-86578531D01*
X88482592Y-86578537D01*
X88538914Y-86602843D01*
X88538919Y-86602845D01*
X88577845Y-86606637D01*
X88585746Y-86610850D01*
X88588310Y-86616754D01*
X88623715Y-86885587D01*
X88621398Y-86894237D01*
X88613643Y-86898715D01*
X88610587Y-86898715D01*
X88341754Y-86863310D01*
X88333999Y-86858832D01*
X88331637Y-86852844D01*
X88327845Y-86813921D01*
X88327845Y-86813919D01*
X88303534Y-86757586D01*
X88261319Y-86693776D01*
X88202912Y-86623170D01*
X88202909Y-86623166D01*
X88202905Y-86623162D01*
X88202892Y-86623148D01*
X88137880Y-86554714D01*
X88134666Y-86546356D01*
X88138088Y-86538384D01*
X88263384Y-86413088D01*
X88271656Y-86409662D01*
X88279714Y-86412880D01*
G37*
%TD.AperFunction*%
%TD*%
%TA.AperFunction,Conductor*%
%TO.N,IO19{slash}WS*%
G36*
X76786616Y-95063841D02*
G01*
X76911910Y-95189135D01*
X76915337Y-95197408D01*
X76912119Y-95205466D01*
X76847106Y-95273900D01*
X76847093Y-95273914D01*
X76788678Y-95344528D01*
X76788670Y-95344540D01*
X76746466Y-95408333D01*
X76746460Y-95408344D01*
X76722154Y-95464666D01*
X76722152Y-95464673D01*
X76718361Y-95503596D01*
X76714148Y-95511498D01*
X76708244Y-95514062D01*
X76439412Y-95549467D01*
X76430762Y-95547150D01*
X76426284Y-95539395D01*
X76426284Y-95536339D01*
X76429556Y-95511498D01*
X76461689Y-95267505D01*
X76466167Y-95259751D01*
X76472153Y-95257389D01*
X76511079Y-95253597D01*
X76567412Y-95229286D01*
X76631222Y-95187071D01*
X76701829Y-95128664D01*
X76770285Y-95063631D01*
X76778643Y-95060418D01*
X76786616Y-95063841D01*
G37*
%TD.AperFunction*%
%TD*%
%TA.AperFunction,Conductor*%
%TO.N,IO15{slash}AFE_RST*%
G36*
X107011616Y-93313089D02*
G01*
X107136910Y-93438383D01*
X107140337Y-93446656D01*
X107137119Y-93454714D01*
X107072106Y-93523148D01*
X107072093Y-93523162D01*
X107013678Y-93593776D01*
X107013670Y-93593788D01*
X106971466Y-93657581D01*
X106971460Y-93657592D01*
X106947154Y-93713914D01*
X106947152Y-93713921D01*
X106943361Y-93752844D01*
X106939148Y-93760746D01*
X106933244Y-93763310D01*
X106664412Y-93798715D01*
X106655762Y-93796398D01*
X106651284Y-93788643D01*
X106651284Y-93785587D01*
X106654556Y-93760746D01*
X106686689Y-93516753D01*
X106691167Y-93508999D01*
X106697153Y-93506637D01*
X106736079Y-93502845D01*
X106792412Y-93478534D01*
X106856222Y-93436319D01*
X106926829Y-93377912D01*
X106995285Y-93312879D01*
X107003643Y-93309666D01*
X107011616Y-93313089D01*
G37*
%TD.AperFunction*%
%TD*%
%TA.AperFunction,Conductor*%
%TO.N,IO20{slash}SCK*%
G36*
X85432122Y-86508937D02*
G01*
X85434280Y-86511095D01*
X85533439Y-86640333D01*
X85599341Y-86726226D01*
X85601658Y-86734876D01*
X85599094Y-86740780D01*
X85574253Y-86770983D01*
X85551609Y-86828009D01*
X85536337Y-86902987D01*
X85527713Y-86994206D01*
X85527712Y-86994213D01*
X85525292Y-87088600D01*
X85521654Y-87096783D01*
X85513596Y-87100000D01*
X85336404Y-87100000D01*
X85328131Y-87096573D01*
X85324708Y-87088600D01*
X85322286Y-86994209D01*
X85322286Y-86994208D01*
X85313661Y-86902987D01*
X85313660Y-86902981D01*
X85298390Y-86828010D01*
X85275747Y-86770986D01*
X85275745Y-86770983D01*
X85250905Y-86740780D01*
X85248296Y-86732213D01*
X85250657Y-86726227D01*
X85415718Y-86511097D01*
X85423472Y-86506620D01*
X85432122Y-86508937D01*
G37*
%TD.AperFunction*%
%TD*%
%TA.AperFunction,Conductor*%
%TO.N,IO14{slash}SD*%
G36*
X87273772Y-90525658D02*
G01*
X87488901Y-90690717D01*
X87493379Y-90698472D01*
X87491062Y-90707122D01*
X87488901Y-90709283D01*
X87273772Y-90874341D01*
X87265122Y-90876658D01*
X87259218Y-90874094D01*
X87229014Y-90849253D01*
X87229012Y-90849252D01*
X87171988Y-90826608D01*
X87097009Y-90811337D01*
X87005790Y-90802712D01*
X86911400Y-90800292D01*
X86903217Y-90796654D01*
X86900000Y-90788596D01*
X86900000Y-90611403D01*
X86903427Y-90603130D01*
X86911398Y-90599707D01*
X87005790Y-90597286D01*
X87097009Y-90588661D01*
X87097012Y-90588660D01*
X87097016Y-90588660D01*
X87171988Y-90573390D01*
X87229012Y-90550747D01*
X87259219Y-90525903D01*
X87267785Y-90523296D01*
X87273772Y-90525658D01*
G37*
%TD.AperFunction*%
%TD*%
%TA.AperFunction,Conductor*%
%TO.N,Net-(U8-CLK)*%
G36*
X89853553Y-104505026D02*
G01*
X89776829Y-104577912D01*
X89706222Y-104636319D01*
X89642412Y-104678534D01*
X89586079Y-104702845D01*
X89537903Y-104707539D01*
X89499293Y-105000707D01*
X89792460Y-104962097D01*
X89797153Y-104913919D01*
X89821464Y-104857586D01*
X89863679Y-104793776D01*
X89922087Y-104723170D01*
X89994974Y-104646447D01*
X89853553Y-104505026D01*
G37*
%TD.AperFunction*%
%TD*%
%TA.AperFunction,Conductor*%
%TO.N,IO18{slash}LR*%
G36*
X76344237Y-93428601D02*
G01*
X76348715Y-93436356D01*
X76348715Y-93439412D01*
X76313310Y-93708244D01*
X76308832Y-93715999D01*
X76302844Y-93718361D01*
X76263921Y-93722152D01*
X76263914Y-93722154D01*
X76207592Y-93746460D01*
X76207581Y-93746466D01*
X76143788Y-93788670D01*
X76143776Y-93788678D01*
X76073162Y-93847093D01*
X76073148Y-93847106D01*
X76004714Y-93912119D01*
X75996356Y-93915333D01*
X75988383Y-93911910D01*
X75863089Y-93786616D01*
X75859662Y-93778343D01*
X75862880Y-93770285D01*
X75885514Y-93746460D01*
X75927912Y-93701829D01*
X75986319Y-93631222D01*
X76028534Y-93567412D01*
X76052845Y-93511079D01*
X76056637Y-93472153D01*
X76060850Y-93464253D01*
X76066752Y-93461689D01*
X76335587Y-93426284D01*
X76344237Y-93428601D01*
G37*
%TD.AperFunction*%
%TD*%
%TA.AperFunction,Conductor*%
%TO.N,IO15{slash}AFE_RST*%
G36*
X79882674Y-95393800D02*
G01*
X80005532Y-95516658D01*
X80008959Y-95524931D01*
X80006101Y-95532593D01*
X79924621Y-95626629D01*
X79917195Y-95642889D01*
X79915995Y-95644938D01*
X79894234Y-95674671D01*
X79858608Y-95740365D01*
X79840173Y-95798065D01*
X79840173Y-95798066D01*
X79839415Y-95836344D01*
X79835825Y-95844547D01*
X79829892Y-95847608D01*
X79564309Y-95897865D01*
X79555543Y-95896036D01*
X79550638Y-95888544D01*
X79550469Y-95885473D01*
X79571469Y-95613514D01*
X79575522Y-95605531D01*
X79581176Y-95602882D01*
X79619183Y-95596436D01*
X79672349Y-95567765D01*
X79732238Y-95521198D01*
X79799419Y-95459538D01*
X79866191Y-95393737D01*
X79874487Y-95390373D01*
X79882674Y-95393800D01*
G37*
%TD.AperFunction*%
%TD*%
%TA.AperFunction,Conductor*%
%TO.N,IO18{slash}LR*%
G36*
X88933244Y-85986688D02*
G01*
X88940999Y-85991166D01*
X88943361Y-85997154D01*
X88947152Y-86036075D01*
X88947154Y-86036082D01*
X88971460Y-86092405D01*
X88971466Y-86092416D01*
X89013670Y-86156209D01*
X89013678Y-86156221D01*
X89072093Y-86226836D01*
X89072106Y-86226850D01*
X89137119Y-86295285D01*
X89140333Y-86303643D01*
X89136910Y-86311616D01*
X89011616Y-86436910D01*
X89003343Y-86440337D01*
X88995285Y-86437119D01*
X88926850Y-86372106D01*
X88926836Y-86372093D01*
X88856221Y-86313678D01*
X88856209Y-86313670D01*
X88792416Y-86271466D01*
X88792405Y-86271460D01*
X88736082Y-86247154D01*
X88736075Y-86247152D01*
X88697154Y-86243361D01*
X88689252Y-86239148D01*
X88686688Y-86233244D01*
X88676544Y-86156221D01*
X88651284Y-85964411D01*
X88653601Y-85955762D01*
X88661356Y-85951284D01*
X88664411Y-85951284D01*
X88933244Y-85986688D01*
G37*
%TD.AperFunction*%
%TD*%
M02*
