M48
INCH
T1C0.0079
T2C0.0098
T3C0.0118
T4C0.0217
T5C0.0236
%
G90
G05
T1
X4.1295Y-3.7476
X4.1492Y-3.7476
T3
X2.9124Y-3.8356
X2.9144Y-4.0236
X2.9616Y-3.6624
X2.9823Y-3.0362
X3.002Y-2.8701
X3.0059Y-3.6781
X3.0079Y-3.937
X3.0089Y-3.7618
X3.0153Y-3.8804
X3.0161Y-3.8472
X3.0215Y-3.8089
X3.0689Y-3.7756
X3.0728Y-3.2992
X3.0748Y-3.0354
X3.0846Y-3.3465
X3.0846Y-3.378
X3.0846Y-3.4882
X3.0906Y-2.8937
X3.1113Y-3.5474
X3.1171Y-3.9193
X3.1171Y-3.997
X3.1319Y-3.7756
X3.1417Y-3.624
X3.1634Y-3.7756
X3.188Y-3.3415
X3.19Y-2.8346
X3.1949Y-3.8415
X3.1949Y-3.9193
X3.1949Y-3.997
X3.2579Y-3.7756
X3.2612Y-4.0011
X3.2677Y-3.8583
X3.2726Y-3.9189
X3.2894Y-3.7756
X3.2923Y-2.8986
X3.3268Y-3.7008
X3.3465Y-3.7992
X3.3494Y-3.0374
X3.3632Y-3.4055
X3.3652Y-4.3976
X3.3661Y-3.9567
X3.3839Y-3.189
X3.4449Y-3.5709
X3.4665Y-2.8691
X3.4754Y-3.9518
X3.4764Y-3.8553
X3.4764Y-4.0138
X3.479Y-3.3121
X3.4892Y-3.4213
X3.4902Y-3.3839
X3.4911Y-3.5236
X3.5236Y-4.1339
X3.5738Y-3.0659
X3.5792Y-3.8066
X3.5965Y-3.5886
X3.5965Y-3.6831
X3.5974Y-3.4941
X3.6004Y-3.0039
X3.6506Y-3.7913
X3.652Y-4.2106
X3.6988Y-3.2933
X3.7126Y-2.9075
X3.7392Y-3.8622
X3.8071Y-3.5886
X3.8159Y-2.9429
X3.8189Y-3.628
X3.8248Y-4.3612
X3.8346Y-3.4626
X3.8366Y-3.7008
X3.8406Y-4.2106
X3.8831Y-3.9551
X3.8925Y-3.0366
X3.9321Y-2.9439
X3.9331Y-3.628
X3.9382Y-3.1543
X3.9606Y-3.7037
X3.9656Y-3.5886
X3.9833Y-4.1358
X3.9902Y-2.8848
X4.0463Y-3.5049
X4.0463Y-3.6742
X4.0522Y-3.7549
X4.0915Y-3.3297
X4.1132Y-3.4902
X4.1417Y-3.8415
X4.1526Y-3.3553
X4.1535Y-4.3681
X4.1762Y-3.0285
X4.1949Y-3.3297
X4.1988Y-3.6929
X4.2195Y-3.3553
X4.2254Y-3.7785
X4.2254Y-4.1427
X4.2608Y-2.8681
X4.2726Y-3.7795
X4.3083Y-3.6594
X4.3276Y-3.2886
X4.3406Y-3.1083
X4.3494Y-4.0561
X4.3563Y-3.3996
X4.3795Y-3.578
X4.3921Y-3.6457
X4.4264Y-3.3972
X4.4319Y-2.9913
X4.4323Y-3.0819
X4.4378Y-3.8602
X4.4577Y-4.3327
X4.4596Y-4.1201
T4
X3.098Y-3.2522
X3.098Y-3.614
T5
X3.2736Y-3.2589
X3.2736Y-3.4006
T2
G00X3.0102Y-3.2522
M15
G01X2.9512Y-3.2522
M16
G05
G00X3.0102Y-3.614
M15
G01X2.9512Y-3.614
M16
G05
M30
