%TF.GenerationSoftware,KiCad,Pcbnew,8.0.4*%
%TF.CreationDate,2024-09-26T12:10:35+10:00*%
%TF.ProjectId,OuchButtonV2,4f756368-4275-4747-946f-6e56322e6b69,rev?*%
%TF.SameCoordinates,Original*%
%TF.FileFunction,Paste,Top*%
%TF.FilePolarity,Positive*%
%FSLAX46Y46*%
G04 Gerber Fmt 4.6, Leading zero omitted, Abs format (unit mm)*
G04 Created by KiCad (PCBNEW 8.0.4) date 2024-09-26 12:10:35*
%MOMM*%
%LPD*%
G01*
G04 APERTURE LIST*
G04 Aperture macros list*
%AMRoundRect*
0 Rectangle with rounded corners*
0 $1 Rounding radius*
0 $2 $3 $4 $5 $6 $7 $8 $9 X,Y pos of 4 corners*
0 Add a 4 corners polygon primitive as box body*
4,1,4,$2,$3,$4,$5,$6,$7,$8,$9,$2,$3,0*
0 Add four circle primitives for the rounded corners*
1,1,$1+$1,$2,$3*
1,1,$1+$1,$4,$5*
1,1,$1+$1,$6,$7*
1,1,$1+$1,$8,$9*
0 Add four rect primitives between the rounded corners*
20,1,$1+$1,$2,$3,$4,$5,0*
20,1,$1+$1,$4,$5,$6,$7,0*
20,1,$1+$1,$6,$7,$8,$9,0*
20,1,$1+$1,$8,$9,$2,$3,0*%
%AMFreePoly0*
4,1,6,0.725000,-0.725000,-0.725000,-0.725000,-0.725000,0.125000,-0.125000,0.725000,0.725000,0.725000,0.725000,-0.725000,0.725000,-0.725000,$1*%
G04 Aperture macros list end*
%ADD10C,0.000000*%
%ADD11R,0.700000X0.700000*%
%ADD12RoundRect,0.250000X0.475000X-0.250000X0.475000X0.250000X-0.475000X0.250000X-0.475000X-0.250000X0*%
%ADD13R,0.800000X0.400000*%
%ADD14R,0.400000X0.800000*%
%ADD15FreePoly0,180.000000*%
%ADD16R,1.450000X1.450000*%
%ADD17RoundRect,0.135000X0.315000X0.365000X-0.315000X0.365000X-0.315000X-0.365000X0.315000X-0.365000X0*%
%ADD18RoundRect,0.082500X0.767500X0.192500X-0.767500X0.192500X-0.767500X-0.192500X0.767500X-0.192500X0*%
%ADD19RoundRect,0.070000X-0.345000X0.070000X-0.345000X-0.070000X0.345000X-0.070000X0.345000X0.070000X0*%
%ADD20RoundRect,0.112500X-0.302500X0.112500X-0.302500X-0.112500X0.302500X-0.112500X0.302500X0.112500X0*%
%ADD21RoundRect,0.250000X-0.250000X-0.475000X0.250000X-0.475000X0.250000X0.475000X-0.250000X0.475000X0*%
G04 APERTURE END LIST*
%TO.C,MK1*%
G36*
X85720000Y-88135000D02*
G01*
X86220000Y-88135000D01*
X86220000Y-87713000D01*
X85720000Y-87713000D01*
X85720000Y-88135000D01*
G37*
G36*
X86220000Y-87313000D02*
G01*
X85720000Y-87313000D01*
X85720000Y-86891000D01*
X86220000Y-86891000D01*
X86220000Y-87313000D01*
G37*
G36*
X87120000Y-88135000D02*
G01*
X86620000Y-88135000D01*
X86620000Y-87713000D01*
X87120000Y-87713000D01*
X87120000Y-88135000D01*
G37*
G36*
X87520000Y-87313000D02*
G01*
X88020000Y-87313000D01*
X88020000Y-86891000D01*
X87520000Y-86891000D01*
X87520000Y-87313000D01*
G37*
G36*
X88020000Y-88135000D02*
G01*
X87520000Y-88135000D01*
X87520000Y-87713000D01*
X88020000Y-87713000D01*
X88020000Y-88135000D01*
G37*
D10*
G36*
X86820000Y-85289700D02*
G01*
X86710200Y-85310700D01*
X86606800Y-85352900D01*
X86513700Y-85414700D01*
X86434700Y-85493700D01*
X86372900Y-85586800D01*
X86330700Y-85690200D01*
X86309700Y-85800000D01*
X86059000Y-85800000D01*
X86086600Y-85634500D01*
X86147500Y-85478300D01*
X86239200Y-85337800D01*
X86357800Y-85219200D01*
X86498300Y-85127500D01*
X86654500Y-85066600D01*
X86820000Y-85039000D01*
X86820000Y-85289700D01*
G37*
G36*
X86330700Y-86009800D02*
G01*
X86372900Y-86113200D01*
X86434700Y-86206300D01*
X86513700Y-86285300D01*
X86606800Y-86347100D01*
X86710200Y-86389300D01*
X86820000Y-86410300D01*
X86820000Y-86661000D01*
X86654500Y-86633400D01*
X86498300Y-86572500D01*
X86357800Y-86480800D01*
X86239200Y-86362200D01*
X86147500Y-86221700D01*
X86086600Y-86065500D01*
X86059000Y-85900000D01*
X86309700Y-85900000D01*
X86330700Y-86009800D01*
G37*
G36*
X87085500Y-85066600D02*
G01*
X87241700Y-85127500D01*
X87382200Y-85219200D01*
X87500800Y-85337800D01*
X87592500Y-85478300D01*
X87653400Y-85634500D01*
X87681000Y-85800000D01*
X87430300Y-85800000D01*
X87409300Y-85690200D01*
X87367100Y-85586800D01*
X87305300Y-85493700D01*
X87226300Y-85414700D01*
X87133200Y-85352900D01*
X87029800Y-85310700D01*
X86920000Y-85289700D01*
X86920000Y-85039000D01*
X87085500Y-85066600D01*
G37*
G36*
X87653400Y-86065500D02*
G01*
X87592500Y-86221700D01*
X87500800Y-86362200D01*
X87382200Y-86480800D01*
X87241700Y-86572500D01*
X87085500Y-86633400D01*
X86920000Y-86661000D01*
X86920000Y-86410300D01*
X87029800Y-86389300D01*
X87133200Y-86347100D01*
X87226300Y-86285300D01*
X87305300Y-86206300D01*
X87367100Y-86113200D01*
X87409300Y-86009800D01*
X87430300Y-85900000D01*
X87681000Y-85900000D01*
X87653400Y-86065500D01*
G37*
%TD*%
D11*
%TO.C,D3*%
X76850000Y-77120000D03*
X75750000Y-77120000D03*
X75750000Y-78950000D03*
X76850000Y-78950000D03*
%TD*%
D12*
%TO.C,R19*%
X84050000Y-91900000D03*
X84050000Y-90000000D03*
%TD*%
%TO.C,R20*%
X81700000Y-91900000D03*
X81700000Y-90000000D03*
%TD*%
D11*
%TO.C,D6*%
X87400000Y-77120000D03*
X86300000Y-77120000D03*
X86300000Y-78950000D03*
X87400000Y-78950000D03*
%TD*%
D13*
%TO.C,U1*%
X87050000Y-103550000D03*
X87050000Y-102750000D03*
X87050000Y-101950000D03*
X87050000Y-101150000D03*
X87050000Y-100350000D03*
X87050000Y-99550000D03*
X87050000Y-98750000D03*
X87050000Y-97950000D03*
X87050000Y-97150000D03*
X87050000Y-96350000D03*
X87050000Y-95550000D03*
D14*
X85950000Y-94650000D03*
X85150000Y-94650000D03*
X84350000Y-94650000D03*
X83550000Y-94650000D03*
X82750000Y-94650000D03*
X81950000Y-94650000D03*
X81150000Y-94650000D03*
X80350000Y-94650000D03*
X79550000Y-94650000D03*
X78750000Y-94650000D03*
X77950000Y-94650000D03*
X77150000Y-94650000D03*
X76350000Y-94650000D03*
D13*
X75250000Y-95550000D03*
X75250000Y-96350000D03*
X75250000Y-97150000D03*
X75250000Y-97950000D03*
X75250000Y-98750000D03*
X75250000Y-99550000D03*
X75250000Y-100350000D03*
X75250000Y-101150000D03*
X75250000Y-101950000D03*
X75250000Y-102750000D03*
X75250000Y-103550000D03*
D14*
X76350000Y-104450000D03*
X77150000Y-104450000D03*
X77950000Y-104450000D03*
X78750000Y-104450000D03*
X79550000Y-104450000D03*
X80350000Y-104450000D03*
X81150000Y-104450000D03*
X81950000Y-104450000D03*
X82750000Y-104450000D03*
X83550000Y-104450000D03*
X84350000Y-104450000D03*
X85150000Y-104450000D03*
X85950000Y-104450000D03*
D15*
X83125000Y-101525000D03*
D16*
X83125000Y-99550000D03*
X83125000Y-97575000D03*
X81150000Y-101525000D03*
X81150000Y-99550000D03*
X81150000Y-97575000D03*
X79175000Y-101525000D03*
X79175000Y-99550000D03*
X79175000Y-97575000D03*
D11*
X75200000Y-104500000D03*
X75200000Y-94600000D03*
X87100000Y-94600000D03*
X87100000Y-104500000D03*
%TD*%
%TO.C,D5*%
X83883332Y-77120000D03*
X82783332Y-77120000D03*
X82783332Y-78950000D03*
X83883332Y-78950000D03*
%TD*%
D17*
%TO.C,S1*%
X78300000Y-73600000D03*
X74200000Y-73600000D03*
X78300000Y-72000000D03*
X74200000Y-72000000D03*
D18*
X76250000Y-74225000D03*
%TD*%
D19*
%TO.C,J1*%
X79450000Y-84200000D03*
X79450000Y-85000000D03*
X79450000Y-85800000D03*
X79450000Y-86600000D03*
X79450000Y-87000000D03*
X79450000Y-87400000D03*
X79450000Y-89000000D03*
X79450000Y-89800000D03*
X79450000Y-90200000D03*
X79450000Y-89400000D03*
X79450000Y-88600000D03*
X79450000Y-88200000D03*
X79450000Y-87800000D03*
X79450000Y-86200000D03*
X79450000Y-85400000D03*
X79450000Y-84600000D03*
D20*
X79450000Y-83685000D03*
X79450000Y-90715000D03*
%TD*%
D21*
%TO.C,C16*%
X85950000Y-82150000D03*
X87850000Y-82150000D03*
%TD*%
D11*
%TO.C,D4*%
X80366666Y-77120000D03*
X79266666Y-77120000D03*
X79266666Y-78950000D03*
X80366666Y-78950000D03*
%TD*%
M02*
