%TF.GenerationSoftware,KiCad,Pcbnew,8.0.4*%
%TF.CreationDate,2024-09-26T12:10:35+10:00*%
%TF.ProjectId,OuchButtonV2,4f756368-4275-4747-946f-6e56322e6b69,rev?*%
%TF.SameCoordinates,Original*%
%TF.FileFunction,Other,Comment*%
%FSLAX46Y46*%
G04 Gerber Fmt 4.6, Leading zero omitted, Abs format (unit mm)*
G04 Created by KiCad (PCBNEW 8.0.4) date 2024-09-26 12:10:35*
%MOMM*%
%LPD*%
G01*
G04 APERTURE LIST*
%ADD10C,0.040000*%
G04 APERTURE END LIST*
D10*
X106658333Y-80671396D02*
X106648809Y-80680920D01*
X106648809Y-80680920D02*
X106620238Y-80690443D01*
X106620238Y-80690443D02*
X106601190Y-80690443D01*
X106601190Y-80690443D02*
X106572619Y-80680920D01*
X106572619Y-80680920D02*
X106553571Y-80661872D01*
X106553571Y-80661872D02*
X106544048Y-80642824D01*
X106544048Y-80642824D02*
X106534524Y-80604729D01*
X106534524Y-80604729D02*
X106534524Y-80576158D01*
X106534524Y-80576158D02*
X106544048Y-80538062D01*
X106544048Y-80538062D02*
X106553571Y-80519015D01*
X106553571Y-80519015D02*
X106572619Y-80499967D01*
X106572619Y-80499967D02*
X106601190Y-80490443D01*
X106601190Y-80490443D02*
X106620238Y-80490443D01*
X106620238Y-80490443D02*
X106648809Y-80499967D01*
X106648809Y-80499967D02*
X106658333Y-80509491D01*
X106772619Y-80690443D02*
X106753571Y-80680920D01*
X106753571Y-80680920D02*
X106744048Y-80671396D01*
X106744048Y-80671396D02*
X106734524Y-80652348D01*
X106734524Y-80652348D02*
X106734524Y-80595205D01*
X106734524Y-80595205D02*
X106744048Y-80576158D01*
X106744048Y-80576158D02*
X106753571Y-80566634D01*
X106753571Y-80566634D02*
X106772619Y-80557110D01*
X106772619Y-80557110D02*
X106801190Y-80557110D01*
X106801190Y-80557110D02*
X106820238Y-80566634D01*
X106820238Y-80566634D02*
X106829762Y-80576158D01*
X106829762Y-80576158D02*
X106839286Y-80595205D01*
X106839286Y-80595205D02*
X106839286Y-80652348D01*
X106839286Y-80652348D02*
X106829762Y-80671396D01*
X106829762Y-80671396D02*
X106820238Y-80680920D01*
X106820238Y-80680920D02*
X106801190Y-80690443D01*
X106801190Y-80690443D02*
X106772619Y-80690443D01*
X106925000Y-80690443D02*
X106925000Y-80557110D01*
X106925000Y-80576158D02*
X106934523Y-80566634D01*
X106934523Y-80566634D02*
X106953571Y-80557110D01*
X106953571Y-80557110D02*
X106982142Y-80557110D01*
X106982142Y-80557110D02*
X107001190Y-80566634D01*
X107001190Y-80566634D02*
X107010714Y-80585681D01*
X107010714Y-80585681D02*
X107010714Y-80690443D01*
X107010714Y-80585681D02*
X107020238Y-80566634D01*
X107020238Y-80566634D02*
X107039285Y-80557110D01*
X107039285Y-80557110D02*
X107067857Y-80557110D01*
X107067857Y-80557110D02*
X107086904Y-80566634D01*
X107086904Y-80566634D02*
X107096428Y-80585681D01*
X107096428Y-80585681D02*
X107096428Y-80690443D01*
X107191667Y-80557110D02*
X107191667Y-80757110D01*
X107191667Y-80566634D02*
X107210714Y-80557110D01*
X107210714Y-80557110D02*
X107248809Y-80557110D01*
X107248809Y-80557110D02*
X107267857Y-80566634D01*
X107267857Y-80566634D02*
X107277381Y-80576158D01*
X107277381Y-80576158D02*
X107286905Y-80595205D01*
X107286905Y-80595205D02*
X107286905Y-80652348D01*
X107286905Y-80652348D02*
X107277381Y-80671396D01*
X107277381Y-80671396D02*
X107267857Y-80680920D01*
X107267857Y-80680920D02*
X107248809Y-80690443D01*
X107248809Y-80690443D02*
X107210714Y-80690443D01*
X107210714Y-80690443D02*
X107191667Y-80680920D01*
X107401190Y-80690443D02*
X107382142Y-80680920D01*
X107382142Y-80680920D02*
X107372619Y-80671396D01*
X107372619Y-80671396D02*
X107363095Y-80652348D01*
X107363095Y-80652348D02*
X107363095Y-80595205D01*
X107363095Y-80595205D02*
X107372619Y-80576158D01*
X107372619Y-80576158D02*
X107382142Y-80566634D01*
X107382142Y-80566634D02*
X107401190Y-80557110D01*
X107401190Y-80557110D02*
X107429761Y-80557110D01*
X107429761Y-80557110D02*
X107448809Y-80566634D01*
X107448809Y-80566634D02*
X107458333Y-80576158D01*
X107458333Y-80576158D02*
X107467857Y-80595205D01*
X107467857Y-80595205D02*
X107467857Y-80652348D01*
X107467857Y-80652348D02*
X107458333Y-80671396D01*
X107458333Y-80671396D02*
X107448809Y-80680920D01*
X107448809Y-80680920D02*
X107429761Y-80690443D01*
X107429761Y-80690443D02*
X107401190Y-80690443D01*
X107553571Y-80557110D02*
X107553571Y-80690443D01*
X107553571Y-80576158D02*
X107563094Y-80566634D01*
X107563094Y-80566634D02*
X107582142Y-80557110D01*
X107582142Y-80557110D02*
X107610713Y-80557110D01*
X107610713Y-80557110D02*
X107629761Y-80566634D01*
X107629761Y-80566634D02*
X107639285Y-80585681D01*
X107639285Y-80585681D02*
X107639285Y-80690443D01*
X107810713Y-80680920D02*
X107791665Y-80690443D01*
X107791665Y-80690443D02*
X107753570Y-80690443D01*
X107753570Y-80690443D02*
X107734523Y-80680920D01*
X107734523Y-80680920D02*
X107724999Y-80661872D01*
X107724999Y-80661872D02*
X107724999Y-80585681D01*
X107724999Y-80585681D02*
X107734523Y-80566634D01*
X107734523Y-80566634D02*
X107753570Y-80557110D01*
X107753570Y-80557110D02*
X107791665Y-80557110D01*
X107791665Y-80557110D02*
X107810713Y-80566634D01*
X107810713Y-80566634D02*
X107820237Y-80585681D01*
X107820237Y-80585681D02*
X107820237Y-80604729D01*
X107820237Y-80604729D02*
X107724999Y-80623777D01*
X107905952Y-80557110D02*
X107905952Y-80690443D01*
X107905952Y-80576158D02*
X107915475Y-80566634D01*
X107915475Y-80566634D02*
X107934523Y-80557110D01*
X107934523Y-80557110D02*
X107963094Y-80557110D01*
X107963094Y-80557110D02*
X107982142Y-80566634D01*
X107982142Y-80566634D02*
X107991666Y-80585681D01*
X107991666Y-80585681D02*
X107991666Y-80690443D01*
X108058332Y-80557110D02*
X108134523Y-80557110D01*
X108086904Y-80490443D02*
X108086904Y-80661872D01*
X108086904Y-80661872D02*
X108096427Y-80680920D01*
X108096427Y-80680920D02*
X108115475Y-80690443D01*
X108115475Y-80690443D02*
X108134523Y-80690443D01*
X106582143Y-81340443D02*
X106582143Y-81140443D01*
X106582143Y-81140443D02*
X106696428Y-81340443D01*
X106696428Y-81340443D02*
X106696428Y-81140443D01*
X106820238Y-81340443D02*
X106801190Y-81330920D01*
X106801190Y-81330920D02*
X106791667Y-81321396D01*
X106791667Y-81321396D02*
X106782143Y-81302348D01*
X106782143Y-81302348D02*
X106782143Y-81245205D01*
X106782143Y-81245205D02*
X106791667Y-81226158D01*
X106791667Y-81226158D02*
X106801190Y-81216634D01*
X106801190Y-81216634D02*
X106820238Y-81207110D01*
X106820238Y-81207110D02*
X106848809Y-81207110D01*
X106848809Y-81207110D02*
X106867857Y-81216634D01*
X106867857Y-81216634D02*
X106877381Y-81226158D01*
X106877381Y-81226158D02*
X106886905Y-81245205D01*
X106886905Y-81245205D02*
X106886905Y-81302348D01*
X106886905Y-81302348D02*
X106877381Y-81321396D01*
X106877381Y-81321396D02*
X106867857Y-81330920D01*
X106867857Y-81330920D02*
X106848809Y-81340443D01*
X106848809Y-81340443D02*
X106820238Y-81340443D01*
X107239285Y-81321396D02*
X107229761Y-81330920D01*
X107229761Y-81330920D02*
X107201190Y-81340443D01*
X107201190Y-81340443D02*
X107182142Y-81340443D01*
X107182142Y-81340443D02*
X107153571Y-81330920D01*
X107153571Y-81330920D02*
X107134523Y-81311872D01*
X107134523Y-81311872D02*
X107125000Y-81292824D01*
X107125000Y-81292824D02*
X107115476Y-81254729D01*
X107115476Y-81254729D02*
X107115476Y-81226158D01*
X107115476Y-81226158D02*
X107125000Y-81188062D01*
X107125000Y-81188062D02*
X107134523Y-81169015D01*
X107134523Y-81169015D02*
X107153571Y-81149967D01*
X107153571Y-81149967D02*
X107182142Y-81140443D01*
X107182142Y-81140443D02*
X107201190Y-81140443D01*
X107201190Y-81140443D02*
X107229761Y-81149967D01*
X107229761Y-81149967D02*
X107239285Y-81159491D01*
X107353571Y-81340443D02*
X107334523Y-81330920D01*
X107334523Y-81330920D02*
X107325000Y-81321396D01*
X107325000Y-81321396D02*
X107315476Y-81302348D01*
X107315476Y-81302348D02*
X107315476Y-81245205D01*
X107315476Y-81245205D02*
X107325000Y-81226158D01*
X107325000Y-81226158D02*
X107334523Y-81216634D01*
X107334523Y-81216634D02*
X107353571Y-81207110D01*
X107353571Y-81207110D02*
X107382142Y-81207110D01*
X107382142Y-81207110D02*
X107401190Y-81216634D01*
X107401190Y-81216634D02*
X107410714Y-81226158D01*
X107410714Y-81226158D02*
X107420238Y-81245205D01*
X107420238Y-81245205D02*
X107420238Y-81302348D01*
X107420238Y-81302348D02*
X107410714Y-81321396D01*
X107410714Y-81321396D02*
X107401190Y-81330920D01*
X107401190Y-81330920D02*
X107382142Y-81340443D01*
X107382142Y-81340443D02*
X107353571Y-81340443D01*
X107505952Y-81207110D02*
X107505952Y-81407110D01*
X107505952Y-81216634D02*
X107524999Y-81207110D01*
X107524999Y-81207110D02*
X107563094Y-81207110D01*
X107563094Y-81207110D02*
X107582142Y-81216634D01*
X107582142Y-81216634D02*
X107591666Y-81226158D01*
X107591666Y-81226158D02*
X107601190Y-81245205D01*
X107601190Y-81245205D02*
X107601190Y-81302348D01*
X107601190Y-81302348D02*
X107591666Y-81321396D01*
X107591666Y-81321396D02*
X107582142Y-81330920D01*
X107582142Y-81330920D02*
X107563094Y-81340443D01*
X107563094Y-81340443D02*
X107524999Y-81340443D01*
X107524999Y-81340443D02*
X107505952Y-81330920D01*
X107686904Y-81207110D02*
X107686904Y-81407110D01*
X107686904Y-81216634D02*
X107705951Y-81207110D01*
X107705951Y-81207110D02*
X107744046Y-81207110D01*
X107744046Y-81207110D02*
X107763094Y-81216634D01*
X107763094Y-81216634D02*
X107772618Y-81226158D01*
X107772618Y-81226158D02*
X107782142Y-81245205D01*
X107782142Y-81245205D02*
X107782142Y-81302348D01*
X107782142Y-81302348D02*
X107772618Y-81321396D01*
X107772618Y-81321396D02*
X107763094Y-81330920D01*
X107763094Y-81330920D02*
X107744046Y-81340443D01*
X107744046Y-81340443D02*
X107705951Y-81340443D01*
X107705951Y-81340443D02*
X107686904Y-81330920D01*
X107944046Y-81330920D02*
X107924998Y-81340443D01*
X107924998Y-81340443D02*
X107886903Y-81340443D01*
X107886903Y-81340443D02*
X107867856Y-81330920D01*
X107867856Y-81330920D02*
X107858332Y-81311872D01*
X107858332Y-81311872D02*
X107858332Y-81235681D01*
X107858332Y-81235681D02*
X107867856Y-81216634D01*
X107867856Y-81216634D02*
X107886903Y-81207110D01*
X107886903Y-81207110D02*
X107924998Y-81207110D01*
X107924998Y-81207110D02*
X107944046Y-81216634D01*
X107944046Y-81216634D02*
X107953570Y-81235681D01*
X107953570Y-81235681D02*
X107953570Y-81254729D01*
X107953570Y-81254729D02*
X107858332Y-81273777D01*
X108039285Y-81340443D02*
X108039285Y-81207110D01*
X108039285Y-81245205D02*
X108048808Y-81226158D01*
X108048808Y-81226158D02*
X108058332Y-81216634D01*
X108058332Y-81216634D02*
X108077380Y-81207110D01*
X108077380Y-81207110D02*
X108096427Y-81207110D01*
X106296428Y-80990443D02*
X106296428Y-80790443D01*
X106296428Y-80790443D02*
X106344047Y-80790443D01*
X106344047Y-80790443D02*
X106372618Y-80799967D01*
X106372618Y-80799967D02*
X106391666Y-80819015D01*
X106391666Y-80819015D02*
X106401189Y-80838062D01*
X106401189Y-80838062D02*
X106410713Y-80876158D01*
X106410713Y-80876158D02*
X106410713Y-80904729D01*
X106410713Y-80904729D02*
X106401189Y-80942824D01*
X106401189Y-80942824D02*
X106391666Y-80961872D01*
X106391666Y-80961872D02*
X106372618Y-80980920D01*
X106372618Y-80980920D02*
X106344047Y-80990443D01*
X106344047Y-80990443D02*
X106296428Y-80990443D01*
X106496428Y-80990443D02*
X106496428Y-80857110D01*
X106496428Y-80790443D02*
X106486904Y-80799967D01*
X106486904Y-80799967D02*
X106496428Y-80809491D01*
X106496428Y-80809491D02*
X106505951Y-80799967D01*
X106505951Y-80799967D02*
X106496428Y-80790443D01*
X106496428Y-80790443D02*
X106496428Y-80809491D01*
X106591666Y-80990443D02*
X106591666Y-80857110D01*
X106591666Y-80895205D02*
X106601189Y-80876158D01*
X106601189Y-80876158D02*
X106610713Y-80866634D01*
X106610713Y-80866634D02*
X106629761Y-80857110D01*
X106629761Y-80857110D02*
X106648808Y-80857110D01*
X106791666Y-80980920D02*
X106772618Y-80990443D01*
X106772618Y-80990443D02*
X106734523Y-80990443D01*
X106734523Y-80990443D02*
X106715476Y-80980920D01*
X106715476Y-80980920D02*
X106705952Y-80961872D01*
X106705952Y-80961872D02*
X106705952Y-80885681D01*
X106705952Y-80885681D02*
X106715476Y-80866634D01*
X106715476Y-80866634D02*
X106734523Y-80857110D01*
X106734523Y-80857110D02*
X106772618Y-80857110D01*
X106772618Y-80857110D02*
X106791666Y-80866634D01*
X106791666Y-80866634D02*
X106801190Y-80885681D01*
X106801190Y-80885681D02*
X106801190Y-80904729D01*
X106801190Y-80904729D02*
X106705952Y-80923777D01*
X106972619Y-80980920D02*
X106953571Y-80990443D01*
X106953571Y-80990443D02*
X106915476Y-80990443D01*
X106915476Y-80990443D02*
X106896428Y-80980920D01*
X106896428Y-80980920D02*
X106886905Y-80971396D01*
X106886905Y-80971396D02*
X106877381Y-80952348D01*
X106877381Y-80952348D02*
X106877381Y-80895205D01*
X106877381Y-80895205D02*
X106886905Y-80876158D01*
X106886905Y-80876158D02*
X106896428Y-80866634D01*
X106896428Y-80866634D02*
X106915476Y-80857110D01*
X106915476Y-80857110D02*
X106953571Y-80857110D01*
X106953571Y-80857110D02*
X106972619Y-80866634D01*
X107029762Y-80857110D02*
X107105953Y-80857110D01*
X107058334Y-80790443D02*
X107058334Y-80961872D01*
X107058334Y-80961872D02*
X107067857Y-80980920D01*
X107067857Y-80980920D02*
X107086905Y-80990443D01*
X107086905Y-80990443D02*
X107105953Y-80990443D01*
X107201191Y-80990443D02*
X107182143Y-80980920D01*
X107182143Y-80980920D02*
X107172620Y-80961872D01*
X107172620Y-80961872D02*
X107172620Y-80790443D01*
X107258334Y-80857110D02*
X107305953Y-80990443D01*
X107353572Y-80857110D02*
X107305953Y-80990443D01*
X107305953Y-80990443D02*
X107286905Y-81038062D01*
X107286905Y-81038062D02*
X107277382Y-81047586D01*
X107277382Y-81047586D02*
X107258334Y-81057110D01*
X107648810Y-80885681D02*
X107677382Y-80895205D01*
X107677382Y-80895205D02*
X107686905Y-80904729D01*
X107686905Y-80904729D02*
X107696429Y-80923777D01*
X107696429Y-80923777D02*
X107696429Y-80952348D01*
X107696429Y-80952348D02*
X107686905Y-80971396D01*
X107686905Y-80971396D02*
X107677382Y-80980920D01*
X107677382Y-80980920D02*
X107658334Y-80990443D01*
X107658334Y-80990443D02*
X107582144Y-80990443D01*
X107582144Y-80990443D02*
X107582144Y-80790443D01*
X107582144Y-80790443D02*
X107648810Y-80790443D01*
X107648810Y-80790443D02*
X107667858Y-80799967D01*
X107667858Y-80799967D02*
X107677382Y-80809491D01*
X107677382Y-80809491D02*
X107686905Y-80828539D01*
X107686905Y-80828539D02*
X107686905Y-80847586D01*
X107686905Y-80847586D02*
X107677382Y-80866634D01*
X107677382Y-80866634D02*
X107667858Y-80876158D01*
X107667858Y-80876158D02*
X107648810Y-80885681D01*
X107648810Y-80885681D02*
X107582144Y-80885681D01*
X107858334Y-80980920D02*
X107839286Y-80990443D01*
X107839286Y-80990443D02*
X107801191Y-80990443D01*
X107801191Y-80990443D02*
X107782144Y-80980920D01*
X107782144Y-80980920D02*
X107772620Y-80961872D01*
X107772620Y-80961872D02*
X107772620Y-80885681D01*
X107772620Y-80885681D02*
X107782144Y-80866634D01*
X107782144Y-80866634D02*
X107801191Y-80857110D01*
X107801191Y-80857110D02*
X107839286Y-80857110D01*
X107839286Y-80857110D02*
X107858334Y-80866634D01*
X107858334Y-80866634D02*
X107867858Y-80885681D01*
X107867858Y-80885681D02*
X107867858Y-80904729D01*
X107867858Y-80904729D02*
X107772620Y-80923777D01*
X107982144Y-80990443D02*
X107963096Y-80980920D01*
X107963096Y-80980920D02*
X107953573Y-80961872D01*
X107953573Y-80961872D02*
X107953573Y-80790443D01*
X108086906Y-80990443D02*
X108067858Y-80980920D01*
X108067858Y-80980920D02*
X108058335Y-80971396D01*
X108058335Y-80971396D02*
X108048811Y-80952348D01*
X108048811Y-80952348D02*
X108048811Y-80895205D01*
X108048811Y-80895205D02*
X108058335Y-80876158D01*
X108058335Y-80876158D02*
X108067858Y-80866634D01*
X108067858Y-80866634D02*
X108086906Y-80857110D01*
X108086906Y-80857110D02*
X108115477Y-80857110D01*
X108115477Y-80857110D02*
X108134525Y-80866634D01*
X108134525Y-80866634D02*
X108144049Y-80876158D01*
X108144049Y-80876158D02*
X108153573Y-80895205D01*
X108153573Y-80895205D02*
X108153573Y-80952348D01*
X108153573Y-80952348D02*
X108144049Y-80971396D01*
X108144049Y-80971396D02*
X108134525Y-80980920D01*
X108134525Y-80980920D02*
X108115477Y-80990443D01*
X108115477Y-80990443D02*
X108086906Y-80990443D01*
X108220239Y-80857110D02*
X108258334Y-80990443D01*
X108258334Y-80990443D02*
X108296429Y-80895205D01*
X108296429Y-80895205D02*
X108334525Y-80990443D01*
X108334525Y-80990443D02*
X108372620Y-80857110D01*
X106705953Y-81740443D02*
X106705953Y-81540443D01*
X106820238Y-81740443D02*
X106734524Y-81626158D01*
X106820238Y-81540443D02*
X106705953Y-81654729D01*
X106905953Y-81635681D02*
X106972619Y-81635681D01*
X107001191Y-81740443D02*
X106905953Y-81740443D01*
X106905953Y-81740443D02*
X106905953Y-81540443D01*
X106905953Y-81540443D02*
X107001191Y-81540443D01*
X107086905Y-81635681D02*
X107153571Y-81635681D01*
X107182143Y-81740443D02*
X107086905Y-81740443D01*
X107086905Y-81740443D02*
X107086905Y-81540443D01*
X107086905Y-81540443D02*
X107182143Y-81540443D01*
X107267857Y-81740443D02*
X107267857Y-81540443D01*
X107267857Y-81540443D02*
X107344047Y-81540443D01*
X107344047Y-81540443D02*
X107363095Y-81549967D01*
X107363095Y-81549967D02*
X107372618Y-81559491D01*
X107372618Y-81559491D02*
X107382142Y-81578539D01*
X107382142Y-81578539D02*
X107382142Y-81607110D01*
X107382142Y-81607110D02*
X107372618Y-81626158D01*
X107372618Y-81626158D02*
X107363095Y-81635681D01*
X107363095Y-81635681D02*
X107344047Y-81645205D01*
X107344047Y-81645205D02*
X107267857Y-81645205D01*
X107505952Y-81540443D02*
X107544047Y-81540443D01*
X107544047Y-81540443D02*
X107563095Y-81549967D01*
X107563095Y-81549967D02*
X107582142Y-81569015D01*
X107582142Y-81569015D02*
X107591666Y-81607110D01*
X107591666Y-81607110D02*
X107591666Y-81673777D01*
X107591666Y-81673777D02*
X107582142Y-81711872D01*
X107582142Y-81711872D02*
X107563095Y-81730920D01*
X107563095Y-81730920D02*
X107544047Y-81740443D01*
X107544047Y-81740443D02*
X107505952Y-81740443D01*
X107505952Y-81740443D02*
X107486904Y-81730920D01*
X107486904Y-81730920D02*
X107467857Y-81711872D01*
X107467857Y-81711872D02*
X107458333Y-81673777D01*
X107458333Y-81673777D02*
X107458333Y-81607110D01*
X107458333Y-81607110D02*
X107467857Y-81569015D01*
X107467857Y-81569015D02*
X107486904Y-81549967D01*
X107486904Y-81549967D02*
X107505952Y-81540443D01*
X107677381Y-81540443D02*
X107677381Y-81702348D01*
X107677381Y-81702348D02*
X107686904Y-81721396D01*
X107686904Y-81721396D02*
X107696428Y-81730920D01*
X107696428Y-81730920D02*
X107715476Y-81740443D01*
X107715476Y-81740443D02*
X107753571Y-81740443D01*
X107753571Y-81740443D02*
X107772619Y-81730920D01*
X107772619Y-81730920D02*
X107782142Y-81721396D01*
X107782142Y-81721396D02*
X107791666Y-81702348D01*
X107791666Y-81702348D02*
X107791666Y-81540443D01*
X107858333Y-81540443D02*
X107972619Y-81540443D01*
X107915476Y-81740443D02*
X107915476Y-81540443D01*
M02*
