%TF.GenerationSoftware,KiCad,Pcbnew,8.0.4*%
%TF.CreationDate,2024-09-26T12:10:35+10:00*%
%TF.ProjectId,OuchButtonV2,4f756368-4275-4747-946f-6e56322e6b69,rev?*%
%TF.SameCoordinates,Original*%
%TF.FileFunction,Copper,L2,Inr*%
%TF.FilePolarity,Positive*%
%FSLAX46Y46*%
G04 Gerber Fmt 4.6, Leading zero omitted, Abs format (unit mm)*
G04 Created by KiCad (PCBNEW 8.0.4) date 2024-09-26 12:10:35*
%MOMM*%
%LPD*%
G01*
G04 APERTURE LIST*
G04 Aperture macros list*
%AMRoundRect*
0 Rectangle with rounded corners*
0 $1 Rounding radius*
0 $2 $3 $4 $5 $6 $7 $8 $9 X,Y pos of 4 corners*
0 Add a 4 corners polygon primitive as box body*
4,1,4,$2,$3,$4,$5,$6,$7,$8,$9,$2,$3,0*
0 Add four circle primitives for the rounded corners*
1,1,$1+$1,$2,$3*
1,1,$1+$1,$4,$5*
1,1,$1+$1,$6,$7*
1,1,$1+$1,$8,$9*
0 Add four rect primitives between the rounded corners*
20,1,$1+$1,$2,$3,$4,$5,0*
20,1,$1+$1,$4,$5,$6,$7,0*
20,1,$1+$1,$6,$7,$8,$9,0*
20,1,$1+$1,$8,$9,$2,$3,0*%
G04 Aperture macros list end*
%TA.AperFunction,ComponentPad*%
%ADD10RoundRect,0.250000X-0.550000X0.550000X-0.550000X-0.550000X0.550000X-0.550000X0.550000X0.550000X0*%
%TD*%
%TA.AperFunction,ComponentPad*%
%ADD11C,1.600000*%
%TD*%
%TA.AperFunction,ComponentPad*%
%ADD12C,0.850000*%
%TD*%
%TA.AperFunction,ComponentPad*%
%ADD13O,2.050000X0.550000*%
%TD*%
%TA.AperFunction,ViaPad*%
%ADD14C,0.600000*%
%TD*%
%TA.AperFunction,ViaPad*%
%ADD15C,0.300000*%
%TD*%
G04 APERTURE END LIST*
D10*
%TO.N,VBATT*%
%TO.C,J_BATT1*%
X83150000Y-82775000D03*
D11*
%TO.N,GND*%
X83150000Y-86375000D03*
%TD*%
D12*
%TO.N,Net-(J1-SHIELD)*%
%TO.C,J1*%
X78690000Y-82605000D03*
D13*
X75710000Y-82605000D03*
D12*
X78690000Y-91795000D03*
D13*
X75710000Y-91795000D03*
%TD*%
D14*
%TO.N,GND*%
X92760000Y-106950000D03*
X85500000Y-100500000D03*
X112580000Y-78280000D03*
X75750000Y-77120000D03*
X88366626Y-84128096D03*
X78050000Y-83800000D03*
X109430000Y-92950000D03*
X113275000Y-104650000D03*
X97150000Y-110775000D03*
X93950000Y-83650000D03*
X98870000Y-77130000D03*
X83125000Y-99540000D03*
X73975000Y-97425000D03*
X85475000Y-111700000D03*
X112720000Y-98050000D03*
X78100000Y-77100000D03*
X81150000Y-99550000D03*
X83000000Y-98000000D03*
X79028053Y-90103718D03*
X109920000Y-83530000D03*
X78500000Y-73500000D03*
X113225000Y-110050000D03*
X94300000Y-73850000D03*
X100600000Y-94075000D03*
X111560000Y-92600000D03*
X85075000Y-77150000D03*
X105200000Y-97575000D03*
X107325000Y-105225000D03*
X110650000Y-86350000D03*
X79175000Y-101525000D03*
X84500000Y-94000000D03*
X81150000Y-97575000D03*
X112570000Y-75980000D03*
X81150000Y-101525000D03*
X105500000Y-110950000D03*
X79175000Y-99550000D03*
X100030000Y-80120000D03*
X82833521Y-101628565D03*
X98630000Y-100460000D03*
X101350000Y-73275000D03*
X75225000Y-93025000D03*
X91450000Y-76300000D03*
X88050000Y-72875000D03*
X97450000Y-94000000D03*
X81025000Y-72000000D03*
%TO.N,VBATT*%
X80975000Y-84875000D03*
%TO.N,IO2{slash}BATT*%
X88275000Y-100375000D03*
%TO.N,+3V3*%
X112430000Y-86290000D03*
X101175000Y-105050000D03*
X102925000Y-95375000D03*
X108225000Y-72850000D03*
X110250000Y-78950000D03*
X102775000Y-89025000D03*
X110475000Y-103025000D03*
X85950000Y-81000000D03*
X97550000Y-106950000D03*
X88300000Y-101950000D03*
X79800000Y-92050000D03*
X85000000Y-96500000D03*
X96925000Y-74750000D03*
X74025000Y-102200000D03*
X99875000Y-74775000D03*
X83625000Y-73625000D03*
X106075000Y-76925000D03*
%TO.N,EN*%
X88300000Y-97925000D03*
%TO.N,VCC_TX*%
X92725000Y-96300000D03*
X94975000Y-98100000D03*
%TO.N,VUSB*%
X78350000Y-85000000D03*
%TO.N,Net-(FL1-Pad1)*%
X104475000Y-88650000D03*
X100725000Y-91150000D03*
%TO.N,INP1*%
X96700000Y-91150001D03*
X102775000Y-93325000D03*
%TO.N,TX1*%
X91375000Y-88750000D03*
X90911765Y-96688235D03*
%TO.N,INM1*%
X91350000Y-91149999D03*
X97000000Y-92150000D03*
D15*
%TO.N,TX2*%
X105390000Y-95190000D03*
D14*
X91350000Y-93549999D03*
%TO.N,IO18{slash}LR*%
X76350000Y-93425000D03*
X88650000Y-85950000D03*
%TO.N,IO19{slash}WS*%
X76425000Y-95550752D03*
X88625000Y-86900000D03*
%TO.N,IO20{slash}SCK*%
X76745000Y-96745000D03*
X85425000Y-86500000D03*
%TO.N,IO14{slash}SD*%
X87500000Y-90700000D03*
X80350000Y-95900000D03*
%TO.N,Net-(J1-CC2)*%
X78350000Y-88600000D03*
%TO.N,Net-(J1-CC1)*%
X78350000Y-85800000D03*
%TO.N,IO7{slash}SCL*%
X106550000Y-84575000D03*
X103925000Y-84575000D03*
X82750000Y-95900000D03*
%TO.N,IO6{slash}SDA*%
X107325000Y-95975000D03*
X83550003Y-95900000D03*
X105475000Y-85225000D03*
X107175000Y-85225000D03*
X108525000Y-96000000D03*
%TO.N,IO21{slash}S1*%
X76610000Y-97720000D03*
X76250000Y-72900000D03*
%TO.N,Net-(U1-GPIO8)*%
X77950000Y-95900000D03*
%TO.N,IO22{slash}AFE_CLK*%
X76587500Y-98562500D03*
D15*
%TO.N,Net-(U8-CLK)*%
X104890000Y-95190000D03*
D14*
X89500000Y-105000000D03*
%TO.N,IO15{slash}AFE_RST*%
X106650000Y-93800000D03*
X79550000Y-95900000D03*
X111240000Y-90880000D03*
%TO.N,IO23{slash}TOUCH*%
X76400000Y-100000000D03*
%TO.N,IO3{slash}CHG*%
X90775000Y-77875000D03*
%TO.N,IO5{slash}SELECT*%
X97400000Y-87950000D03*
X99901471Y-92150000D03*
X88675000Y-89500000D03*
%TD*%
%TA.AperFunction,Conductor*%
%TO.N,+3V3*%
G36*
X74634731Y-71520185D02*
G01*
X74680486Y-71572989D01*
X74690430Y-71642147D01*
X74670794Y-71693391D01*
X74654228Y-71718182D01*
X74654221Y-71718195D01*
X74601421Y-71845667D01*
X74601418Y-71845677D01*
X74574500Y-71981004D01*
X74574500Y-71981007D01*
X74574500Y-72118993D01*
X74574500Y-72118995D01*
X74574499Y-72118995D01*
X74601418Y-72254322D01*
X74601421Y-72254332D01*
X74654221Y-72381804D01*
X74654228Y-72381817D01*
X74730885Y-72496541D01*
X74730888Y-72496545D01*
X74828454Y-72594111D01*
X74828458Y-72594114D01*
X74943182Y-72670771D01*
X74943195Y-72670778D01*
X75070667Y-72723578D01*
X75070672Y-72723580D01*
X75070676Y-72723580D01*
X75070677Y-72723581D01*
X75206004Y-72750500D01*
X75322524Y-72750500D01*
X75389563Y-72770185D01*
X75435318Y-72822989D01*
X75445743Y-72888384D01*
X75444435Y-72900000D01*
X75444435Y-72900001D01*
X75444435Y-72900003D01*
X75464630Y-73079249D01*
X75464631Y-73079254D01*
X75524211Y-73249523D01*
X75585924Y-73347738D01*
X75620184Y-73402262D01*
X75747738Y-73529816D01*
X75838080Y-73586582D01*
X75898461Y-73624522D01*
X75900478Y-73625789D01*
X75999299Y-73660368D01*
X76070745Y-73685368D01*
X76070750Y-73685369D01*
X76249996Y-73705565D01*
X76250000Y-73705565D01*
X76250004Y-73705565D01*
X76429249Y-73685369D01*
X76429252Y-73685368D01*
X76429255Y-73685368D01*
X76599522Y-73625789D01*
X76752262Y-73529816D01*
X76782082Y-73499996D01*
X77694435Y-73499996D01*
X77694435Y-73500003D01*
X77714630Y-73679249D01*
X77714631Y-73679254D01*
X77774211Y-73849523D01*
X77869258Y-74000788D01*
X77870184Y-74002262D01*
X77997738Y-74129816D01*
X78150478Y-74225789D01*
X78320745Y-74285368D01*
X78320750Y-74285369D01*
X78499996Y-74305565D01*
X78500000Y-74305565D01*
X78500004Y-74305565D01*
X78679249Y-74285369D01*
X78679252Y-74285368D01*
X78679255Y-74285368D01*
X78849522Y-74225789D01*
X79002262Y-74129816D01*
X79129816Y-74002262D01*
X79225491Y-73849996D01*
X93494435Y-73849996D01*
X93494435Y-73850003D01*
X93514630Y-74029249D01*
X93514631Y-74029254D01*
X93574211Y-74199523D01*
X93628152Y-74285369D01*
X93670184Y-74352262D01*
X93797738Y-74479816D01*
X93950478Y-74575789D01*
X94120745Y-74635368D01*
X94120750Y-74635369D01*
X94299996Y-74655565D01*
X94300000Y-74655565D01*
X94300004Y-74655565D01*
X94479249Y-74635369D01*
X94479252Y-74635368D01*
X94479255Y-74635368D01*
X94649522Y-74575789D01*
X94802262Y-74479816D01*
X94929816Y-74352262D01*
X95025789Y-74199522D01*
X95085368Y-74029255D01*
X95085369Y-74029249D01*
X95105565Y-73850003D01*
X95105565Y-73849996D01*
X95085369Y-73670750D01*
X95085368Y-73670745D01*
X95027307Y-73504816D01*
X95025789Y-73500478D01*
X94929816Y-73347738D01*
X94857074Y-73274996D01*
X100544435Y-73274996D01*
X100544435Y-73275003D01*
X100564630Y-73454249D01*
X100564631Y-73454254D01*
X100624211Y-73624523D01*
X100720184Y-73777262D01*
X100847738Y-73904816D01*
X101000478Y-74000789D01*
X101170745Y-74060368D01*
X101170750Y-74060369D01*
X101349996Y-74080565D01*
X101350000Y-74080565D01*
X101350004Y-74080565D01*
X101529249Y-74060369D01*
X101529252Y-74060368D01*
X101529255Y-74060368D01*
X101699522Y-74000789D01*
X101852262Y-73904816D01*
X101979816Y-73777262D01*
X102075789Y-73624522D01*
X102135368Y-73454255D01*
X102144043Y-73377262D01*
X102155565Y-73275003D01*
X102155565Y-73274996D01*
X102135369Y-73095750D01*
X102135368Y-73095745D01*
X102101074Y-72997738D01*
X102075789Y-72925478D01*
X101979816Y-72772738D01*
X101852262Y-72645184D01*
X101827804Y-72629816D01*
X101699523Y-72549211D01*
X101529254Y-72489631D01*
X101529249Y-72489630D01*
X101350004Y-72469435D01*
X101349996Y-72469435D01*
X101170750Y-72489630D01*
X101170745Y-72489631D01*
X101000476Y-72549211D01*
X100847737Y-72645184D01*
X100720184Y-72772737D01*
X100624211Y-72925476D01*
X100564631Y-73095745D01*
X100564630Y-73095750D01*
X100544435Y-73274996D01*
X94857074Y-73274996D01*
X94802262Y-73220184D01*
X94691326Y-73150478D01*
X94649523Y-73124211D01*
X94479254Y-73064631D01*
X94479249Y-73064630D01*
X94300004Y-73044435D01*
X94299996Y-73044435D01*
X94120750Y-73064630D01*
X94120745Y-73064631D01*
X93950476Y-73124211D01*
X93797737Y-73220184D01*
X93670184Y-73347737D01*
X93574211Y-73500476D01*
X93514631Y-73670745D01*
X93514630Y-73670750D01*
X93494435Y-73849996D01*
X79225491Y-73849996D01*
X79225789Y-73849522D01*
X79285368Y-73679255D01*
X79285369Y-73679249D01*
X79305565Y-73500003D01*
X79305565Y-73499996D01*
X79285369Y-73320750D01*
X79285368Y-73320745D01*
X79225788Y-73150476D01*
X79129815Y-72997737D01*
X79007074Y-72874996D01*
X87244435Y-72874996D01*
X87244435Y-72875003D01*
X87264630Y-73054249D01*
X87264631Y-73054254D01*
X87324211Y-73224523D01*
X87339920Y-73249523D01*
X87420184Y-73377262D01*
X87547738Y-73504816D01*
X87700478Y-73600789D01*
X87771924Y-73625789D01*
X87870745Y-73660368D01*
X87870750Y-73660369D01*
X88049996Y-73680565D01*
X88050000Y-73680565D01*
X88050004Y-73680565D01*
X88229249Y-73660369D01*
X88229252Y-73660368D01*
X88229255Y-73660368D01*
X88399522Y-73600789D01*
X88552262Y-73504816D01*
X88679816Y-73377262D01*
X88775789Y-73224522D01*
X88835368Y-73054255D01*
X88835369Y-73054249D01*
X88855565Y-72875003D01*
X88855565Y-72874996D01*
X88835369Y-72695750D01*
X88835368Y-72695745D01*
X88797338Y-72587062D01*
X88775789Y-72525478D01*
X88761201Y-72502262D01*
X88736582Y-72463080D01*
X88679816Y-72372738D01*
X88552262Y-72245184D01*
X88447337Y-72179255D01*
X88399523Y-72149211D01*
X88229254Y-72089631D01*
X88229249Y-72089630D01*
X88050004Y-72069435D01*
X88049996Y-72069435D01*
X87870750Y-72089630D01*
X87870745Y-72089631D01*
X87700476Y-72149211D01*
X87547737Y-72245184D01*
X87420184Y-72372737D01*
X87324211Y-72525476D01*
X87264631Y-72695745D01*
X87264630Y-72695750D01*
X87244435Y-72874996D01*
X79007074Y-72874996D01*
X79002262Y-72870184D01*
X78849523Y-72774211D01*
X78679254Y-72714631D01*
X78679249Y-72714630D01*
X78500004Y-72694435D01*
X78499996Y-72694435D01*
X78320750Y-72714630D01*
X78320745Y-72714631D01*
X78150476Y-72774211D01*
X77997737Y-72870184D01*
X77870184Y-72997737D01*
X77774211Y-73150476D01*
X77714631Y-73320745D01*
X77714630Y-73320750D01*
X77694435Y-73499996D01*
X76782082Y-73499996D01*
X76879816Y-73402262D01*
X76975789Y-73249522D01*
X77035368Y-73079255D01*
X77038185Y-73054254D01*
X77055565Y-72900003D01*
X77055565Y-72900001D01*
X77054256Y-72888387D01*
X77066309Y-72819565D01*
X77113657Y-72768184D01*
X77177476Y-72750500D01*
X77293995Y-72750500D01*
X77385041Y-72732389D01*
X77429328Y-72723580D01*
X77556811Y-72670775D01*
X77671542Y-72594114D01*
X77769114Y-72496542D01*
X77845775Y-72381811D01*
X77898580Y-72254328D01*
X77925500Y-72118993D01*
X77925500Y-71981007D01*
X77925500Y-71981004D01*
X77898581Y-71845677D01*
X77898580Y-71845676D01*
X77898580Y-71845672D01*
X77880695Y-71802494D01*
X77845778Y-71718195D01*
X77845771Y-71718182D01*
X77829206Y-71693391D01*
X77808328Y-71626714D01*
X77826812Y-71559334D01*
X77878791Y-71512643D01*
X77932308Y-71500500D01*
X80176928Y-71500500D01*
X80243967Y-71520185D01*
X80289722Y-71572989D01*
X80299666Y-71642147D01*
X80293970Y-71665454D01*
X80239632Y-71820742D01*
X80239630Y-71820750D01*
X80219435Y-71999996D01*
X80219435Y-72000003D01*
X80239630Y-72179249D01*
X80239631Y-72179254D01*
X80299211Y-72349523D01*
X80359860Y-72446044D01*
X80395184Y-72502262D01*
X80522738Y-72629816D01*
X80587924Y-72670775D01*
X80657721Y-72714632D01*
X80675478Y-72725789D01*
X80809648Y-72772737D01*
X80845745Y-72785368D01*
X80845750Y-72785369D01*
X81024996Y-72805565D01*
X81025000Y-72805565D01*
X81025004Y-72805565D01*
X81204249Y-72785369D01*
X81204252Y-72785368D01*
X81204255Y-72785368D01*
X81374522Y-72725789D01*
X81527262Y-72629816D01*
X81654816Y-72502262D01*
X81750789Y-72349522D01*
X81810368Y-72179255D01*
X81810674Y-72176539D01*
X81830565Y-72000003D01*
X81830565Y-71999996D01*
X81810369Y-71820750D01*
X81810367Y-71820742D01*
X81756030Y-71665454D01*
X81752469Y-71595676D01*
X81787198Y-71535048D01*
X81849191Y-71502821D01*
X81873072Y-71500500D01*
X82287957Y-71500500D01*
X82354996Y-71520185D01*
X82400751Y-71572989D01*
X82404209Y-71582072D01*
X82404265Y-71582051D01*
X82405960Y-71586370D01*
X82510035Y-71802485D01*
X82510040Y-71802494D01*
X82645170Y-72000694D01*
X82808331Y-72176539D01*
X82995878Y-72326103D01*
X83203622Y-72446044D01*
X83426921Y-72533683D01*
X83660789Y-72587062D01*
X83729135Y-72592183D01*
X83899995Y-72604988D01*
X83900000Y-72604988D01*
X83900005Y-72604988D01*
X84049506Y-72593784D01*
X84139211Y-72587062D01*
X84373079Y-72533683D01*
X84596378Y-72446044D01*
X84804122Y-72326103D01*
X84991669Y-72176539D01*
X85154830Y-72000694D01*
X85289960Y-71802494D01*
X85394041Y-71586368D01*
X85394045Y-71586353D01*
X85395735Y-71582051D01*
X85397105Y-71582588D01*
X85432110Y-71529702D01*
X85496050Y-71501536D01*
X85512043Y-71500500D01*
X109137957Y-71500500D01*
X109204996Y-71520185D01*
X109250751Y-71572989D01*
X109254209Y-71582072D01*
X109254265Y-71582051D01*
X109255960Y-71586370D01*
X109360035Y-71802485D01*
X109360040Y-71802494D01*
X109495170Y-72000694D01*
X109658331Y-72176539D01*
X109845878Y-72326103D01*
X110053622Y-72446044D01*
X110276921Y-72533683D01*
X110510789Y-72587062D01*
X110579135Y-72592183D01*
X110749995Y-72604988D01*
X110750000Y-72604988D01*
X110750005Y-72604988D01*
X110899506Y-72593784D01*
X110989211Y-72587062D01*
X111223079Y-72533683D01*
X111446378Y-72446044D01*
X111654122Y-72326103D01*
X111841669Y-72176539D01*
X112004830Y-72000694D01*
X112139960Y-71802494D01*
X112244041Y-71586368D01*
X112244045Y-71586353D01*
X112245735Y-71582051D01*
X112247105Y-71582588D01*
X112282110Y-71529702D01*
X112346050Y-71501536D01*
X112362043Y-71500500D01*
X114375500Y-71500500D01*
X114442539Y-71520185D01*
X114488294Y-71572989D01*
X114499500Y-71624500D01*
X114499500Y-111875500D01*
X114479815Y-111942539D01*
X114427011Y-111988294D01*
X114375500Y-111999500D01*
X112362043Y-111999500D01*
X112295004Y-111979815D01*
X112249249Y-111927011D01*
X112245790Y-111917927D01*
X112245735Y-111917949D01*
X112244044Y-111913641D01*
X112244041Y-111913632D01*
X112158193Y-111735368D01*
X112139964Y-111697514D01*
X112139959Y-111697505D01*
X112004830Y-111499306D01*
X111841669Y-111323461D01*
X111811650Y-111299522D01*
X111783737Y-111277262D01*
X111654122Y-111173897D01*
X111446378Y-111053956D01*
X111446372Y-111053953D01*
X111223084Y-110966319D01*
X111223079Y-110966317D01*
X111223070Y-110966315D01*
X111223067Y-110966314D01*
X110989208Y-110912937D01*
X110750005Y-110895012D01*
X110749995Y-110895012D01*
X110510791Y-110912937D01*
X110276932Y-110966314D01*
X110276924Y-110966316D01*
X110276921Y-110966317D01*
X110276918Y-110966317D01*
X110276915Y-110966319D01*
X110053627Y-111053953D01*
X110053619Y-111053957D01*
X109845878Y-111173897D01*
X109658331Y-111323460D01*
X109658329Y-111323463D01*
X109495168Y-111499308D01*
X109360040Y-111697505D01*
X109360035Y-111697514D01*
X109255960Y-111913629D01*
X109254265Y-111917949D01*
X109252894Y-111917411D01*
X109217890Y-111970298D01*
X109153950Y-111998464D01*
X109137957Y-111999500D01*
X105543043Y-111999500D01*
X105500101Y-111986890D01*
X105478351Y-111997640D01*
X105456957Y-111999500D01*
X93312043Y-111999500D01*
X93245004Y-111979815D01*
X93199249Y-111927011D01*
X93195790Y-111917927D01*
X93195735Y-111917949D01*
X93194044Y-111913641D01*
X93194041Y-111913632D01*
X93108193Y-111735368D01*
X93089964Y-111697514D01*
X93089959Y-111697505D01*
X92954830Y-111499306D01*
X92791669Y-111323461D01*
X92761650Y-111299522D01*
X92733737Y-111277262D01*
X92604122Y-111173897D01*
X92396378Y-111053956D01*
X92396372Y-111053953D01*
X92173084Y-110966319D01*
X92173079Y-110966317D01*
X92173070Y-110966315D01*
X92173067Y-110966314D01*
X91939208Y-110912937D01*
X91700005Y-110895012D01*
X91699995Y-110895012D01*
X91460791Y-110912937D01*
X91226932Y-110966314D01*
X91226924Y-110966316D01*
X91226921Y-110966317D01*
X91226918Y-110966317D01*
X91226915Y-110966319D01*
X91003627Y-111053953D01*
X91003619Y-111053957D01*
X90795878Y-111173897D01*
X90608331Y-111323460D01*
X90608329Y-111323463D01*
X90445168Y-111499308D01*
X90310040Y-111697505D01*
X90310035Y-111697514D01*
X90205960Y-111913629D01*
X90204265Y-111917949D01*
X90202894Y-111917411D01*
X90167890Y-111970298D01*
X90103950Y-111998464D01*
X90087957Y-111999500D01*
X86385576Y-111999500D01*
X86318537Y-111979815D01*
X86272782Y-111927011D01*
X86262356Y-111861617D01*
X86280565Y-111700003D01*
X86280565Y-111699996D01*
X86260369Y-111520750D01*
X86260368Y-111520745D01*
X86236405Y-111452262D01*
X86200789Y-111350478D01*
X86183812Y-111323460D01*
X86104815Y-111197737D01*
X85977262Y-111070184D01*
X85824523Y-110974211D01*
X85654254Y-110914631D01*
X85654249Y-110914630D01*
X85475004Y-110894435D01*
X85474996Y-110894435D01*
X85295750Y-110914630D01*
X85295745Y-110914631D01*
X85125476Y-110974211D01*
X84972737Y-111070184D01*
X84845184Y-111197737D01*
X84749211Y-111350476D01*
X84689631Y-111520745D01*
X84689630Y-111520750D01*
X84669435Y-111699996D01*
X84669435Y-111700003D01*
X84687644Y-111861617D01*
X84675589Y-111930439D01*
X84628240Y-111981818D01*
X84564424Y-111999500D01*
X80812043Y-111999500D01*
X80745004Y-111979815D01*
X80699249Y-111927011D01*
X80695790Y-111917927D01*
X80695735Y-111917949D01*
X80694044Y-111913641D01*
X80694041Y-111913632D01*
X80608193Y-111735368D01*
X80589964Y-111697514D01*
X80589959Y-111697505D01*
X80454830Y-111499306D01*
X80291669Y-111323461D01*
X80261650Y-111299522D01*
X80233737Y-111277262D01*
X80104122Y-111173897D01*
X79896378Y-111053956D01*
X79896372Y-111053953D01*
X79673084Y-110966319D01*
X79673079Y-110966317D01*
X79673070Y-110966315D01*
X79673067Y-110966314D01*
X79439208Y-110912937D01*
X79200005Y-110895012D01*
X79199995Y-110895012D01*
X78960791Y-110912937D01*
X78726932Y-110966314D01*
X78726924Y-110966316D01*
X78726921Y-110966317D01*
X78726918Y-110966317D01*
X78726915Y-110966319D01*
X78503627Y-111053953D01*
X78503619Y-111053957D01*
X78295878Y-111173897D01*
X78108331Y-111323460D01*
X78108329Y-111323463D01*
X77945168Y-111499308D01*
X77810040Y-111697505D01*
X77810035Y-111697514D01*
X77705960Y-111913629D01*
X77704265Y-111917949D01*
X77702894Y-111917411D01*
X77667890Y-111970298D01*
X77603950Y-111998464D01*
X77587957Y-111999500D01*
X73624500Y-111999500D01*
X73557461Y-111979815D01*
X73511706Y-111927011D01*
X73500500Y-111875500D01*
X73500500Y-110774996D01*
X96344435Y-110774996D01*
X96344435Y-110775003D01*
X96364630Y-110954249D01*
X96364631Y-110954254D01*
X96424211Y-111124523D01*
X96520184Y-111277262D01*
X96647738Y-111404816D01*
X96723248Y-111452262D01*
X96798117Y-111499306D01*
X96800478Y-111500789D01*
X96970745Y-111560368D01*
X96970750Y-111560369D01*
X97149996Y-111580565D01*
X97150000Y-111580565D01*
X97150004Y-111580565D01*
X97329249Y-111560369D01*
X97329252Y-111560368D01*
X97329255Y-111560368D01*
X97499522Y-111500789D01*
X97652262Y-111404816D01*
X97779816Y-111277262D01*
X97875789Y-111124522D01*
X97935368Y-110954255D01*
X97935847Y-110950003D01*
X97935848Y-110949996D01*
X104694435Y-110949996D01*
X104694435Y-110950003D01*
X104714630Y-111129249D01*
X104714631Y-111129254D01*
X104774211Y-111299523D01*
X104870184Y-111452262D01*
X104997738Y-111579816D01*
X105150478Y-111675789D01*
X105219678Y-111700003D01*
X105320745Y-111735368D01*
X105320750Y-111735369D01*
X105470840Y-111752280D01*
X105497366Y-111763426D01*
X105508108Y-111756523D01*
X105529160Y-111752280D01*
X105679249Y-111735369D01*
X105679252Y-111735368D01*
X105679255Y-111735368D01*
X105849522Y-111675789D01*
X106002262Y-111579816D01*
X106129816Y-111452262D01*
X106225789Y-111299522D01*
X106285368Y-111129255D01*
X106285901Y-111124523D01*
X106305565Y-110950003D01*
X106305565Y-110949996D01*
X106285369Y-110770750D01*
X106285368Y-110770745D01*
X106225789Y-110600478D01*
X106129816Y-110447738D01*
X106002262Y-110320184D01*
X105849523Y-110224211D01*
X105679254Y-110164631D01*
X105679249Y-110164630D01*
X105500004Y-110144435D01*
X105499996Y-110144435D01*
X105320750Y-110164630D01*
X105320745Y-110164631D01*
X105150476Y-110224211D01*
X104997737Y-110320184D01*
X104870184Y-110447737D01*
X104774211Y-110600476D01*
X104714631Y-110770745D01*
X104714630Y-110770750D01*
X104694435Y-110949996D01*
X97935848Y-110949996D01*
X97955565Y-110775003D01*
X97955565Y-110774996D01*
X97935369Y-110595750D01*
X97935368Y-110595745D01*
X97875788Y-110425476D01*
X97779815Y-110272737D01*
X97652262Y-110145184D01*
X97500772Y-110049996D01*
X112419435Y-110049996D01*
X112419435Y-110050003D01*
X112439630Y-110229249D01*
X112439631Y-110229254D01*
X112499211Y-110399523D01*
X112529507Y-110447738D01*
X112595184Y-110552262D01*
X112722738Y-110679816D01*
X112813080Y-110736582D01*
X112867450Y-110770745D01*
X112875478Y-110775789D01*
X113045745Y-110835368D01*
X113045750Y-110835369D01*
X113224996Y-110855565D01*
X113225000Y-110855565D01*
X113225004Y-110855565D01*
X113404249Y-110835369D01*
X113404252Y-110835368D01*
X113404255Y-110835368D01*
X113574522Y-110775789D01*
X113727262Y-110679816D01*
X113854816Y-110552262D01*
X113950789Y-110399522D01*
X114010368Y-110229255D01*
X114010369Y-110229249D01*
X114030565Y-110050003D01*
X114030565Y-110049996D01*
X114010369Y-109870750D01*
X114010368Y-109870745D01*
X113950788Y-109700476D01*
X113854815Y-109547737D01*
X113727262Y-109420184D01*
X113574523Y-109324211D01*
X113404254Y-109264631D01*
X113404249Y-109264630D01*
X113225004Y-109244435D01*
X113224996Y-109244435D01*
X113045750Y-109264630D01*
X113045745Y-109264631D01*
X112875476Y-109324211D01*
X112722737Y-109420184D01*
X112595184Y-109547737D01*
X112499211Y-109700476D01*
X112439631Y-109870745D01*
X112439630Y-109870750D01*
X112419435Y-110049996D01*
X97500772Y-110049996D01*
X97499523Y-110049211D01*
X97329254Y-109989631D01*
X97329249Y-109989630D01*
X97150004Y-109969435D01*
X97149996Y-109969435D01*
X96970750Y-109989630D01*
X96970745Y-109989631D01*
X96800476Y-110049211D01*
X96647737Y-110145184D01*
X96520184Y-110272737D01*
X96424211Y-110425476D01*
X96364631Y-110595745D01*
X96364630Y-110595750D01*
X96344435Y-110774996D01*
X73500500Y-110774996D01*
X73500500Y-110550000D01*
X74550000Y-110550000D01*
X87750000Y-110550000D01*
X87750000Y-106949996D01*
X91954435Y-106949996D01*
X91954435Y-106950003D01*
X91974630Y-107129249D01*
X91974631Y-107129254D01*
X92034211Y-107299523D01*
X92130184Y-107452262D01*
X92257738Y-107579816D01*
X92410478Y-107675789D01*
X92580745Y-107735368D01*
X92580750Y-107735369D01*
X92759996Y-107755565D01*
X92760000Y-107755565D01*
X92760004Y-107755565D01*
X92939249Y-107735369D01*
X92939252Y-107735368D01*
X92939255Y-107735368D01*
X93109522Y-107675789D01*
X93262262Y-107579816D01*
X93389816Y-107452262D01*
X93485789Y-107299522D01*
X93545368Y-107129255D01*
X93565565Y-106950000D01*
X93545368Y-106770745D01*
X93485789Y-106600478D01*
X93389816Y-106447738D01*
X93262262Y-106320184D01*
X93109523Y-106224211D01*
X92939254Y-106164631D01*
X92939249Y-106164630D01*
X92760004Y-106144435D01*
X92759996Y-106144435D01*
X92580750Y-106164630D01*
X92580745Y-106164631D01*
X92410476Y-106224211D01*
X92257737Y-106320184D01*
X92130184Y-106447737D01*
X92034211Y-106600476D01*
X91974631Y-106770745D01*
X91974630Y-106770750D01*
X91954435Y-106949996D01*
X87750000Y-106949996D01*
X87750000Y-105150000D01*
X74550000Y-105150000D01*
X74550000Y-110550000D01*
X73500500Y-110550000D01*
X73500500Y-104999996D01*
X88694435Y-104999996D01*
X88694435Y-105000003D01*
X88714630Y-105179249D01*
X88714631Y-105179254D01*
X88774211Y-105349523D01*
X88828152Y-105435369D01*
X88870184Y-105502262D01*
X88997738Y-105629816D01*
X89150478Y-105725789D01*
X89154688Y-105727262D01*
X89320745Y-105785368D01*
X89320750Y-105785369D01*
X89499996Y-105805565D01*
X89500000Y-105805565D01*
X89500004Y-105805565D01*
X89679249Y-105785369D01*
X89679252Y-105785368D01*
X89679255Y-105785368D01*
X89849522Y-105725789D01*
X90002262Y-105629816D01*
X90129816Y-105502262D01*
X90225789Y-105349522D01*
X90269363Y-105224996D01*
X106519435Y-105224996D01*
X106519435Y-105225003D01*
X106539630Y-105404249D01*
X106539631Y-105404254D01*
X106599211Y-105574523D01*
X106694258Y-105725788D01*
X106695184Y-105727262D01*
X106822738Y-105854816D01*
X106975478Y-105950789D01*
X107145745Y-106010368D01*
X107145750Y-106010369D01*
X107324996Y-106030565D01*
X107325000Y-106030565D01*
X107325004Y-106030565D01*
X107504249Y-106010369D01*
X107504252Y-106010368D01*
X107504255Y-106010368D01*
X107674522Y-105950789D01*
X107827262Y-105854816D01*
X107954816Y-105727262D01*
X108050789Y-105574522D01*
X108110368Y-105404255D01*
X108110369Y-105404249D01*
X108130565Y-105225003D01*
X108130565Y-105224996D01*
X108110369Y-105045750D01*
X108110368Y-105045745D01*
X108050788Y-104875476D01*
X107954815Y-104722737D01*
X107882074Y-104649996D01*
X112469435Y-104649996D01*
X112469435Y-104650003D01*
X112489630Y-104829249D01*
X112489631Y-104829254D01*
X112549211Y-104999523D01*
X112578258Y-105045750D01*
X112645184Y-105152262D01*
X112772738Y-105279816D01*
X112925478Y-105375789D01*
X113095745Y-105435368D01*
X113095750Y-105435369D01*
X113274996Y-105455565D01*
X113275000Y-105455565D01*
X113275004Y-105455565D01*
X113454249Y-105435369D01*
X113454252Y-105435368D01*
X113454255Y-105435368D01*
X113624522Y-105375789D01*
X113777262Y-105279816D01*
X113904816Y-105152262D01*
X114000789Y-104999522D01*
X114060368Y-104829255D01*
X114060369Y-104829249D01*
X114080565Y-104650003D01*
X114080565Y-104649996D01*
X114060369Y-104470750D01*
X114060368Y-104470745D01*
X114000788Y-104300476D01*
X113904815Y-104147737D01*
X113777262Y-104020184D01*
X113624523Y-103924211D01*
X113454254Y-103864631D01*
X113454249Y-103864630D01*
X113275004Y-103844435D01*
X113274996Y-103844435D01*
X113095750Y-103864630D01*
X113095745Y-103864631D01*
X112925476Y-103924211D01*
X112772737Y-104020184D01*
X112645184Y-104147737D01*
X112549211Y-104300476D01*
X112489631Y-104470745D01*
X112489630Y-104470750D01*
X112469435Y-104649996D01*
X107882074Y-104649996D01*
X107827262Y-104595184D01*
X107674523Y-104499211D01*
X107504254Y-104439631D01*
X107504249Y-104439630D01*
X107325004Y-104419435D01*
X107324996Y-104419435D01*
X107145750Y-104439630D01*
X107145745Y-104439631D01*
X106975476Y-104499211D01*
X106822737Y-104595184D01*
X106695184Y-104722737D01*
X106599211Y-104875476D01*
X106539631Y-105045745D01*
X106539630Y-105045750D01*
X106519435Y-105224996D01*
X90269363Y-105224996D01*
X90285368Y-105179255D01*
X90285369Y-105179249D01*
X90305565Y-105000003D01*
X90305565Y-104999996D01*
X90285369Y-104820750D01*
X90285368Y-104820745D01*
X90251074Y-104722738D01*
X90225789Y-104650478D01*
X90129816Y-104497738D01*
X90002262Y-104370184D01*
X89891326Y-104300478D01*
X89849523Y-104274211D01*
X89679254Y-104214631D01*
X89679249Y-104214630D01*
X89500004Y-104194435D01*
X89499996Y-104194435D01*
X89320750Y-104214630D01*
X89320745Y-104214631D01*
X89150476Y-104274211D01*
X88997737Y-104370184D01*
X88870184Y-104497737D01*
X88774211Y-104650476D01*
X88714631Y-104820745D01*
X88714630Y-104820750D01*
X88694435Y-104999996D01*
X73500500Y-104999996D01*
X73500500Y-101524996D01*
X78369435Y-101524996D01*
X78369435Y-101525003D01*
X78389630Y-101704249D01*
X78389631Y-101704254D01*
X78449211Y-101874523D01*
X78514283Y-101978084D01*
X78545184Y-102027262D01*
X78672738Y-102154816D01*
X78825478Y-102250789D01*
X78847175Y-102258381D01*
X78995745Y-102310368D01*
X78995750Y-102310369D01*
X79174996Y-102330565D01*
X79175000Y-102330565D01*
X79175004Y-102330565D01*
X79354249Y-102310369D01*
X79354252Y-102310368D01*
X79354255Y-102310368D01*
X79524522Y-102250789D01*
X79677262Y-102154816D01*
X79804816Y-102027262D01*
X79900789Y-101874522D01*
X79960368Y-101704255D01*
X79980565Y-101525000D01*
X79980565Y-101524996D01*
X80344435Y-101524996D01*
X80344435Y-101525003D01*
X80364630Y-101704249D01*
X80364631Y-101704254D01*
X80424211Y-101874523D01*
X80489283Y-101978084D01*
X80520184Y-102027262D01*
X80647738Y-102154816D01*
X80800478Y-102250789D01*
X80822175Y-102258381D01*
X80970745Y-102310368D01*
X80970750Y-102310369D01*
X81149996Y-102330565D01*
X81150000Y-102330565D01*
X81150004Y-102330565D01*
X81329249Y-102310369D01*
X81329252Y-102310368D01*
X81329255Y-102310368D01*
X81499522Y-102250789D01*
X81652262Y-102154816D01*
X81779816Y-102027262D01*
X81864498Y-101892490D01*
X81916833Y-101846200D01*
X81985886Y-101835552D01*
X82049735Y-101863927D01*
X82086533Y-101917508D01*
X82107729Y-101978084D01*
X82203705Y-102130827D01*
X82331259Y-102258381D01*
X82483999Y-102354354D01*
X82654266Y-102413933D01*
X82654271Y-102413934D01*
X82833517Y-102434130D01*
X82833521Y-102434130D01*
X82833525Y-102434130D01*
X83012770Y-102413934D01*
X83012773Y-102413933D01*
X83012776Y-102413933D01*
X83183043Y-102354354D01*
X83335783Y-102258381D01*
X83463337Y-102130827D01*
X83559310Y-101978087D01*
X83618889Y-101807820D01*
X83639086Y-101628565D01*
X83627417Y-101525003D01*
X83618890Y-101449315D01*
X83618889Y-101449310D01*
X83563017Y-101289637D01*
X83559310Y-101279043D01*
X83548019Y-101261074D01*
X83520103Y-101216645D01*
X83463337Y-101126303D01*
X83335783Y-100998749D01*
X83183044Y-100902776D01*
X83012775Y-100843196D01*
X83012770Y-100843195D01*
X82833525Y-100823000D01*
X82833517Y-100823000D01*
X82654271Y-100843195D01*
X82654266Y-100843196D01*
X82483997Y-100902776D01*
X82331258Y-100998749D01*
X82203705Y-101126302D01*
X82203703Y-101126305D01*
X82119021Y-101261074D01*
X82066686Y-101307365D01*
X81997633Y-101318012D01*
X81933785Y-101289637D01*
X81896986Y-101236055D01*
X81875789Y-101175478D01*
X81847097Y-101129815D01*
X81779816Y-101022738D01*
X81652262Y-100895184D01*
X81499523Y-100799211D01*
X81329254Y-100739631D01*
X81329249Y-100739630D01*
X81150004Y-100719435D01*
X81149996Y-100719435D01*
X80970750Y-100739630D01*
X80970745Y-100739631D01*
X80800476Y-100799211D01*
X80647737Y-100895184D01*
X80520184Y-101022737D01*
X80424211Y-101175476D01*
X80364631Y-101345745D01*
X80364630Y-101345750D01*
X80344435Y-101524996D01*
X79980565Y-101524996D01*
X79972037Y-101449315D01*
X79960369Y-101345750D01*
X79960368Y-101345745D01*
X79940735Y-101289637D01*
X79900789Y-101175478D01*
X79891295Y-101160369D01*
X79804815Y-101022737D01*
X79677262Y-100895184D01*
X79524523Y-100799211D01*
X79354254Y-100739631D01*
X79354249Y-100739630D01*
X79175004Y-100719435D01*
X79174996Y-100719435D01*
X78995750Y-100739630D01*
X78995745Y-100739631D01*
X78825476Y-100799211D01*
X78672737Y-100895184D01*
X78545184Y-101022737D01*
X78449211Y-101175476D01*
X78389631Y-101345745D01*
X78389630Y-101345750D01*
X78369435Y-101524996D01*
X73500500Y-101524996D01*
X73500500Y-99999996D01*
X75594435Y-99999996D01*
X75594435Y-100000003D01*
X75614630Y-100179249D01*
X75614631Y-100179254D01*
X75674211Y-100349523D01*
X75743626Y-100459996D01*
X75770184Y-100502262D01*
X75897738Y-100629816D01*
X75976410Y-100679249D01*
X76048461Y-100724522D01*
X76050478Y-100725789D01*
X76220745Y-100785368D01*
X76220750Y-100785369D01*
X76399996Y-100805565D01*
X76400000Y-100805565D01*
X76400004Y-100805565D01*
X76579249Y-100785369D01*
X76579252Y-100785368D01*
X76579255Y-100785368D01*
X76749522Y-100725789D01*
X76902262Y-100629816D01*
X77029816Y-100502262D01*
X77031240Y-100499996D01*
X84694435Y-100499996D01*
X84694435Y-100500003D01*
X84714630Y-100679249D01*
X84714631Y-100679254D01*
X84774211Y-100849523D01*
X84845050Y-100962262D01*
X84870184Y-101002262D01*
X84997738Y-101129816D01*
X85150478Y-101225789D01*
X85302669Y-101279043D01*
X85320745Y-101285368D01*
X85320750Y-101285369D01*
X85499996Y-101305565D01*
X85500000Y-101305565D01*
X85500004Y-101305565D01*
X85679249Y-101285369D01*
X85679252Y-101285368D01*
X85679255Y-101285368D01*
X85849522Y-101225789D01*
X86002262Y-101129816D01*
X86129816Y-101002262D01*
X86225789Y-100849522D01*
X86285368Y-100679255D01*
X86289876Y-100639249D01*
X86305565Y-100500003D01*
X86305565Y-100499996D01*
X86291481Y-100374996D01*
X87469435Y-100374996D01*
X87469435Y-100375003D01*
X87489630Y-100554249D01*
X87489631Y-100554254D01*
X87549211Y-100724523D01*
X87627754Y-100849522D01*
X87645184Y-100877262D01*
X87772738Y-101004816D01*
X87801259Y-101022737D01*
X87908014Y-101089816D01*
X87925478Y-101100789D01*
X88095745Y-101160368D01*
X88095750Y-101160369D01*
X88274996Y-101180565D01*
X88275000Y-101180565D01*
X88275004Y-101180565D01*
X88454249Y-101160369D01*
X88454252Y-101160368D01*
X88454255Y-101160368D01*
X88624522Y-101100789D01*
X88777262Y-101004816D01*
X88904816Y-100877262D01*
X89000789Y-100724522D01*
X89060368Y-100554255D01*
X89066481Y-100500000D01*
X89070988Y-100459996D01*
X97824435Y-100459996D01*
X97824435Y-100460003D01*
X97844630Y-100639249D01*
X97844631Y-100639254D01*
X97904211Y-100809523D01*
X97929345Y-100849523D01*
X98000184Y-100962262D01*
X98127738Y-101089816D01*
X98280478Y-101185789D01*
X98424130Y-101236055D01*
X98450745Y-101245368D01*
X98450750Y-101245369D01*
X98629996Y-101265565D01*
X98630000Y-101265565D01*
X98630004Y-101265565D01*
X98809249Y-101245369D01*
X98809252Y-101245368D01*
X98809255Y-101245368D01*
X98979522Y-101185789D01*
X99132262Y-101089816D01*
X99259816Y-100962262D01*
X99355789Y-100809522D01*
X99415368Y-100639255D01*
X99424945Y-100554255D01*
X99435565Y-100460003D01*
X99435565Y-100459996D01*
X99415369Y-100280750D01*
X99415368Y-100280745D01*
X99376552Y-100169815D01*
X99355789Y-100110478D01*
X99259816Y-99957738D01*
X99132262Y-99830184D01*
X99043182Y-99774211D01*
X98979523Y-99734211D01*
X98809254Y-99674631D01*
X98809249Y-99674630D01*
X98630004Y-99654435D01*
X98629996Y-99654435D01*
X98450750Y-99674630D01*
X98450745Y-99674631D01*
X98280476Y-99734211D01*
X98127737Y-99830184D01*
X98000184Y-99957737D01*
X97904211Y-100110476D01*
X97844631Y-100280745D01*
X97844630Y-100280750D01*
X97824435Y-100459996D01*
X89070988Y-100459996D01*
X89080565Y-100375003D01*
X89080565Y-100374996D01*
X89060369Y-100195750D01*
X89060368Y-100195745D01*
X89000788Y-100025476D01*
X88921646Y-99899523D01*
X88904816Y-99872738D01*
X88777262Y-99745184D01*
X88751902Y-99729249D01*
X88624523Y-99649211D01*
X88454254Y-99589631D01*
X88454249Y-99589630D01*
X88275004Y-99569435D01*
X88274996Y-99569435D01*
X88095750Y-99589630D01*
X88095745Y-99589631D01*
X87925476Y-99649211D01*
X87772737Y-99745184D01*
X87645184Y-99872737D01*
X87549211Y-100025476D01*
X87489631Y-100195745D01*
X87489630Y-100195750D01*
X87469435Y-100374996D01*
X86291481Y-100374996D01*
X86285369Y-100320750D01*
X86285368Y-100320745D01*
X86241630Y-100195750D01*
X86225789Y-100150478D01*
X86129816Y-99997738D01*
X86002262Y-99870184D01*
X85849523Y-99774211D01*
X85679254Y-99714631D01*
X85679249Y-99714630D01*
X85500004Y-99694435D01*
X85499996Y-99694435D01*
X85320750Y-99714630D01*
X85320745Y-99714631D01*
X85150476Y-99774211D01*
X84997737Y-99870184D01*
X84870184Y-99997737D01*
X84774211Y-100150476D01*
X84714631Y-100320745D01*
X84714630Y-100320750D01*
X84694435Y-100499996D01*
X77031240Y-100499996D01*
X77125789Y-100349522D01*
X77185368Y-100179255D01*
X77186432Y-100169815D01*
X77205565Y-100000003D01*
X77205565Y-99999996D01*
X77185369Y-99820750D01*
X77185368Y-99820745D01*
X77134241Y-99674632D01*
X77125789Y-99650478D01*
X77062652Y-99549996D01*
X78369435Y-99549996D01*
X78369435Y-99550003D01*
X78389630Y-99729249D01*
X78389631Y-99729254D01*
X78449211Y-99899523D01*
X78512347Y-100000003D01*
X78545184Y-100052262D01*
X78672738Y-100179816D01*
X78698089Y-100195745D01*
X78809561Y-100265788D01*
X78825478Y-100275789D01*
X78995745Y-100335368D01*
X78995750Y-100335369D01*
X79174996Y-100355565D01*
X79175000Y-100355565D01*
X79175004Y-100355565D01*
X79354249Y-100335369D01*
X79354252Y-100335368D01*
X79354255Y-100335368D01*
X79524522Y-100275789D01*
X79677262Y-100179816D01*
X79804816Y-100052262D01*
X79900789Y-99899522D01*
X79960368Y-99729255D01*
X79961495Y-99719254D01*
X79980565Y-99550003D01*
X79980565Y-99549996D01*
X80344435Y-99549996D01*
X80344435Y-99550003D01*
X80364630Y-99729249D01*
X80364631Y-99729254D01*
X80424211Y-99899523D01*
X80487347Y-100000003D01*
X80520184Y-100052262D01*
X80647738Y-100179816D01*
X80673089Y-100195745D01*
X80784561Y-100265788D01*
X80800478Y-100275789D01*
X80970745Y-100335368D01*
X80970750Y-100335369D01*
X81149996Y-100355565D01*
X81150000Y-100355565D01*
X81150004Y-100355565D01*
X81329249Y-100335369D01*
X81329252Y-100335368D01*
X81329255Y-100335368D01*
X81499522Y-100275789D01*
X81652262Y-100179816D01*
X81779816Y-100052262D01*
X81875789Y-99899522D01*
X81935368Y-99729255D01*
X81936495Y-99719254D01*
X81955565Y-99550003D01*
X81955565Y-99549996D01*
X81935369Y-99370750D01*
X81935368Y-99370745D01*
X81914895Y-99312237D01*
X81875789Y-99200478D01*
X81870660Y-99192316D01*
X81779815Y-99047737D01*
X81652262Y-98920184D01*
X81499523Y-98824211D01*
X81329254Y-98764631D01*
X81329249Y-98764630D01*
X81150004Y-98744435D01*
X81149996Y-98744435D01*
X80970750Y-98764630D01*
X80970745Y-98764631D01*
X80800476Y-98824211D01*
X80647737Y-98920184D01*
X80520184Y-99047737D01*
X80424211Y-99200476D01*
X80364631Y-99370745D01*
X80364630Y-99370750D01*
X80344435Y-99549996D01*
X79980565Y-99549996D01*
X79960369Y-99370750D01*
X79960368Y-99370745D01*
X79939895Y-99312237D01*
X79900789Y-99200478D01*
X79895660Y-99192316D01*
X79804815Y-99047737D01*
X79677262Y-98920184D01*
X79524523Y-98824211D01*
X79354254Y-98764631D01*
X79354249Y-98764630D01*
X79175004Y-98744435D01*
X79174996Y-98744435D01*
X78995750Y-98764630D01*
X78995745Y-98764631D01*
X78825476Y-98824211D01*
X78672737Y-98920184D01*
X78545184Y-99047737D01*
X78449211Y-99200476D01*
X78389631Y-99370745D01*
X78389630Y-99370750D01*
X78369435Y-99549996D01*
X77062652Y-99549996D01*
X77029816Y-99497738D01*
X76975330Y-99443252D01*
X76941845Y-99381929D01*
X76946829Y-99312237D01*
X76988701Y-99256304D01*
X76997025Y-99250586D01*
X77089762Y-99192316D01*
X77217316Y-99064762D01*
X77313289Y-98912022D01*
X77372868Y-98741755D01*
X77374129Y-98730565D01*
X77393065Y-98562503D01*
X77393065Y-98562496D01*
X77372869Y-98383250D01*
X77372868Y-98383245D01*
X77310989Y-98206405D01*
X77312380Y-98205917D01*
X77302325Y-98144836D01*
X77320403Y-98094008D01*
X77335789Y-98069522D01*
X77395368Y-97899255D01*
X77398580Y-97870750D01*
X77415565Y-97720003D01*
X77415565Y-97719996D01*
X77399228Y-97574996D01*
X80344435Y-97574996D01*
X80344435Y-97575003D01*
X80364630Y-97754249D01*
X80364631Y-97754254D01*
X80424211Y-97924523D01*
X80471637Y-98000000D01*
X80520184Y-98077262D01*
X80647738Y-98204816D01*
X80800478Y-98300789D01*
X80939749Y-98349522D01*
X80970745Y-98360368D01*
X80970750Y-98360369D01*
X81149996Y-98380565D01*
X81150000Y-98380565D01*
X81150004Y-98380565D01*
X81329249Y-98360369D01*
X81329252Y-98360368D01*
X81329255Y-98360368D01*
X81499522Y-98300789D01*
X81652262Y-98204816D01*
X81779816Y-98077262D01*
X81828365Y-97999996D01*
X82194435Y-97999996D01*
X82194435Y-98000003D01*
X82214630Y-98179249D01*
X82214631Y-98179254D01*
X82274211Y-98349523D01*
X82323058Y-98427262D01*
X82370184Y-98502262D01*
X82497738Y-98629816D01*
X82562007Y-98670199D01*
X82616313Y-98704322D01*
X82662604Y-98756657D01*
X82673252Y-98825711D01*
X82644877Y-98889559D01*
X82627660Y-98906258D01*
X82622739Y-98910182D01*
X82495184Y-99037737D01*
X82399211Y-99190476D01*
X82339631Y-99360745D01*
X82339630Y-99360750D01*
X82319435Y-99539996D01*
X82319435Y-99540003D01*
X82339630Y-99719249D01*
X82339631Y-99719254D01*
X82399211Y-99889523D01*
X82442073Y-99957737D01*
X82495184Y-100042262D01*
X82622738Y-100169816D01*
X82775478Y-100265789D01*
X82932533Y-100320745D01*
X82945745Y-100325368D01*
X82945750Y-100325369D01*
X83124996Y-100345565D01*
X83125000Y-100345565D01*
X83125004Y-100345565D01*
X83304249Y-100325369D01*
X83304252Y-100325368D01*
X83304255Y-100325368D01*
X83474522Y-100265789D01*
X83627262Y-100169816D01*
X83754816Y-100042262D01*
X83850789Y-99889522D01*
X83910368Y-99719255D01*
X83915396Y-99674630D01*
X83930565Y-99540003D01*
X83930565Y-99539996D01*
X83910369Y-99360750D01*
X83910368Y-99360745D01*
X83891280Y-99306195D01*
X83850789Y-99190478D01*
X83844563Y-99180570D01*
X83761099Y-99047738D01*
X83754816Y-99037738D01*
X83627262Y-98910184D01*
X83627260Y-98910182D01*
X83508685Y-98835676D01*
X83462395Y-98783342D01*
X83451747Y-98714288D01*
X83480122Y-98650440D01*
X83497349Y-98633733D01*
X83502252Y-98629821D01*
X83502262Y-98629816D01*
X83629816Y-98502262D01*
X83725789Y-98349522D01*
X83785368Y-98179255D01*
X83787641Y-98159081D01*
X83805565Y-98000003D01*
X83805565Y-97999996D01*
X83797115Y-97924996D01*
X87494435Y-97924996D01*
X87494435Y-97925003D01*
X87514630Y-98104249D01*
X87514631Y-98104254D01*
X87574211Y-98274523D01*
X87628152Y-98360369D01*
X87670184Y-98427262D01*
X87797738Y-98554816D01*
X87809972Y-98562503D01*
X87949922Y-98650440D01*
X87950478Y-98650789D01*
X88103467Y-98704322D01*
X88120745Y-98710368D01*
X88120750Y-98710369D01*
X88299996Y-98730565D01*
X88300000Y-98730565D01*
X88300004Y-98730565D01*
X88479249Y-98710369D01*
X88479252Y-98710368D01*
X88479255Y-98710368D01*
X88649522Y-98650789D01*
X88802262Y-98554816D01*
X88929816Y-98427262D01*
X89025789Y-98274522D01*
X89085368Y-98104255D01*
X89085847Y-98100003D01*
X89085848Y-98099996D01*
X94169435Y-98099996D01*
X94169435Y-98100003D01*
X94189630Y-98279249D01*
X94189631Y-98279254D01*
X94249211Y-98449523D01*
X94320197Y-98562496D01*
X94345184Y-98602262D01*
X94472738Y-98729816D01*
X94545902Y-98775788D01*
X94625353Y-98825711D01*
X94625478Y-98825789D01*
X94710573Y-98855565D01*
X94795745Y-98885368D01*
X94795750Y-98885369D01*
X94974996Y-98905565D01*
X94975000Y-98905565D01*
X94975004Y-98905565D01*
X95154249Y-98885369D01*
X95154252Y-98885368D01*
X95154255Y-98885368D01*
X95324522Y-98825789D01*
X95477262Y-98729816D01*
X95604816Y-98602262D01*
X95700789Y-98449522D01*
X95760368Y-98279255D01*
X95760901Y-98274523D01*
X95780565Y-98100003D01*
X95780565Y-98099996D01*
X95760369Y-97920750D01*
X95760368Y-97920745D01*
X95725376Y-97820745D01*
X95700789Y-97750478D01*
X95681638Y-97720000D01*
X95637955Y-97650478D01*
X95604816Y-97597738D01*
X95582074Y-97574996D01*
X104394435Y-97574996D01*
X104394435Y-97575003D01*
X104414630Y-97754249D01*
X104414631Y-97754254D01*
X104474211Y-97924523D01*
X104521637Y-98000000D01*
X104570184Y-98077262D01*
X104697738Y-98204816D01*
X104850478Y-98300789D01*
X104989749Y-98349522D01*
X105020745Y-98360368D01*
X105020750Y-98360369D01*
X105199996Y-98380565D01*
X105200000Y-98380565D01*
X105200004Y-98380565D01*
X105379249Y-98360369D01*
X105379252Y-98360368D01*
X105379255Y-98360368D01*
X105549522Y-98300789D01*
X105702262Y-98204816D01*
X105829816Y-98077262D01*
X105846948Y-98049996D01*
X111914435Y-98049996D01*
X111914435Y-98050003D01*
X111934630Y-98229249D01*
X111934631Y-98229254D01*
X111994211Y-98399523D01*
X112058767Y-98502262D01*
X112090184Y-98552262D01*
X112217738Y-98679816D01*
X112308080Y-98736582D01*
X112352721Y-98764632D01*
X112370478Y-98775789D01*
X112480282Y-98814211D01*
X112540745Y-98835368D01*
X112540750Y-98835369D01*
X112719996Y-98855565D01*
X112720000Y-98855565D01*
X112720004Y-98855565D01*
X112899249Y-98835369D01*
X112899252Y-98835368D01*
X112899255Y-98835368D01*
X113069522Y-98775789D01*
X113222262Y-98679816D01*
X113349816Y-98552262D01*
X113445789Y-98399522D01*
X113505368Y-98229255D01*
X113507496Y-98210368D01*
X113525565Y-98050003D01*
X113525565Y-98049996D01*
X113505369Y-97870750D01*
X113505368Y-97870745D01*
X113461630Y-97745750D01*
X113445789Y-97700478D01*
X113349816Y-97547738D01*
X113222262Y-97420184D01*
X113160942Y-97381654D01*
X113069523Y-97324211D01*
X112899254Y-97264631D01*
X112899249Y-97264630D01*
X112720004Y-97244435D01*
X112719996Y-97244435D01*
X112540750Y-97264630D01*
X112540745Y-97264631D01*
X112370476Y-97324211D01*
X112217737Y-97420184D01*
X112090184Y-97547737D01*
X111994211Y-97700476D01*
X111934631Y-97870745D01*
X111934630Y-97870750D01*
X111914435Y-98049996D01*
X105846948Y-98049996D01*
X105925789Y-97924522D01*
X105985368Y-97754255D01*
X105985794Y-97750476D01*
X106005565Y-97575003D01*
X106005565Y-97574996D01*
X105985369Y-97395750D01*
X105985368Y-97395745D01*
X105956985Y-97314631D01*
X105925789Y-97225478D01*
X105918973Y-97214631D01*
X105859158Y-97119435D01*
X105829816Y-97072738D01*
X105702262Y-96945184D01*
X105677804Y-96929816D01*
X105549523Y-96849211D01*
X105379254Y-96789631D01*
X105379249Y-96789630D01*
X105200004Y-96769435D01*
X105199996Y-96769435D01*
X105020750Y-96789630D01*
X105020745Y-96789631D01*
X104850476Y-96849211D01*
X104697737Y-96945184D01*
X104570184Y-97072737D01*
X104474211Y-97225476D01*
X104414631Y-97395745D01*
X104414630Y-97395750D01*
X104394435Y-97574996D01*
X95582074Y-97574996D01*
X95477262Y-97470184D01*
X95405357Y-97425003D01*
X95324523Y-97374211D01*
X95154254Y-97314631D01*
X95154249Y-97314630D01*
X94975004Y-97294435D01*
X94974996Y-97294435D01*
X94795750Y-97314630D01*
X94795745Y-97314631D01*
X94625476Y-97374211D01*
X94472737Y-97470184D01*
X94345184Y-97597737D01*
X94249211Y-97750476D01*
X94189631Y-97920745D01*
X94189630Y-97920750D01*
X94169435Y-98099996D01*
X89085848Y-98099996D01*
X89105565Y-97925003D01*
X89105565Y-97924996D01*
X89085369Y-97745750D01*
X89085368Y-97745745D01*
X89069528Y-97700476D01*
X89025789Y-97575478D01*
X88929816Y-97422738D01*
X88802262Y-97295184D01*
X88753639Y-97264632D01*
X88649523Y-97199211D01*
X88479254Y-97139631D01*
X88479249Y-97139630D01*
X88300004Y-97119435D01*
X88299996Y-97119435D01*
X88120750Y-97139630D01*
X88120745Y-97139631D01*
X87950476Y-97199211D01*
X87797737Y-97295184D01*
X87670184Y-97422737D01*
X87574211Y-97575476D01*
X87514631Y-97745745D01*
X87514630Y-97745750D01*
X87494435Y-97924996D01*
X83797115Y-97924996D01*
X83785369Y-97820750D01*
X83785368Y-97820745D01*
X83762100Y-97754249D01*
X83725789Y-97650478D01*
X83629816Y-97497738D01*
X83502262Y-97370184D01*
X83349523Y-97274211D01*
X83179254Y-97214631D01*
X83179249Y-97214630D01*
X83000004Y-97194435D01*
X82999996Y-97194435D01*
X82820750Y-97214630D01*
X82820745Y-97214631D01*
X82650476Y-97274211D01*
X82497737Y-97370184D01*
X82370184Y-97497737D01*
X82274211Y-97650476D01*
X82214631Y-97820745D01*
X82214630Y-97820750D01*
X82194435Y-97999996D01*
X81828365Y-97999996D01*
X81875789Y-97924522D01*
X81935368Y-97754255D01*
X81935794Y-97750476D01*
X81955565Y-97575003D01*
X81955565Y-97574996D01*
X81935369Y-97395750D01*
X81935368Y-97395745D01*
X81906985Y-97314631D01*
X81875789Y-97225478D01*
X81868973Y-97214631D01*
X81809158Y-97119435D01*
X81779816Y-97072738D01*
X81652262Y-96945184D01*
X81627804Y-96929816D01*
X81499523Y-96849211D01*
X81329254Y-96789631D01*
X81329249Y-96789630D01*
X81150004Y-96769435D01*
X81149996Y-96769435D01*
X80970750Y-96789630D01*
X80970742Y-96789632D01*
X80808975Y-96846237D01*
X80804320Y-96846474D01*
X80804249Y-96846566D01*
X80797951Y-96850797D01*
X80647740Y-96945182D01*
X80647737Y-96945184D01*
X80520184Y-97072737D01*
X80424211Y-97225476D01*
X80364631Y-97395745D01*
X80364630Y-97395750D01*
X80344435Y-97574996D01*
X77399228Y-97574996D01*
X77395369Y-97540750D01*
X77395366Y-97540737D01*
X77339700Y-97381654D01*
X77336138Y-97311875D01*
X77369064Y-97253014D01*
X77369492Y-97252585D01*
X77374816Y-97247262D01*
X77470789Y-97094522D01*
X77530368Y-96924255D01*
X77536765Y-96867484D01*
X77547971Y-96768022D01*
X77575037Y-96703608D01*
X77632632Y-96664053D01*
X77702469Y-96661915D01*
X77712146Y-96664864D01*
X77770737Y-96685366D01*
X77770743Y-96685367D01*
X77770745Y-96685368D01*
X77770746Y-96685368D01*
X77770750Y-96685369D01*
X77949996Y-96705565D01*
X77950000Y-96705565D01*
X77950004Y-96705565D01*
X78129249Y-96685369D01*
X78129252Y-96685368D01*
X78129255Y-96685368D01*
X78299522Y-96625789D01*
X78452262Y-96529816D01*
X78579816Y-96402262D01*
X78645007Y-96298510D01*
X78697341Y-96252221D01*
X78766394Y-96241573D01*
X78830243Y-96269948D01*
X78854992Y-96298509D01*
X78920184Y-96402262D01*
X79047738Y-96529816D01*
X79104906Y-96565737D01*
X79198254Y-96624392D01*
X79200478Y-96625789D01*
X79312148Y-96664864D01*
X79370745Y-96685368D01*
X79370750Y-96685369D01*
X79549996Y-96705565D01*
X79550000Y-96705565D01*
X79550004Y-96705565D01*
X79729249Y-96685369D01*
X79729251Y-96685368D01*
X79729255Y-96685368D01*
X79729258Y-96685366D01*
X79729262Y-96685366D01*
X79906095Y-96623489D01*
X79906846Y-96625637D01*
X79965128Y-96616035D01*
X79993588Y-96624392D01*
X79993905Y-96623489D01*
X80170737Y-96685366D01*
X80170743Y-96685367D01*
X80170745Y-96685368D01*
X80170746Y-96685368D01*
X80170750Y-96685369D01*
X80349996Y-96705565D01*
X80350000Y-96705565D01*
X80350004Y-96705565D01*
X80529249Y-96685369D01*
X80529251Y-96685368D01*
X80529255Y-96685368D01*
X80529258Y-96685366D01*
X80529262Y-96685366D01*
X80691023Y-96628763D01*
X80695678Y-96628525D01*
X80695751Y-96628433D01*
X80702049Y-96624201D01*
X80732900Y-96604816D01*
X80852262Y-96529816D01*
X80979816Y-96402262D01*
X81075789Y-96249522D01*
X81135368Y-96079255D01*
X81138325Y-96053014D01*
X81155565Y-95900003D01*
X81155565Y-95899996D01*
X81944435Y-95899996D01*
X81944435Y-95900003D01*
X81964630Y-96079249D01*
X81964631Y-96079254D01*
X82024211Y-96249523D01*
X82071337Y-96324523D01*
X82120184Y-96402262D01*
X82247738Y-96529816D01*
X82304906Y-96565737D01*
X82398254Y-96624392D01*
X82400478Y-96625789D01*
X82512148Y-96664864D01*
X82570745Y-96685368D01*
X82570750Y-96685369D01*
X82749996Y-96705565D01*
X82750000Y-96705565D01*
X82750004Y-96705565D01*
X82929249Y-96685369D01*
X82929251Y-96685368D01*
X82929255Y-96685368D01*
X82929258Y-96685366D01*
X82929262Y-96685366D01*
X83106095Y-96623489D01*
X83106846Y-96625637D01*
X83165128Y-96616035D01*
X83193592Y-96624391D01*
X83193908Y-96623489D01*
X83370748Y-96685368D01*
X83370753Y-96685369D01*
X83549999Y-96705565D01*
X83550003Y-96705565D01*
X83550007Y-96705565D01*
X83703851Y-96688231D01*
X90106200Y-96688231D01*
X90106200Y-96688238D01*
X90126395Y-96867484D01*
X90126396Y-96867489D01*
X90185976Y-97037758D01*
X90249987Y-97139630D01*
X90281949Y-97190497D01*
X90409503Y-97318051D01*
X90562243Y-97414024D01*
X90722739Y-97470184D01*
X90732510Y-97473603D01*
X90732515Y-97473604D01*
X90911761Y-97493800D01*
X90911765Y-97493800D01*
X90911769Y-97493800D01*
X91091014Y-97473604D01*
X91091017Y-97473603D01*
X91091020Y-97473603D01*
X91261287Y-97414024D01*
X91414027Y-97318051D01*
X91541581Y-97190497D01*
X91637554Y-97037757D01*
X91697133Y-96867490D01*
X91699528Y-96846237D01*
X91717330Y-96688238D01*
X91717330Y-96688232D01*
X91700244Y-96536594D01*
X91703340Y-96518912D01*
X91698982Y-96513560D01*
X91696258Y-96506479D01*
X91677069Y-96451641D01*
X91637554Y-96338713D01*
X91613226Y-96299996D01*
X91919435Y-96299996D01*
X91919435Y-96300003D01*
X91936520Y-96451641D01*
X91933423Y-96469321D01*
X91937781Y-96474673D01*
X91940505Y-96481755D01*
X91999209Y-96649519D01*
X92034425Y-96705565D01*
X92095184Y-96802262D01*
X92222738Y-96929816D01*
X92375478Y-97025789D01*
X92509648Y-97072737D01*
X92545745Y-97085368D01*
X92545750Y-97085369D01*
X92724996Y-97105565D01*
X92725000Y-97105565D01*
X92725004Y-97105565D01*
X92904249Y-97085369D01*
X92904252Y-97085368D01*
X92904255Y-97085368D01*
X93074522Y-97025789D01*
X93227262Y-96929816D01*
X93354816Y-96802262D01*
X93450789Y-96649522D01*
X93510368Y-96479255D01*
X93510593Y-96477262D01*
X93530565Y-96300003D01*
X93530565Y-96299996D01*
X93510369Y-96120750D01*
X93510368Y-96120745D01*
X93472986Y-96013914D01*
X93459368Y-95974996D01*
X106519435Y-95974996D01*
X106519435Y-95975003D01*
X106539630Y-96154249D01*
X106539631Y-96154254D01*
X106599211Y-96324523D01*
X106643796Y-96395479D01*
X106695184Y-96477262D01*
X106822738Y-96604816D01*
X106893882Y-96649519D01*
X106972966Y-96699211D01*
X106975478Y-96700789D01*
X107145745Y-96760368D01*
X107145750Y-96760369D01*
X107324996Y-96780565D01*
X107325000Y-96780565D01*
X107325004Y-96780565D01*
X107504249Y-96760369D01*
X107504252Y-96760368D01*
X107504255Y-96760368D01*
X107674522Y-96700789D01*
X107827262Y-96604816D01*
X107827266Y-96604811D01*
X107832705Y-96600475D01*
X107834081Y-96602201D01*
X107886142Y-96573774D01*
X107955834Y-96578758D01*
X108000181Y-96607259D01*
X108022738Y-96629816D01*
X108175478Y-96725789D01*
X108274299Y-96760368D01*
X108345745Y-96785368D01*
X108345750Y-96785369D01*
X108524996Y-96805565D01*
X108525000Y-96805565D01*
X108525004Y-96805565D01*
X108704249Y-96785369D01*
X108704252Y-96785368D01*
X108704255Y-96785368D01*
X108874522Y-96725789D01*
X109027262Y-96629816D01*
X109154816Y-96502262D01*
X109250789Y-96349522D01*
X109310368Y-96179255D01*
X109313185Y-96154254D01*
X109330565Y-96000003D01*
X109330565Y-95999996D01*
X109310369Y-95820750D01*
X109310368Y-95820745D01*
X109304052Y-95802696D01*
X109250789Y-95650478D01*
X109235080Y-95625478D01*
X109187955Y-95550478D01*
X109154816Y-95497738D01*
X109027262Y-95370184D01*
X109023374Y-95367741D01*
X108874523Y-95274211D01*
X108704254Y-95214631D01*
X108704249Y-95214630D01*
X108525004Y-95194435D01*
X108524996Y-95194435D01*
X108345750Y-95214630D01*
X108345745Y-95214631D01*
X108175476Y-95274211D01*
X108022737Y-95370184D01*
X108017295Y-95374525D01*
X108015918Y-95372798D01*
X107963858Y-95401226D01*
X107894166Y-95396242D01*
X107849819Y-95367741D01*
X107827262Y-95345184D01*
X107674523Y-95249211D01*
X107504254Y-95189631D01*
X107504249Y-95189630D01*
X107325004Y-95169435D01*
X107324996Y-95169435D01*
X107145750Y-95189630D01*
X107145745Y-95189631D01*
X106975476Y-95249211D01*
X106822737Y-95345184D01*
X106695184Y-95472737D01*
X106599211Y-95625476D01*
X106539631Y-95795745D01*
X106539630Y-95795750D01*
X106519435Y-95974996D01*
X93459368Y-95974996D01*
X93450789Y-95950478D01*
X93354816Y-95797738D01*
X93227262Y-95670184D01*
X93156110Y-95625476D01*
X93074523Y-95574211D01*
X92904254Y-95514631D01*
X92904249Y-95514630D01*
X92725004Y-95494435D01*
X92724996Y-95494435D01*
X92545750Y-95514630D01*
X92545745Y-95514631D01*
X92375476Y-95574211D01*
X92222737Y-95670184D01*
X92095184Y-95797737D01*
X91999211Y-95950476D01*
X91939631Y-96120745D01*
X91939630Y-96120750D01*
X91919435Y-96299996D01*
X91613226Y-96299996D01*
X91541581Y-96185973D01*
X91414027Y-96058419D01*
X91321054Y-96000000D01*
X91261288Y-95962446D01*
X91091019Y-95902866D01*
X91091014Y-95902865D01*
X90911769Y-95882670D01*
X90911761Y-95882670D01*
X90732515Y-95902865D01*
X90732510Y-95902866D01*
X90562241Y-95962446D01*
X90409502Y-96058419D01*
X90281949Y-96185972D01*
X90185976Y-96338711D01*
X90126396Y-96508980D01*
X90126395Y-96508985D01*
X90106200Y-96688231D01*
X83703851Y-96688231D01*
X83729252Y-96685369D01*
X83729255Y-96685368D01*
X83729258Y-96685368D01*
X83899525Y-96625789D01*
X84052265Y-96529816D01*
X84179819Y-96402262D01*
X84275792Y-96249522D01*
X84335371Y-96079255D01*
X84338328Y-96053014D01*
X84355568Y-95900003D01*
X84355568Y-95899996D01*
X84335372Y-95720750D01*
X84335371Y-95720745D01*
X84317679Y-95670184D01*
X84275792Y-95550478D01*
X84274095Y-95547778D01*
X84216064Y-95455422D01*
X84179819Y-95397738D01*
X84052265Y-95270184D01*
X83963855Y-95214632D01*
X83924652Y-95189999D01*
X104234722Y-95189999D01*
X104234722Y-95190000D01*
X104253762Y-95346818D01*
X104273074Y-95397738D01*
X104309780Y-95494523D01*
X104399517Y-95624530D01*
X104517760Y-95729283D01*
X104529860Y-95735633D01*
X104657634Y-95802696D01*
X104811014Y-95840500D01*
X104811015Y-95840500D01*
X104968985Y-95840500D01*
X105110327Y-95805663D01*
X105169673Y-95805663D01*
X105311015Y-95840500D01*
X105468985Y-95840500D01*
X105622365Y-95802696D01*
X105762240Y-95729283D01*
X105880483Y-95624530D01*
X105970220Y-95494523D01*
X106026237Y-95346818D01*
X106045278Y-95190000D01*
X106043380Y-95174364D01*
X106026237Y-95033181D01*
X106004992Y-94977164D01*
X105970220Y-94885477D01*
X105880483Y-94755470D01*
X105762240Y-94650717D01*
X105762238Y-94650716D01*
X105762237Y-94650715D01*
X105622365Y-94577303D01*
X105468986Y-94539500D01*
X105468985Y-94539500D01*
X105311015Y-94539500D01*
X105311014Y-94539500D01*
X105169674Y-94574336D01*
X105110326Y-94574336D01*
X104968986Y-94539500D01*
X104968985Y-94539500D01*
X104811015Y-94539500D01*
X104811014Y-94539500D01*
X104657634Y-94577303D01*
X104517762Y-94650715D01*
X104399516Y-94755471D01*
X104309781Y-94885475D01*
X104309780Y-94885476D01*
X104253762Y-95033181D01*
X104234722Y-95189999D01*
X83924652Y-95189999D01*
X83899526Y-95174211D01*
X83729257Y-95114631D01*
X83729252Y-95114630D01*
X83550007Y-95094435D01*
X83549999Y-95094435D01*
X83370753Y-95114630D01*
X83370740Y-95114633D01*
X83193909Y-95176510D01*
X83193160Y-95174369D01*
X83134824Y-95183958D01*
X83106408Y-95175611D01*
X83106094Y-95176510D01*
X82929262Y-95114633D01*
X82929249Y-95114630D01*
X82750004Y-95094435D01*
X82749996Y-95094435D01*
X82570750Y-95114630D01*
X82570745Y-95114631D01*
X82400476Y-95174211D01*
X82247737Y-95270184D01*
X82120184Y-95397737D01*
X82024211Y-95550476D01*
X81964631Y-95720745D01*
X81964630Y-95720750D01*
X81944435Y-95899996D01*
X81155565Y-95899996D01*
X81135369Y-95720750D01*
X81135368Y-95720745D01*
X81117676Y-95670184D01*
X81075789Y-95550478D01*
X81074092Y-95547778D01*
X81016061Y-95455422D01*
X80979816Y-95397738D01*
X80852262Y-95270184D01*
X80763852Y-95214632D01*
X80699523Y-95174211D01*
X80529254Y-95114631D01*
X80529249Y-95114630D01*
X80350004Y-95094435D01*
X80349996Y-95094435D01*
X80170750Y-95114630D01*
X80170737Y-95114633D01*
X79993906Y-95176510D01*
X79993155Y-95174364D01*
X79934856Y-95183962D01*
X79906409Y-95175609D01*
X79906094Y-95176510D01*
X79729262Y-95114633D01*
X79729249Y-95114630D01*
X79550004Y-95094435D01*
X79549996Y-95094435D01*
X79370750Y-95114630D01*
X79370745Y-95114631D01*
X79200476Y-95174211D01*
X79047737Y-95270184D01*
X78920184Y-95397737D01*
X78854994Y-95501487D01*
X78802659Y-95547778D01*
X78733605Y-95558426D01*
X78669757Y-95530051D01*
X78645006Y-95501487D01*
X78616061Y-95455422D01*
X78579816Y-95397738D01*
X78452262Y-95270184D01*
X78363852Y-95214632D01*
X78299523Y-95174211D01*
X78129254Y-95114631D01*
X78129249Y-95114630D01*
X77950004Y-95094435D01*
X77949996Y-95094435D01*
X77770750Y-95114630D01*
X77770745Y-95114631D01*
X77600476Y-95174211D01*
X77447739Y-95270183D01*
X77385179Y-95332743D01*
X77323855Y-95366227D01*
X77254164Y-95361242D01*
X77198230Y-95319371D01*
X77180457Y-95286018D01*
X77150789Y-95201230D01*
X77054816Y-95048490D01*
X76927262Y-94920936D01*
X76774523Y-94824963D01*
X76604254Y-94765383D01*
X76604249Y-94765382D01*
X76425004Y-94745187D01*
X76424996Y-94745187D01*
X76245750Y-94765382D01*
X76245745Y-94765383D01*
X76075476Y-94824963D01*
X75922737Y-94920936D01*
X75795184Y-95048489D01*
X75699211Y-95201228D01*
X75639631Y-95371497D01*
X75639630Y-95371502D01*
X75619435Y-95550748D01*
X75619435Y-95550755D01*
X75639630Y-95730001D01*
X75639631Y-95730006D01*
X75699211Y-95900275D01*
X75761873Y-96000000D01*
X75795184Y-96053014D01*
X75922738Y-96180568D01*
X75983723Y-96218888D01*
X76030014Y-96271222D01*
X76040662Y-96340275D01*
X76022748Y-96389848D01*
X76019209Y-96395479D01*
X75959633Y-96565737D01*
X75959630Y-96565750D01*
X75939435Y-96744996D01*
X75939435Y-96745003D01*
X75959630Y-96924249D01*
X75959631Y-96924254D01*
X76015300Y-97083345D01*
X76018861Y-97153124D01*
X75985943Y-97211977D01*
X75980186Y-97217734D01*
X75884211Y-97370476D01*
X75824631Y-97540745D01*
X75824630Y-97540750D01*
X75804435Y-97719996D01*
X75804435Y-97720003D01*
X75824630Y-97899249D01*
X75824633Y-97899262D01*
X75886510Y-98076094D01*
X75885117Y-98076581D01*
X75895176Y-98137653D01*
X75877099Y-98188487D01*
X75861709Y-98212981D01*
X75802133Y-98383237D01*
X75802130Y-98383250D01*
X75781935Y-98562496D01*
X75781935Y-98562503D01*
X75802130Y-98741749D01*
X75802131Y-98741754D01*
X75861711Y-98912023D01*
X75957684Y-99064762D01*
X76012169Y-99119247D01*
X76045654Y-99180570D01*
X76040670Y-99250262D01*
X75998798Y-99306195D01*
X75990461Y-99311921D01*
X75897740Y-99370182D01*
X75897737Y-99370184D01*
X75770184Y-99497737D01*
X75674211Y-99650476D01*
X75614631Y-99820745D01*
X75614630Y-99820750D01*
X75594435Y-99999996D01*
X73500500Y-99999996D01*
X73500500Y-98281819D01*
X73520185Y-98214780D01*
X73572989Y-98169025D01*
X73642147Y-98159081D01*
X73665455Y-98164778D01*
X73795737Y-98210366D01*
X73795743Y-98210367D01*
X73795745Y-98210368D01*
X73795746Y-98210368D01*
X73795750Y-98210369D01*
X73974996Y-98230565D01*
X73975000Y-98230565D01*
X73975004Y-98230565D01*
X74154249Y-98210369D01*
X74154252Y-98210368D01*
X74154255Y-98210368D01*
X74324522Y-98150789D01*
X74477262Y-98054816D01*
X74604816Y-97927262D01*
X74700789Y-97774522D01*
X74760368Y-97604255D01*
X74760369Y-97604249D01*
X74780565Y-97425003D01*
X74780565Y-97424996D01*
X74760369Y-97245750D01*
X74760368Y-97245745D01*
X74750568Y-97217738D01*
X74700789Y-97075478D01*
X74699067Y-97072738D01*
X74661582Y-97013080D01*
X74604816Y-96922738D01*
X74477262Y-96795184D01*
X74468426Y-96789632D01*
X74324523Y-96699211D01*
X74154254Y-96639631D01*
X74154249Y-96639630D01*
X73975004Y-96619435D01*
X73974996Y-96619435D01*
X73795750Y-96639630D01*
X73795742Y-96639632D01*
X73665454Y-96685222D01*
X73595675Y-96688783D01*
X73535048Y-96654054D01*
X73502821Y-96592061D01*
X73500500Y-96568180D01*
X73500500Y-93024996D01*
X74419435Y-93024996D01*
X74419435Y-93025003D01*
X74439630Y-93204249D01*
X74439631Y-93204254D01*
X74499211Y-93374523D01*
X74530926Y-93424996D01*
X74595184Y-93527262D01*
X74722738Y-93654816D01*
X74813080Y-93711582D01*
X74850935Y-93735368D01*
X74875478Y-93750789D01*
X74943306Y-93774523D01*
X75045745Y-93810368D01*
X75045750Y-93810369D01*
X75224996Y-93830565D01*
X75225000Y-93830565D01*
X75225004Y-93830565D01*
X75404249Y-93810369D01*
X75404252Y-93810368D01*
X75404255Y-93810368D01*
X75404256Y-93810367D01*
X75404259Y-93810367D01*
X75460616Y-93790646D01*
X75509692Y-93773473D01*
X75579470Y-93769911D01*
X75640098Y-93804640D01*
X75655641Y-93824543D01*
X75700384Y-93895750D01*
X75720184Y-93927262D01*
X75847738Y-94054816D01*
X75936148Y-94110368D01*
X75998461Y-94149522D01*
X76000478Y-94150789D01*
X76083427Y-94179814D01*
X76170745Y-94210368D01*
X76170750Y-94210369D01*
X76349996Y-94230565D01*
X76350000Y-94230565D01*
X76350004Y-94230565D01*
X76529249Y-94210369D01*
X76529252Y-94210368D01*
X76529255Y-94210368D01*
X76699522Y-94150789D01*
X76852262Y-94054816D01*
X76907082Y-93999996D01*
X83694435Y-93999996D01*
X83694435Y-94000003D01*
X83714630Y-94179249D01*
X83714631Y-94179254D01*
X83774211Y-94349523D01*
X83821337Y-94424523D01*
X83870184Y-94502262D01*
X83997738Y-94629816D01*
X84150478Y-94725789D01*
X84263631Y-94765383D01*
X84320745Y-94785368D01*
X84320750Y-94785369D01*
X84499996Y-94805565D01*
X84500000Y-94805565D01*
X84500004Y-94805565D01*
X84679249Y-94785369D01*
X84679252Y-94785368D01*
X84679255Y-94785368D01*
X84849522Y-94725789D01*
X85002262Y-94629816D01*
X85129816Y-94502262D01*
X85225789Y-94349522D01*
X85285368Y-94179255D01*
X85285369Y-94179249D01*
X85305565Y-94000003D01*
X85305565Y-93999996D01*
X85285369Y-93820750D01*
X85285368Y-93820745D01*
X85267580Y-93769911D01*
X85225789Y-93650478D01*
X85207106Y-93620745D01*
X85162651Y-93549995D01*
X90544435Y-93549995D01*
X90544435Y-93550002D01*
X90564630Y-93729248D01*
X90564631Y-93729253D01*
X90624211Y-93899522D01*
X90687346Y-94000000D01*
X90720184Y-94052261D01*
X90847738Y-94179815D01*
X91000478Y-94275788D01*
X91170745Y-94335367D01*
X91170750Y-94335368D01*
X91349996Y-94355564D01*
X91350000Y-94355564D01*
X91350004Y-94355564D01*
X91529249Y-94335368D01*
X91529252Y-94335367D01*
X91529255Y-94335367D01*
X91699522Y-94275788D01*
X91852262Y-94179815D01*
X91979816Y-94052261D01*
X92012656Y-93999996D01*
X96644435Y-93999996D01*
X96644435Y-94000003D01*
X96664630Y-94179249D01*
X96664631Y-94179254D01*
X96724211Y-94349523D01*
X96771337Y-94424523D01*
X96820184Y-94502262D01*
X96947738Y-94629816D01*
X97100478Y-94725789D01*
X97213631Y-94765383D01*
X97270745Y-94785368D01*
X97270750Y-94785369D01*
X97449996Y-94805565D01*
X97450000Y-94805565D01*
X97450004Y-94805565D01*
X97629249Y-94785369D01*
X97629252Y-94785368D01*
X97629255Y-94785368D01*
X97799522Y-94725789D01*
X97952262Y-94629816D01*
X98079816Y-94502262D01*
X98175789Y-94349522D01*
X98235368Y-94179255D01*
X98235369Y-94179249D01*
X98247115Y-94074996D01*
X99794435Y-94074996D01*
X99794435Y-94075003D01*
X99814630Y-94254249D01*
X99814631Y-94254254D01*
X99874211Y-94424523D01*
X99968345Y-94574336D01*
X99970184Y-94577262D01*
X100097738Y-94704816D01*
X100161988Y-94745187D01*
X100225935Y-94785368D01*
X100250478Y-94800789D01*
X100420745Y-94860368D01*
X100420750Y-94860369D01*
X100599996Y-94880565D01*
X100600000Y-94880565D01*
X100600004Y-94880565D01*
X100779249Y-94860369D01*
X100779252Y-94860368D01*
X100779255Y-94860368D01*
X100949522Y-94800789D01*
X101102262Y-94704816D01*
X101229816Y-94577262D01*
X101325789Y-94424522D01*
X101385368Y-94254255D01*
X101385369Y-94254249D01*
X101405565Y-94075003D01*
X101405565Y-94074996D01*
X101385369Y-93895750D01*
X101385368Y-93895745D01*
X101325789Y-93725478D01*
X101229816Y-93572738D01*
X101102262Y-93445184D01*
X101070144Y-93425003D01*
X100949523Y-93349211D01*
X100880321Y-93324996D01*
X101969435Y-93324996D01*
X101969435Y-93325003D01*
X101989630Y-93504249D01*
X101989631Y-93504254D01*
X102049211Y-93674523D01*
X102109148Y-93769911D01*
X102145184Y-93827262D01*
X102272738Y-93954816D01*
X102425478Y-94050789D01*
X102494678Y-94075003D01*
X102595745Y-94110368D01*
X102595750Y-94110369D01*
X102774996Y-94130565D01*
X102775000Y-94130565D01*
X102775004Y-94130565D01*
X102954249Y-94110369D01*
X102954252Y-94110368D01*
X102954255Y-94110368D01*
X103124522Y-94050789D01*
X103277262Y-93954816D01*
X103404816Y-93827262D01*
X103421948Y-93799996D01*
X105844435Y-93799996D01*
X105844435Y-93800003D01*
X105864630Y-93979249D01*
X105864631Y-93979254D01*
X105924211Y-94149523D01*
X105990019Y-94254255D01*
X106020184Y-94302262D01*
X106147738Y-94429816D01*
X106300478Y-94525789D01*
X106470745Y-94585368D01*
X106470750Y-94585369D01*
X106649996Y-94605565D01*
X106650000Y-94605565D01*
X106650004Y-94605565D01*
X106829249Y-94585369D01*
X106829252Y-94585368D01*
X106829255Y-94585368D01*
X106999522Y-94525789D01*
X107152262Y-94429816D01*
X107279816Y-94302262D01*
X107375789Y-94149522D01*
X107435368Y-93979255D01*
X107444777Y-93895750D01*
X107455565Y-93800003D01*
X107455565Y-93799996D01*
X107435369Y-93620750D01*
X107435368Y-93620745D01*
X107410613Y-93549999D01*
X107375789Y-93450478D01*
X107279816Y-93297738D01*
X107152262Y-93170184D01*
X107087124Y-93129255D01*
X106999523Y-93074211D01*
X106829254Y-93014631D01*
X106829249Y-93014630D01*
X106650004Y-92994435D01*
X106649996Y-92994435D01*
X106470750Y-93014630D01*
X106470745Y-93014631D01*
X106300476Y-93074211D01*
X106147737Y-93170184D01*
X106020184Y-93297737D01*
X105924211Y-93450476D01*
X105864631Y-93620745D01*
X105864630Y-93620750D01*
X105844435Y-93799996D01*
X103421948Y-93799996D01*
X103500789Y-93674522D01*
X103560368Y-93504255D01*
X103560369Y-93504249D01*
X103580565Y-93325003D01*
X103580565Y-93324996D01*
X103560369Y-93145750D01*
X103560368Y-93145745D01*
X103545153Y-93102262D01*
X103500789Y-92975478D01*
X103484777Y-92949996D01*
X108624435Y-92949996D01*
X108624435Y-92950003D01*
X108644630Y-93129249D01*
X108644631Y-93129254D01*
X108704211Y-93299523D01*
X108758152Y-93385369D01*
X108800184Y-93452262D01*
X108927738Y-93579816D01*
X108992876Y-93620745D01*
X109078461Y-93674522D01*
X109080478Y-93675789D01*
X109222475Y-93725476D01*
X109250745Y-93735368D01*
X109250750Y-93735369D01*
X109429996Y-93755565D01*
X109430000Y-93755565D01*
X109430004Y-93755565D01*
X109609249Y-93735369D01*
X109609252Y-93735368D01*
X109609255Y-93735368D01*
X109779522Y-93675789D01*
X109932262Y-93579816D01*
X110059816Y-93452262D01*
X110155789Y-93299522D01*
X110215368Y-93129255D01*
X110215369Y-93129249D01*
X110235565Y-92950003D01*
X110235565Y-92949996D01*
X110215369Y-92770750D01*
X110215368Y-92770745D01*
X110182399Y-92676526D01*
X110155789Y-92600478D01*
X110059816Y-92447738D01*
X109932262Y-92320184D01*
X109892553Y-92295233D01*
X109779523Y-92224211D01*
X109609254Y-92164631D01*
X109609249Y-92164630D01*
X109430004Y-92144435D01*
X109429996Y-92144435D01*
X109250750Y-92164630D01*
X109250745Y-92164631D01*
X109080476Y-92224211D01*
X108927737Y-92320184D01*
X108800184Y-92447737D01*
X108704211Y-92600476D01*
X108644631Y-92770745D01*
X108644630Y-92770750D01*
X108624435Y-92949996D01*
X103484777Y-92949996D01*
X103484480Y-92949523D01*
X103438150Y-92875789D01*
X103404816Y-92822738D01*
X103277262Y-92695184D01*
X103245897Y-92675476D01*
X103124523Y-92599211D01*
X102954254Y-92539631D01*
X102954249Y-92539630D01*
X102775004Y-92519435D01*
X102774996Y-92519435D01*
X102595750Y-92539630D01*
X102595745Y-92539631D01*
X102425476Y-92599211D01*
X102272737Y-92695184D01*
X102145184Y-92822737D01*
X102049211Y-92975476D01*
X101989631Y-93145745D01*
X101989630Y-93145750D01*
X101969435Y-93324996D01*
X100880321Y-93324996D01*
X100779254Y-93289631D01*
X100779249Y-93289630D01*
X100600004Y-93269435D01*
X100599996Y-93269435D01*
X100420750Y-93289630D01*
X100420745Y-93289631D01*
X100250476Y-93349211D01*
X100097737Y-93445184D01*
X99970184Y-93572737D01*
X99874211Y-93725476D01*
X99814631Y-93895745D01*
X99814630Y-93895750D01*
X99794435Y-94074996D01*
X98247115Y-94074996D01*
X98255565Y-94000003D01*
X98255565Y-93999996D01*
X98235369Y-93820750D01*
X98235368Y-93820745D01*
X98217580Y-93769911D01*
X98175789Y-93650478D01*
X98157106Y-93620745D01*
X98079815Y-93497737D01*
X97952262Y-93370184D01*
X97799523Y-93274211D01*
X97629254Y-93214631D01*
X97629249Y-93214630D01*
X97450004Y-93194435D01*
X97449996Y-93194435D01*
X97270750Y-93214630D01*
X97270745Y-93214631D01*
X97100476Y-93274211D01*
X96947737Y-93370184D01*
X96820184Y-93497737D01*
X96724211Y-93650476D01*
X96664631Y-93820745D01*
X96664630Y-93820750D01*
X96644435Y-93999996D01*
X92012656Y-93999996D01*
X92075789Y-93899521D01*
X92135368Y-93729254D01*
X92135369Y-93729248D01*
X92155565Y-93550002D01*
X92155565Y-93549995D01*
X92135369Y-93370749D01*
X92135368Y-93370744D01*
X92127833Y-93349211D01*
X92075789Y-93200477D01*
X91979816Y-93047737D01*
X91852262Y-92920183D01*
X91699523Y-92824210D01*
X91529254Y-92764630D01*
X91529249Y-92764629D01*
X91350004Y-92744434D01*
X91349996Y-92744434D01*
X91170750Y-92764629D01*
X91170745Y-92764630D01*
X91000476Y-92824210D01*
X90847737Y-92920183D01*
X90720184Y-93047736D01*
X90624211Y-93200475D01*
X90564631Y-93370744D01*
X90564630Y-93370749D01*
X90544435Y-93549995D01*
X85162651Y-93549995D01*
X85129815Y-93497737D01*
X85002262Y-93370184D01*
X84849523Y-93274211D01*
X84679254Y-93214631D01*
X84679249Y-93214630D01*
X84500004Y-93194435D01*
X84499996Y-93194435D01*
X84320750Y-93214630D01*
X84320745Y-93214631D01*
X84150476Y-93274211D01*
X83997737Y-93370184D01*
X83870184Y-93497737D01*
X83774211Y-93650476D01*
X83714631Y-93820745D01*
X83714630Y-93820750D01*
X83694435Y-93999996D01*
X76907082Y-93999996D01*
X76979816Y-93927262D01*
X77075789Y-93774522D01*
X77135368Y-93604255D01*
X77138919Y-93572738D01*
X77155565Y-93425003D01*
X77155565Y-93424996D01*
X77135369Y-93245750D01*
X77135368Y-93245745D01*
X77075788Y-93075476D01*
X77012955Y-92975478D01*
X76979816Y-92922738D01*
X76852262Y-92795184D01*
X76827804Y-92779816D01*
X76699523Y-92699211D01*
X76529254Y-92639631D01*
X76529249Y-92639630D01*
X76350004Y-92619435D01*
X76349996Y-92619435D01*
X76170750Y-92639630D01*
X76170742Y-92639632D01*
X76065306Y-92676526D01*
X75995527Y-92680087D01*
X75934900Y-92645358D01*
X75919358Y-92625456D01*
X75865431Y-92539632D01*
X75854816Y-92522738D01*
X75814259Y-92482181D01*
X75780774Y-92420858D01*
X75785758Y-92351166D01*
X75827630Y-92295233D01*
X75893094Y-92270816D01*
X75901940Y-92270500D01*
X76522599Y-92270500D01*
X76522601Y-92270500D01*
X76643536Y-92238095D01*
X76751964Y-92175495D01*
X76840495Y-92086964D01*
X76903095Y-91978536D01*
X76935500Y-91857601D01*
X76935500Y-91795000D01*
X78059906Y-91795000D01*
X78078215Y-91945791D01*
X78132079Y-92087819D01*
X78218368Y-92212830D01*
X78332066Y-92313557D01*
X78466566Y-92384148D01*
X78511341Y-92395184D01*
X78614050Y-92420500D01*
X78614051Y-92420500D01*
X78765950Y-92420500D01*
X78815110Y-92408382D01*
X78913434Y-92384148D01*
X79047934Y-92313557D01*
X79161632Y-92212830D01*
X79247921Y-92087819D01*
X79301785Y-91945791D01*
X79320094Y-91795000D01*
X79301785Y-91644209D01*
X79247921Y-91502181D01*
X79161632Y-91377170D01*
X79047934Y-91276443D01*
X78913434Y-91205852D01*
X78913433Y-91205851D01*
X78913432Y-91205851D01*
X78765950Y-91169500D01*
X78765949Y-91169500D01*
X78614051Y-91169500D01*
X78614050Y-91169500D01*
X78466567Y-91205851D01*
X78332067Y-91276442D01*
X78332066Y-91276443D01*
X78246887Y-91351905D01*
X78218367Y-91377171D01*
X78132080Y-91502179D01*
X78132079Y-91502180D01*
X78078215Y-91644208D01*
X78071584Y-91698818D01*
X78059906Y-91795000D01*
X76935500Y-91795000D01*
X76935500Y-91732399D01*
X76903095Y-91611464D01*
X76840495Y-91503036D01*
X76751964Y-91414505D01*
X76643536Y-91351905D01*
X76643537Y-91351905D01*
X76587832Y-91336979D01*
X76522601Y-91319500D01*
X74897399Y-91319500D01*
X74832168Y-91336979D01*
X74776463Y-91351905D01*
X74668037Y-91414504D01*
X74668034Y-91414506D01*
X74579506Y-91503034D01*
X74579504Y-91503037D01*
X74516905Y-91611463D01*
X74507185Y-91647738D01*
X74484500Y-91732399D01*
X74484500Y-91857601D01*
X74509383Y-91950465D01*
X74516905Y-91978536D01*
X74579504Y-92086962D01*
X74579506Y-92086965D01*
X74668036Y-92175495D01*
X74702051Y-92195133D01*
X74750267Y-92245700D01*
X74763491Y-92314307D01*
X74737523Y-92379172D01*
X74727145Y-92389743D01*
X74727662Y-92390260D01*
X74595184Y-92522737D01*
X74499211Y-92675476D01*
X74439631Y-92845745D01*
X74439630Y-92845750D01*
X74419435Y-93024996D01*
X73500500Y-93024996D01*
X73500500Y-88599996D01*
X77544435Y-88599996D01*
X77544435Y-88600003D01*
X77564630Y-88779249D01*
X77564631Y-88779254D01*
X77624211Y-88949523D01*
X77718462Y-89099522D01*
X77720184Y-89102262D01*
X77847738Y-89229816D01*
X77938080Y-89286582D01*
X77992450Y-89320745D01*
X78000478Y-89325789D01*
X78154878Y-89379816D01*
X78170745Y-89385368D01*
X78170750Y-89385369D01*
X78314647Y-89401582D01*
X78379061Y-89428648D01*
X78418616Y-89486243D01*
X78420754Y-89556080D01*
X78401221Y-89595106D01*
X78401942Y-89595560D01*
X78302264Y-89754194D01*
X78242684Y-89924463D01*
X78242683Y-89924468D01*
X78222488Y-90103714D01*
X78222488Y-90103721D01*
X78242683Y-90282967D01*
X78242684Y-90282972D01*
X78302264Y-90453241D01*
X78350796Y-90530478D01*
X78398237Y-90605980D01*
X78525791Y-90733534D01*
X78678531Y-90829507D01*
X78820700Y-90879254D01*
X78848798Y-90889086D01*
X78848803Y-90889087D01*
X79028049Y-90909283D01*
X79028053Y-90909283D01*
X79028057Y-90909283D01*
X79207302Y-90889087D01*
X79207305Y-90889086D01*
X79207308Y-90889086D01*
X79377575Y-90829507D01*
X79530315Y-90733534D01*
X79563853Y-90699996D01*
X86694435Y-90699996D01*
X86694435Y-90700003D01*
X86714630Y-90879249D01*
X86714631Y-90879254D01*
X86774211Y-91049523D01*
X86837346Y-91150001D01*
X86870184Y-91202262D01*
X86997738Y-91329816D01*
X87073101Y-91377170D01*
X87147966Y-91424211D01*
X87150478Y-91425789D01*
X87264423Y-91465660D01*
X87320745Y-91485368D01*
X87320750Y-91485369D01*
X87499996Y-91505565D01*
X87500000Y-91505565D01*
X87500004Y-91505565D01*
X87679249Y-91485369D01*
X87679252Y-91485368D01*
X87679255Y-91485368D01*
X87849522Y-91425789D01*
X88002262Y-91329816D01*
X88129816Y-91202262D01*
X88162658Y-91149995D01*
X90544435Y-91149995D01*
X90544435Y-91150002D01*
X90564630Y-91329248D01*
X90564631Y-91329253D01*
X90624211Y-91499522D01*
X90715124Y-91644208D01*
X90720184Y-91652261D01*
X90847738Y-91779815D01*
X90903149Y-91814632D01*
X90971533Y-91857601D01*
X91000478Y-91875788D01*
X91069572Y-91899965D01*
X91170745Y-91935367D01*
X91170750Y-91935368D01*
X91349996Y-91955564D01*
X91350000Y-91955564D01*
X91350004Y-91955564D01*
X91529249Y-91935368D01*
X91529252Y-91935367D01*
X91529255Y-91935367D01*
X91699522Y-91875788D01*
X91852262Y-91779815D01*
X91979816Y-91652261D01*
X92075789Y-91499521D01*
X92135368Y-91329254D01*
X92135368Y-91329251D01*
X92135369Y-91329248D01*
X92155565Y-91150002D01*
X92155565Y-91149997D01*
X95894435Y-91149997D01*
X95894435Y-91150004D01*
X95914630Y-91329250D01*
X95914631Y-91329255D01*
X95974211Y-91499524D01*
X96070184Y-91652263D01*
X96202662Y-91784741D01*
X96200932Y-91786470D01*
X96234528Y-91834325D01*
X96237384Y-91904136D01*
X96234120Y-91915047D01*
X96214631Y-91970745D01*
X96214631Y-91970746D01*
X96194435Y-92149996D01*
X96194435Y-92150003D01*
X96214630Y-92329249D01*
X96214631Y-92329254D01*
X96274211Y-92499523D01*
X96337646Y-92600478D01*
X96370184Y-92652262D01*
X96497738Y-92779816D01*
X96650478Y-92875789D01*
X96777349Y-92920183D01*
X96820745Y-92935368D01*
X96820750Y-92935369D01*
X96999996Y-92955565D01*
X97000000Y-92955565D01*
X97000004Y-92955565D01*
X97179249Y-92935369D01*
X97179252Y-92935368D01*
X97179255Y-92935368D01*
X97349522Y-92875789D01*
X97502262Y-92779816D01*
X97629816Y-92652262D01*
X97725789Y-92499522D01*
X97785368Y-92329255D01*
X97786390Y-92320184D01*
X97805565Y-92150003D01*
X97805565Y-92149996D01*
X99095906Y-92149996D01*
X99095906Y-92150003D01*
X99116101Y-92329249D01*
X99116102Y-92329254D01*
X99175682Y-92499523D01*
X99239117Y-92600478D01*
X99271655Y-92652262D01*
X99399209Y-92779816D01*
X99551949Y-92875789D01*
X99678820Y-92920183D01*
X99722216Y-92935368D01*
X99722221Y-92935369D01*
X99901467Y-92955565D01*
X99901471Y-92955565D01*
X99901475Y-92955565D01*
X100080720Y-92935369D01*
X100080723Y-92935368D01*
X100080726Y-92935368D01*
X100250993Y-92875789D01*
X100403733Y-92779816D01*
X100531287Y-92652262D01*
X100627260Y-92499522D01*
X100686839Y-92329255D01*
X100687861Y-92320184D01*
X100707036Y-92150003D01*
X100707036Y-92149997D01*
X100699512Y-92083222D01*
X100711566Y-92014400D01*
X100758915Y-91963021D01*
X100808849Y-91946118D01*
X100904249Y-91935369D01*
X100904252Y-91935368D01*
X100904255Y-91935368D01*
X101074522Y-91875789D01*
X101227262Y-91779816D01*
X101354816Y-91652262D01*
X101450789Y-91499522D01*
X101510368Y-91329255D01*
X101515287Y-91285600D01*
X101530565Y-91150003D01*
X101530565Y-91149996D01*
X101510369Y-90970750D01*
X101510368Y-90970745D01*
X101510368Y-90970744D01*
X101478614Y-90879996D01*
X110434435Y-90879996D01*
X110434435Y-90880003D01*
X110454630Y-91059249D01*
X110454631Y-91059254D01*
X110514211Y-91229523D01*
X110591109Y-91351905D01*
X110610184Y-91382262D01*
X110737738Y-91509816D01*
X110754239Y-91520184D01*
X110849487Y-91580033D01*
X110890478Y-91605789D01*
X111023290Y-91652262D01*
X111060745Y-91665368D01*
X111060750Y-91665369D01*
X111117399Y-91671752D01*
X111181813Y-91698818D01*
X111221369Y-91756413D01*
X111223506Y-91826250D01*
X111187548Y-91886157D01*
X111169489Y-91899965D01*
X111057739Y-91970182D01*
X110930184Y-92097737D01*
X110834211Y-92250476D01*
X110774631Y-92420745D01*
X110774630Y-92420750D01*
X110754435Y-92599996D01*
X110754435Y-92600003D01*
X110774630Y-92779249D01*
X110774631Y-92779254D01*
X110834211Y-92949523D01*
X110912558Y-93074211D01*
X110930184Y-93102262D01*
X111057738Y-93229816D01*
X111083089Y-93245745D01*
X111165833Y-93297737D01*
X111210478Y-93325789D01*
X111349749Y-93374522D01*
X111380745Y-93385368D01*
X111380750Y-93385369D01*
X111559996Y-93405565D01*
X111560000Y-93405565D01*
X111560004Y-93405565D01*
X111739249Y-93385369D01*
X111739252Y-93385368D01*
X111739255Y-93385368D01*
X111909522Y-93325789D01*
X112062262Y-93229816D01*
X112189816Y-93102262D01*
X112285789Y-92949522D01*
X112345368Y-92779255D01*
X112345369Y-92779249D01*
X112365565Y-92600003D01*
X112365565Y-92599996D01*
X112345369Y-92420750D01*
X112345368Y-92420745D01*
X112301449Y-92295233D01*
X112285789Y-92250478D01*
X112189816Y-92097738D01*
X112062262Y-91970184D01*
X112038996Y-91955565D01*
X111909523Y-91874211D01*
X111739254Y-91814631D01*
X111739250Y-91814630D01*
X111682598Y-91808247D01*
X111618184Y-91781179D01*
X111578630Y-91723584D01*
X111576493Y-91653747D01*
X111612452Y-91593841D01*
X111630504Y-91580037D01*
X111742262Y-91509816D01*
X111869816Y-91382262D01*
X111965789Y-91229522D01*
X112025368Y-91059255D01*
X112035340Y-90970749D01*
X112045565Y-90880003D01*
X112045565Y-90879996D01*
X112025369Y-90700750D01*
X112025368Y-90700745D01*
X111965788Y-90530476D01*
X111917257Y-90453240D01*
X111869816Y-90377738D01*
X111742262Y-90250184D01*
X111658795Y-90197738D01*
X111589523Y-90154211D01*
X111419254Y-90094631D01*
X111419249Y-90094630D01*
X111240004Y-90074435D01*
X111239996Y-90074435D01*
X111060750Y-90094630D01*
X111060745Y-90094631D01*
X110890476Y-90154211D01*
X110737737Y-90250184D01*
X110610184Y-90377737D01*
X110514211Y-90530476D01*
X110454631Y-90700745D01*
X110454630Y-90700750D01*
X110434435Y-90879996D01*
X101478614Y-90879996D01*
X101450789Y-90800478D01*
X101354816Y-90647738D01*
X101227262Y-90520184D01*
X101227260Y-90520183D01*
X101074523Y-90424211D01*
X100904254Y-90364631D01*
X100904249Y-90364630D01*
X100725004Y-90344435D01*
X100724996Y-90344435D01*
X100545750Y-90364630D01*
X100545745Y-90364631D01*
X100375476Y-90424211D01*
X100222737Y-90520184D01*
X100095184Y-90647737D01*
X99999211Y-90800476D01*
X99939631Y-90970745D01*
X99939630Y-90970750D01*
X99919435Y-91149996D01*
X99919435Y-91150004D01*
X99926958Y-91216778D01*
X99914903Y-91285600D01*
X99867554Y-91336979D01*
X99817622Y-91353881D01*
X99722220Y-91364630D01*
X99722216Y-91364631D01*
X99551947Y-91424211D01*
X99399208Y-91520184D01*
X99271655Y-91647737D01*
X99175682Y-91800476D01*
X99116102Y-91970745D01*
X99116101Y-91970750D01*
X99095906Y-92149996D01*
X97805565Y-92149996D01*
X97785369Y-91970750D01*
X97785368Y-91970745D01*
X97765878Y-91915047D01*
X97725789Y-91800478D01*
X97629816Y-91647738D01*
X97502262Y-91520184D01*
X97497338Y-91515260D01*
X97499064Y-91513533D01*
X97465466Y-91465660D01*
X97462618Y-91395849D01*
X97465874Y-91384964D01*
X97485368Y-91329256D01*
X97485369Y-91329248D01*
X97505565Y-91150004D01*
X97505565Y-91149997D01*
X97485369Y-90970751D01*
X97485368Y-90970746D01*
X97456794Y-90889086D01*
X97425789Y-90800479D01*
X97425786Y-90800475D01*
X97329815Y-90647738D01*
X97202262Y-90520185D01*
X97049523Y-90424212D01*
X96879254Y-90364632D01*
X96879249Y-90364631D01*
X96700004Y-90344436D01*
X96699996Y-90344436D01*
X96520750Y-90364631D01*
X96520745Y-90364632D01*
X96350476Y-90424212D01*
X96197737Y-90520185D01*
X96070184Y-90647738D01*
X95974211Y-90800477D01*
X95914631Y-90970746D01*
X95914630Y-90970751D01*
X95894435Y-91149997D01*
X92155565Y-91149997D01*
X92155565Y-91149995D01*
X92135369Y-90970749D01*
X92135368Y-90970744D01*
X92106795Y-90889087D01*
X92075789Y-90800477D01*
X91979816Y-90647737D01*
X91852262Y-90520183D01*
X91745725Y-90453241D01*
X91699523Y-90424210D01*
X91529254Y-90364630D01*
X91529249Y-90364629D01*
X91350004Y-90344434D01*
X91349996Y-90344434D01*
X91170750Y-90364629D01*
X91170745Y-90364630D01*
X91000476Y-90424210D01*
X90847737Y-90520183D01*
X90720184Y-90647736D01*
X90624211Y-90800475D01*
X90564631Y-90970744D01*
X90564630Y-90970749D01*
X90544435Y-91149995D01*
X88162658Y-91149995D01*
X88225789Y-91049522D01*
X88285368Y-90879255D01*
X88285369Y-90879249D01*
X88305565Y-90700003D01*
X88305565Y-90699996D01*
X88285369Y-90520750D01*
X88285366Y-90520737D01*
X88247206Y-90411682D01*
X88243644Y-90341903D01*
X88278372Y-90281276D01*
X88340366Y-90249048D01*
X88405202Y-90253686D01*
X88495737Y-90285366D01*
X88495743Y-90285367D01*
X88495745Y-90285368D01*
X88495746Y-90285368D01*
X88495750Y-90285369D01*
X88674996Y-90305565D01*
X88675000Y-90305565D01*
X88675004Y-90305565D01*
X88854249Y-90285369D01*
X88854252Y-90285368D01*
X88854255Y-90285368D01*
X89024522Y-90225789D01*
X89177262Y-90129816D01*
X89304816Y-90002262D01*
X89400789Y-89849522D01*
X89460368Y-89679255D01*
X89469798Y-89595560D01*
X89480565Y-89500003D01*
X89480565Y-89499996D01*
X89460369Y-89320750D01*
X89460368Y-89320745D01*
X89436405Y-89252262D01*
X89400789Y-89150478D01*
X89374483Y-89108613D01*
X89361582Y-89088080D01*
X89304816Y-88997738D01*
X89177262Y-88870184D01*
X89112124Y-88829255D01*
X89024523Y-88774211D01*
X88955321Y-88749996D01*
X90569435Y-88749996D01*
X90569435Y-88750003D01*
X90589630Y-88929249D01*
X90589631Y-88929254D01*
X90649211Y-89099523D01*
X90731080Y-89229815D01*
X90745184Y-89252262D01*
X90872738Y-89379816D01*
X90950454Y-89428648D01*
X91022474Y-89473902D01*
X91025478Y-89475789D01*
X91094678Y-89500003D01*
X91195745Y-89535368D01*
X91195750Y-89535369D01*
X91374996Y-89555565D01*
X91375000Y-89555565D01*
X91375004Y-89555565D01*
X91554249Y-89535369D01*
X91554252Y-89535368D01*
X91554255Y-89535368D01*
X91724522Y-89475789D01*
X91877262Y-89379816D01*
X92004816Y-89252262D01*
X92100789Y-89099522D01*
X92160368Y-88929255D01*
X92167024Y-88870184D01*
X92180565Y-88750003D01*
X92180565Y-88749996D01*
X92160369Y-88570750D01*
X92160368Y-88570745D01*
X92107882Y-88420750D01*
X92100789Y-88400478D01*
X92004816Y-88247738D01*
X91877262Y-88120184D01*
X91724523Y-88024211D01*
X91554254Y-87964631D01*
X91554249Y-87964630D01*
X91424362Y-87949996D01*
X96594435Y-87949996D01*
X96594435Y-87950003D01*
X96614630Y-88129249D01*
X96614631Y-88129254D01*
X96674211Y-88299523D01*
X96750384Y-88420750D01*
X96770184Y-88452262D01*
X96897738Y-88579816D01*
X97050478Y-88675789D01*
X97161479Y-88714630D01*
X97220745Y-88735368D01*
X97220750Y-88735369D01*
X97399996Y-88755565D01*
X97400000Y-88755565D01*
X97400004Y-88755565D01*
X97579249Y-88735369D01*
X97579252Y-88735368D01*
X97579255Y-88735368D01*
X97749522Y-88675789D01*
X97790571Y-88649996D01*
X103669435Y-88649996D01*
X103669435Y-88650003D01*
X103689630Y-88829249D01*
X103689631Y-88829254D01*
X103749211Y-88999523D01*
X103817757Y-89108613D01*
X103845184Y-89152262D01*
X103972738Y-89279816D01*
X104125478Y-89375789D01*
X104210573Y-89405565D01*
X104295745Y-89435368D01*
X104295750Y-89435369D01*
X104474996Y-89455565D01*
X104475000Y-89455565D01*
X104475004Y-89455565D01*
X104654249Y-89435369D01*
X104654252Y-89435368D01*
X104654255Y-89435368D01*
X104824522Y-89375789D01*
X104977262Y-89279816D01*
X105104816Y-89152262D01*
X105200789Y-88999522D01*
X105260368Y-88829255D01*
X105266002Y-88779254D01*
X105280565Y-88650003D01*
X105280565Y-88649996D01*
X105260369Y-88470750D01*
X105260368Y-88470745D01*
X105200789Y-88300478D01*
X105200188Y-88299522D01*
X105104815Y-88147737D01*
X104977262Y-88020184D01*
X104824523Y-87924211D01*
X104654254Y-87864631D01*
X104654249Y-87864630D01*
X104475004Y-87844435D01*
X104474996Y-87844435D01*
X104295750Y-87864630D01*
X104295745Y-87864631D01*
X104125476Y-87924211D01*
X103972737Y-88020184D01*
X103845184Y-88147737D01*
X103749211Y-88300476D01*
X103689631Y-88470745D01*
X103689630Y-88470750D01*
X103669435Y-88649996D01*
X97790571Y-88649996D01*
X97902262Y-88579816D01*
X98029816Y-88452262D01*
X98125789Y-88299522D01*
X98185368Y-88129255D01*
X98188919Y-88097738D01*
X98205565Y-87950003D01*
X98205565Y-87949996D01*
X98185369Y-87770750D01*
X98185368Y-87770745D01*
X98125789Y-87600478D01*
X98029816Y-87447738D01*
X97902262Y-87320184D01*
X97878996Y-87305565D01*
X97749523Y-87224211D01*
X97579254Y-87164631D01*
X97579249Y-87164630D01*
X97400004Y-87144435D01*
X97399996Y-87144435D01*
X97220750Y-87164630D01*
X97220745Y-87164631D01*
X97050476Y-87224211D01*
X96897737Y-87320184D01*
X96770184Y-87447737D01*
X96674211Y-87600476D01*
X96614631Y-87770745D01*
X96614630Y-87770750D01*
X96594435Y-87949996D01*
X91424362Y-87949996D01*
X91375004Y-87944435D01*
X91374996Y-87944435D01*
X91195750Y-87964630D01*
X91195745Y-87964631D01*
X91025476Y-88024211D01*
X90872737Y-88120184D01*
X90745184Y-88247737D01*
X90649211Y-88400476D01*
X90589631Y-88570745D01*
X90589630Y-88570750D01*
X90569435Y-88749996D01*
X88955321Y-88749996D01*
X88854254Y-88714631D01*
X88854249Y-88714630D01*
X88675004Y-88694435D01*
X88674996Y-88694435D01*
X88495750Y-88714630D01*
X88495745Y-88714631D01*
X88325476Y-88774211D01*
X88172737Y-88870184D01*
X88045184Y-88997737D01*
X87949211Y-89150476D01*
X87889631Y-89320745D01*
X87889630Y-89320750D01*
X87869435Y-89499996D01*
X87869435Y-89500003D01*
X87889630Y-89679249D01*
X87889632Y-89679257D01*
X87927794Y-89788318D01*
X87931355Y-89858097D01*
X87896626Y-89918724D01*
X87834633Y-89950951D01*
X87769797Y-89946314D01*
X87679254Y-89914631D01*
X87679249Y-89914630D01*
X87500004Y-89894435D01*
X87499996Y-89894435D01*
X87320750Y-89914630D01*
X87320745Y-89914631D01*
X87150476Y-89974211D01*
X86997737Y-90070184D01*
X86870184Y-90197737D01*
X86774211Y-90350476D01*
X86714631Y-90520745D01*
X86714630Y-90520750D01*
X86694435Y-90699996D01*
X79563853Y-90699996D01*
X79657869Y-90605980D01*
X79753842Y-90453240D01*
X79813421Y-90282973D01*
X79813422Y-90282967D01*
X79833618Y-90103721D01*
X79833618Y-90103714D01*
X79813422Y-89924468D01*
X79813421Y-89924463D01*
X79802914Y-89894435D01*
X79753842Y-89754196D01*
X79657869Y-89601456D01*
X79530315Y-89473902D01*
X79501132Y-89455565D01*
X79377576Y-89377929D01*
X79207307Y-89318349D01*
X79207303Y-89318348D01*
X79063404Y-89302135D01*
X78998990Y-89275068D01*
X78959435Y-89217473D01*
X78957298Y-89147636D01*
X78976835Y-89108613D01*
X78976111Y-89108158D01*
X78981537Y-89099523D01*
X79075789Y-88949522D01*
X79135368Y-88779255D01*
X79135369Y-88779249D01*
X79155565Y-88600003D01*
X79155565Y-88599996D01*
X79135369Y-88420750D01*
X79135368Y-88420745D01*
X79093284Y-88300476D01*
X79075789Y-88250478D01*
X79074067Y-88247738D01*
X78999619Y-88129254D01*
X78979816Y-88097738D01*
X78852262Y-87970184D01*
X78843426Y-87964632D01*
X78699523Y-87874211D01*
X78529254Y-87814631D01*
X78529249Y-87814630D01*
X78350004Y-87794435D01*
X78349996Y-87794435D01*
X78170750Y-87814630D01*
X78170745Y-87814631D01*
X78000476Y-87874211D01*
X77847737Y-87970184D01*
X77720184Y-88097737D01*
X77624211Y-88250476D01*
X77564631Y-88420745D01*
X77564630Y-88420750D01*
X77544435Y-88599996D01*
X73500500Y-88599996D01*
X73500500Y-83799996D01*
X77244435Y-83799996D01*
X77244435Y-83800003D01*
X77264630Y-83979249D01*
X77264631Y-83979254D01*
X77324211Y-84149523D01*
X77420184Y-84302262D01*
X77547740Y-84429818D01*
X77596974Y-84460753D01*
X77643266Y-84513087D01*
X77653915Y-84582141D01*
X77635999Y-84631715D01*
X77624210Y-84650478D01*
X77564633Y-84820737D01*
X77564630Y-84820750D01*
X77544435Y-84999996D01*
X77544435Y-85000003D01*
X77564630Y-85179249D01*
X77564633Y-85179262D01*
X77626510Y-85356094D01*
X77624364Y-85356844D01*
X77633962Y-85415144D01*
X77625609Y-85443590D01*
X77626510Y-85443906D01*
X77564633Y-85620737D01*
X77564630Y-85620750D01*
X77544435Y-85799996D01*
X77544435Y-85800003D01*
X77564630Y-85979249D01*
X77564631Y-85979254D01*
X77624211Y-86149523D01*
X77674369Y-86229348D01*
X77720184Y-86302262D01*
X77847738Y-86429816D01*
X78000478Y-86525789D01*
X78071044Y-86550481D01*
X78170745Y-86585368D01*
X78170750Y-86585369D01*
X78349996Y-86605565D01*
X78350000Y-86605565D01*
X78350004Y-86605565D01*
X78529249Y-86585369D01*
X78529252Y-86585368D01*
X78529255Y-86585368D01*
X78699522Y-86525789D01*
X78852262Y-86429816D01*
X78907080Y-86374998D01*
X81844532Y-86374998D01*
X81844532Y-86375001D01*
X81864364Y-86601686D01*
X81864366Y-86601697D01*
X81923258Y-86821488D01*
X81923261Y-86821497D01*
X82019431Y-87027732D01*
X82019432Y-87027734D01*
X82149954Y-87214141D01*
X82310858Y-87375045D01*
X82310861Y-87375047D01*
X82497266Y-87505568D01*
X82703504Y-87601739D01*
X82923308Y-87660635D01*
X83085230Y-87674801D01*
X83149998Y-87680468D01*
X83150000Y-87680468D01*
X83150002Y-87680468D01*
X83206673Y-87675509D01*
X83376692Y-87660635D01*
X83596496Y-87601739D01*
X83802734Y-87505568D01*
X83989139Y-87375047D01*
X84150047Y-87214139D01*
X84280568Y-87027734D01*
X84376739Y-86821496D01*
X84408287Y-86703753D01*
X84444651Y-86644095D01*
X84507498Y-86613565D01*
X84576874Y-86621859D01*
X84630752Y-86666344D01*
X84645104Y-86694893D01*
X84699211Y-86849523D01*
X84730926Y-86899996D01*
X84795184Y-87002262D01*
X84922738Y-87129816D01*
X85013080Y-87186582D01*
X85072966Y-87224211D01*
X85075478Y-87225789D01*
X85143306Y-87249523D01*
X85245745Y-87285368D01*
X85245750Y-87285369D01*
X85424996Y-87305565D01*
X85425000Y-87305565D01*
X85425004Y-87305565D01*
X85604249Y-87285369D01*
X85604252Y-87285368D01*
X85604255Y-87285368D01*
X85774522Y-87225789D01*
X85927262Y-87129816D01*
X86054816Y-87002262D01*
X86119074Y-86899996D01*
X87819435Y-86899996D01*
X87819435Y-86900003D01*
X87839630Y-87079249D01*
X87839631Y-87079254D01*
X87899211Y-87249523D01*
X87921735Y-87285369D01*
X87995184Y-87402262D01*
X88122738Y-87529816D01*
X88213080Y-87586582D01*
X88235192Y-87600476D01*
X88275478Y-87625789D01*
X88431742Y-87680468D01*
X88445745Y-87685368D01*
X88445750Y-87685369D01*
X88624996Y-87705565D01*
X88625000Y-87705565D01*
X88625004Y-87705565D01*
X88804249Y-87685369D01*
X88804252Y-87685368D01*
X88804255Y-87685368D01*
X88974522Y-87625789D01*
X89127262Y-87529816D01*
X89254816Y-87402262D01*
X89350789Y-87249522D01*
X89410368Y-87079255D01*
X89416173Y-87027734D01*
X89430565Y-86900003D01*
X89430565Y-86899996D01*
X89410369Y-86720750D01*
X89410368Y-86720745D01*
X89368711Y-86601697D01*
X89350789Y-86550478D01*
X89325898Y-86510864D01*
X89306898Y-86443628D01*
X89325898Y-86378921D01*
X89344073Y-86349996D01*
X109844435Y-86349996D01*
X109844435Y-86350003D01*
X109864630Y-86529249D01*
X109864631Y-86529254D01*
X109924211Y-86699523D01*
X109937541Y-86720737D01*
X110020184Y-86852262D01*
X110147738Y-86979816D01*
X110300478Y-87075789D01*
X110454878Y-87129816D01*
X110470745Y-87135368D01*
X110470750Y-87135369D01*
X110649996Y-87155565D01*
X110650000Y-87155565D01*
X110650004Y-87155565D01*
X110829249Y-87135369D01*
X110829252Y-87135368D01*
X110829255Y-87135368D01*
X110999522Y-87075789D01*
X111152262Y-86979816D01*
X111279816Y-86852262D01*
X111375789Y-86699522D01*
X111435368Y-86529255D01*
X111438664Y-86500003D01*
X111455565Y-86350003D01*
X111455565Y-86349996D01*
X111435369Y-86170750D01*
X111435368Y-86170745D01*
X111420848Y-86129249D01*
X111375789Y-86000478D01*
X111374067Y-85997738D01*
X111322639Y-85915890D01*
X111279816Y-85847738D01*
X111152262Y-85720184D01*
X111143426Y-85714632D01*
X110999523Y-85624211D01*
X110829254Y-85564631D01*
X110829249Y-85564630D01*
X110650004Y-85544435D01*
X110649996Y-85544435D01*
X110470750Y-85564630D01*
X110470745Y-85564631D01*
X110300476Y-85624211D01*
X110147737Y-85720184D01*
X110020184Y-85847737D01*
X109924211Y-86000476D01*
X109864631Y-86170745D01*
X109864630Y-86170750D01*
X109844435Y-86349996D01*
X89344073Y-86349996D01*
X89375789Y-86299522D01*
X89435368Y-86129255D01*
X89435369Y-86129249D01*
X89455565Y-85950003D01*
X89455565Y-85949996D01*
X89435369Y-85770750D01*
X89435368Y-85770745D01*
X89415733Y-85714631D01*
X89375789Y-85600478D01*
X89359480Y-85574523D01*
X89333611Y-85533352D01*
X89279816Y-85447738D01*
X89152262Y-85320184D01*
X89121395Y-85300789D01*
X88999523Y-85224211D01*
X88829254Y-85164631D01*
X88829249Y-85164630D01*
X88650004Y-85144435D01*
X88650003Y-85144435D01*
X88650001Y-85144435D01*
X88650000Y-85144435D01*
X88624121Y-85147350D01*
X88616477Y-85148212D01*
X88547655Y-85136156D01*
X88520291Y-85110937D01*
X88516246Y-85123302D01*
X88462068Y-85167421D01*
X88454985Y-85170145D01*
X88300480Y-85224209D01*
X88147737Y-85320184D01*
X88020184Y-85447737D01*
X87924211Y-85600476D01*
X87864631Y-85770745D01*
X87864630Y-85770750D01*
X87844435Y-85949996D01*
X87844435Y-85950003D01*
X87864630Y-86129249D01*
X87864631Y-86129254D01*
X87924212Y-86299525D01*
X87949100Y-86339135D01*
X87968100Y-86406372D01*
X87949100Y-86471077D01*
X87899213Y-86550472D01*
X87899209Y-86550481D01*
X87839633Y-86720737D01*
X87839630Y-86720750D01*
X87819435Y-86899996D01*
X86119074Y-86899996D01*
X86150789Y-86849522D01*
X86210368Y-86679255D01*
X86216835Y-86621859D01*
X86230565Y-86500003D01*
X86230565Y-86499996D01*
X86210369Y-86320750D01*
X86210368Y-86320745D01*
X86208844Y-86316391D01*
X86150789Y-86150478D01*
X86150188Y-86149522D01*
X86111582Y-86088080D01*
X86054816Y-85997738D01*
X85927262Y-85870184D01*
X85902804Y-85854816D01*
X85790274Y-85784108D01*
X86369500Y-85784108D01*
X86369500Y-85915892D01*
X86372881Y-85928511D01*
X86403608Y-86043187D01*
X86436554Y-86100250D01*
X86469500Y-86157314D01*
X86562686Y-86250500D01*
X86676814Y-86316392D01*
X86804108Y-86350500D01*
X86804110Y-86350500D01*
X86935890Y-86350500D01*
X86935892Y-86350500D01*
X87063186Y-86316392D01*
X87177314Y-86250500D01*
X87270500Y-86157314D01*
X87336392Y-86043186D01*
X87370500Y-85915892D01*
X87370500Y-85784108D01*
X87336392Y-85656814D01*
X87270500Y-85542686D01*
X87177314Y-85449500D01*
X87098939Y-85404250D01*
X87063187Y-85383608D01*
X86961684Y-85356411D01*
X86935892Y-85349500D01*
X86804108Y-85349500D01*
X86676812Y-85383608D01*
X86562686Y-85449500D01*
X86562683Y-85449502D01*
X86469502Y-85542683D01*
X86469500Y-85542686D01*
X86403608Y-85656812D01*
X86373081Y-85770745D01*
X86369500Y-85784108D01*
X85790274Y-85784108D01*
X85774523Y-85774211D01*
X85604254Y-85714631D01*
X85604249Y-85714630D01*
X85425004Y-85694435D01*
X85424996Y-85694435D01*
X85245750Y-85714630D01*
X85245745Y-85714631D01*
X85075476Y-85774211D01*
X84922737Y-85870184D01*
X84795184Y-85997737D01*
X84699209Y-86150479D01*
X84678847Y-86208671D01*
X84638125Y-86265446D01*
X84573172Y-86291193D01*
X84504610Y-86277736D01*
X84454208Y-86229348D01*
X84438278Y-86178521D01*
X84436423Y-86157314D01*
X84435635Y-86148308D01*
X84376739Y-85928504D01*
X84280568Y-85722266D01*
X84177116Y-85574520D01*
X84150045Y-85535858D01*
X83989141Y-85374954D01*
X83802734Y-85244432D01*
X83802732Y-85244431D01*
X83596497Y-85148261D01*
X83596488Y-85148258D01*
X83376697Y-85089366D01*
X83376693Y-85089365D01*
X83376692Y-85089365D01*
X83376691Y-85089364D01*
X83376686Y-85089364D01*
X83150002Y-85069532D01*
X83149998Y-85069532D01*
X82923313Y-85089364D01*
X82923302Y-85089366D01*
X82703511Y-85148258D01*
X82703502Y-85148261D01*
X82497267Y-85244431D01*
X82497265Y-85244432D01*
X82310858Y-85374954D01*
X82149954Y-85535858D01*
X82019432Y-85722265D01*
X82019431Y-85722267D01*
X81923261Y-85928502D01*
X81923258Y-85928511D01*
X81864366Y-86148302D01*
X81864364Y-86148313D01*
X81844532Y-86374998D01*
X78907080Y-86374998D01*
X78979816Y-86302262D01*
X79075789Y-86149522D01*
X79135368Y-85979255D01*
X79135369Y-85979249D01*
X79155565Y-85800003D01*
X79155565Y-85799996D01*
X79135369Y-85620750D01*
X79135366Y-85620737D01*
X79073489Y-85443905D01*
X79075637Y-85443153D01*
X79066035Y-85384872D01*
X79074392Y-85356411D01*
X79073489Y-85356095D01*
X79135366Y-85179262D01*
X79135369Y-85179249D01*
X79155565Y-85000003D01*
X79155565Y-84999996D01*
X79141481Y-84874996D01*
X80169435Y-84874996D01*
X80169435Y-84875003D01*
X80189630Y-85054249D01*
X80189631Y-85054254D01*
X80249211Y-85224523D01*
X80334569Y-85360368D01*
X80345184Y-85377262D01*
X80472738Y-85504816D01*
X80518153Y-85533352D01*
X80624979Y-85600476D01*
X80625478Y-85600789D01*
X80785583Y-85656812D01*
X80795745Y-85660368D01*
X80795750Y-85660369D01*
X80974996Y-85680565D01*
X80975000Y-85680565D01*
X80975004Y-85680565D01*
X81154249Y-85660369D01*
X81154252Y-85660368D01*
X81154255Y-85660368D01*
X81324522Y-85600789D01*
X81477262Y-85504816D01*
X81604816Y-85377262D01*
X81700789Y-85224522D01*
X81760368Y-85054255D01*
X81760369Y-85054249D01*
X81780565Y-84875003D01*
X81780565Y-84874996D01*
X81760369Y-84695750D01*
X81760368Y-84695745D01*
X81720616Y-84582141D01*
X81700789Y-84525478D01*
X81669149Y-84475124D01*
X81640682Y-84429818D01*
X81604816Y-84372738D01*
X81477262Y-84245184D01*
X81354861Y-84168274D01*
X81324523Y-84149211D01*
X81264169Y-84128092D01*
X87561061Y-84128092D01*
X87561061Y-84128099D01*
X87581256Y-84307345D01*
X87581257Y-84307350D01*
X87640837Y-84477619D01*
X87702026Y-84575000D01*
X87736810Y-84630358D01*
X87864364Y-84757912D01*
X88017104Y-84853885D01*
X88171610Y-84907949D01*
X88187371Y-84913464D01*
X88187376Y-84913465D01*
X88366622Y-84933661D01*
X88366626Y-84933661D01*
X88366627Y-84933661D01*
X88374774Y-84932742D01*
X88400146Y-84929884D01*
X88468967Y-84941938D01*
X88496334Y-84967157D01*
X88500381Y-84954790D01*
X88554560Y-84910673D01*
X88561631Y-84907952D01*
X88716148Y-84853885D01*
X88868888Y-84757912D01*
X88996442Y-84630358D01*
X89031228Y-84574996D01*
X103119435Y-84574996D01*
X103119435Y-84575003D01*
X103139630Y-84754249D01*
X103139631Y-84754254D01*
X103199211Y-84924523D01*
X103275384Y-85045750D01*
X103295184Y-85077262D01*
X103422738Y-85204816D01*
X103575478Y-85300789D01*
X103734437Y-85356411D01*
X103745745Y-85360368D01*
X103745750Y-85360369D01*
X103924996Y-85380565D01*
X103925000Y-85380565D01*
X103925004Y-85380565D01*
X104104249Y-85360369D01*
X104104252Y-85360368D01*
X104104255Y-85360368D01*
X104274522Y-85300789D01*
X104427262Y-85204816D01*
X104460796Y-85171281D01*
X104522116Y-85137797D01*
X104591808Y-85142781D01*
X104647742Y-85184651D01*
X104671696Y-85245079D01*
X104689630Y-85404250D01*
X104689631Y-85404254D01*
X104749211Y-85574523D01*
X104803152Y-85660369D01*
X104845184Y-85727262D01*
X104972738Y-85854816D01*
X104997196Y-85870184D01*
X105090011Y-85928504D01*
X105125478Y-85950789D01*
X105259648Y-85997737D01*
X105295745Y-86010368D01*
X105295750Y-86010369D01*
X105474996Y-86030565D01*
X105475000Y-86030565D01*
X105475004Y-86030565D01*
X105654249Y-86010369D01*
X105654252Y-86010368D01*
X105654255Y-86010368D01*
X105824522Y-85950789D01*
X105977262Y-85854816D01*
X106104816Y-85727262D01*
X106200789Y-85574522D01*
X106207958Y-85554035D01*
X106248679Y-85497258D01*
X106313631Y-85471510D01*
X106382193Y-85484965D01*
X106432597Y-85533352D01*
X106442042Y-85554035D01*
X106445749Y-85564630D01*
X106449211Y-85574522D01*
X106545184Y-85727262D01*
X106672738Y-85854816D01*
X106697196Y-85870184D01*
X106790011Y-85928504D01*
X106825478Y-85950789D01*
X106959648Y-85997737D01*
X106995745Y-86010368D01*
X106995750Y-86010369D01*
X107174996Y-86030565D01*
X107175000Y-86030565D01*
X107175004Y-86030565D01*
X107354249Y-86010369D01*
X107354252Y-86010368D01*
X107354255Y-86010368D01*
X107524522Y-85950789D01*
X107677262Y-85854816D01*
X107804816Y-85727262D01*
X107900789Y-85574522D01*
X107960368Y-85404255D01*
X107960369Y-85404249D01*
X107980565Y-85225003D01*
X107980565Y-85224996D01*
X107960369Y-85045750D01*
X107960368Y-85045745D01*
X107919826Y-84929884D01*
X107900789Y-84875478D01*
X107804816Y-84722738D01*
X107677262Y-84595184D01*
X107645144Y-84575003D01*
X107524523Y-84499211D01*
X107406596Y-84457947D01*
X107349820Y-84417225D01*
X107330509Y-84381859D01*
X107327317Y-84372738D01*
X107275789Y-84225478D01*
X107179816Y-84072738D01*
X107052262Y-83945184D01*
X107008541Y-83917712D01*
X106899523Y-83849211D01*
X106729254Y-83789631D01*
X106729249Y-83789630D01*
X106550004Y-83769435D01*
X106549996Y-83769435D01*
X106370750Y-83789630D01*
X106370745Y-83789631D01*
X106200476Y-83849211D01*
X106047737Y-83945184D01*
X105920184Y-84072737D01*
X105824210Y-84225478D01*
X105778332Y-84356593D01*
X105737610Y-84413369D01*
X105672658Y-84439117D01*
X105647407Y-84438859D01*
X105475004Y-84419435D01*
X105474996Y-84419435D01*
X105295750Y-84439630D01*
X105295745Y-84439631D01*
X105125476Y-84499211D01*
X104972737Y-84595184D01*
X104939203Y-84628718D01*
X104877880Y-84662203D01*
X104808188Y-84657217D01*
X104752255Y-84615345D01*
X104728303Y-84554919D01*
X104710369Y-84395750D01*
X104710368Y-84395745D01*
X104703385Y-84375788D01*
X104650789Y-84225478D01*
X104554816Y-84072738D01*
X104427262Y-83945184D01*
X104383541Y-83917712D01*
X104274523Y-83849211D01*
X104104254Y-83789631D01*
X104104249Y-83789630D01*
X103925004Y-83769435D01*
X103924996Y-83769435D01*
X103745750Y-83789630D01*
X103745745Y-83789631D01*
X103575476Y-83849211D01*
X103422737Y-83945184D01*
X103295184Y-84072737D01*
X103199211Y-84225476D01*
X103139631Y-84395745D01*
X103139630Y-84395750D01*
X103119435Y-84574996D01*
X89031228Y-84574996D01*
X89092415Y-84477618D01*
X89151994Y-84307351D01*
X89151995Y-84307345D01*
X89172191Y-84128099D01*
X89172191Y-84128092D01*
X89151995Y-83948846D01*
X89151994Y-83948841D01*
X89141101Y-83917710D01*
X89092415Y-83778574D01*
X89011624Y-83649996D01*
X93144435Y-83649996D01*
X93144435Y-83650003D01*
X93164630Y-83829249D01*
X93164631Y-83829254D01*
X93224211Y-83999523D01*
X93280830Y-84089631D01*
X93320184Y-84152262D01*
X93447738Y-84279816D01*
X93483461Y-84302262D01*
X93595620Y-84372737D01*
X93600478Y-84375789D01*
X93725211Y-84419435D01*
X93770745Y-84435368D01*
X93770750Y-84435369D01*
X93949996Y-84455565D01*
X93950000Y-84455565D01*
X93950004Y-84455565D01*
X94129249Y-84435369D01*
X94129252Y-84435368D01*
X94129255Y-84435368D01*
X94299522Y-84375789D01*
X94452262Y-84279816D01*
X94579816Y-84152262D01*
X94675789Y-83999522D01*
X94735368Y-83829255D01*
X94738664Y-83800003D01*
X94755565Y-83650003D01*
X94755565Y-83649996D01*
X94742044Y-83529996D01*
X109114435Y-83529996D01*
X109114435Y-83530003D01*
X109134630Y-83709249D01*
X109134631Y-83709254D01*
X109194211Y-83879523D01*
X109256877Y-83979254D01*
X109290184Y-84032262D01*
X109417738Y-84159816D01*
X109570478Y-84255789D01*
X109659417Y-84286910D01*
X109740745Y-84315368D01*
X109740750Y-84315369D01*
X109919996Y-84335565D01*
X109920000Y-84335565D01*
X109920004Y-84335565D01*
X110099249Y-84315369D01*
X110099252Y-84315368D01*
X110099255Y-84315368D01*
X110269522Y-84255789D01*
X110422262Y-84159816D01*
X110549816Y-84032262D01*
X110645789Y-83879522D01*
X110705368Y-83709255D01*
X110712044Y-83650003D01*
X110725565Y-83530003D01*
X110725565Y-83529996D01*
X110705369Y-83350750D01*
X110705368Y-83350745D01*
X110645788Y-83180476D01*
X110606582Y-83118080D01*
X110549816Y-83027738D01*
X110422262Y-82900184D01*
X110417134Y-82896962D01*
X110269523Y-82804211D01*
X110099254Y-82744631D01*
X110099249Y-82744630D01*
X109920004Y-82724435D01*
X109919996Y-82724435D01*
X109740750Y-82744630D01*
X109740745Y-82744631D01*
X109570476Y-82804211D01*
X109417737Y-82900184D01*
X109290184Y-83027737D01*
X109194211Y-83180476D01*
X109134631Y-83350745D01*
X109134630Y-83350750D01*
X109114435Y-83529996D01*
X94742044Y-83529996D01*
X94735369Y-83470750D01*
X94735368Y-83470745D01*
X94711733Y-83403201D01*
X94675789Y-83300478D01*
X94674067Y-83297738D01*
X94600388Y-83180478D01*
X94579816Y-83147738D01*
X94452262Y-83020184D01*
X94443426Y-83014632D01*
X94299523Y-82924211D01*
X94129254Y-82864631D01*
X94129249Y-82864630D01*
X93950004Y-82844435D01*
X93949996Y-82844435D01*
X93770750Y-82864630D01*
X93770745Y-82864631D01*
X93600476Y-82924211D01*
X93447737Y-83020184D01*
X93320184Y-83147737D01*
X93224211Y-83300476D01*
X93164631Y-83470745D01*
X93164630Y-83470750D01*
X93144435Y-83649996D01*
X89011624Y-83649996D01*
X88996442Y-83625834D01*
X88868888Y-83498280D01*
X88836288Y-83477796D01*
X88716149Y-83402307D01*
X88545880Y-83342727D01*
X88545875Y-83342726D01*
X88366630Y-83322531D01*
X88366622Y-83322531D01*
X88187376Y-83342726D01*
X88187371Y-83342727D01*
X88017102Y-83402307D01*
X87864363Y-83498280D01*
X87736810Y-83625833D01*
X87640837Y-83778572D01*
X87581257Y-83948841D01*
X87581256Y-83948846D01*
X87561061Y-84128092D01*
X81264169Y-84128092D01*
X81154254Y-84089631D01*
X81154249Y-84089630D01*
X80975004Y-84069435D01*
X80974996Y-84069435D01*
X80795750Y-84089630D01*
X80795745Y-84089631D01*
X80625476Y-84149211D01*
X80472737Y-84245184D01*
X80345184Y-84372737D01*
X80249211Y-84525476D01*
X80189631Y-84695745D01*
X80189630Y-84695750D01*
X80169435Y-84874996D01*
X79141481Y-84874996D01*
X79135369Y-84820750D01*
X79135368Y-84820745D01*
X79101074Y-84722738D01*
X79075789Y-84650478D01*
X79063999Y-84631715D01*
X78997816Y-84526385D01*
X78979816Y-84497738D01*
X78852262Y-84370184D01*
X78852260Y-84370182D01*
X78803022Y-84339244D01*
X78756732Y-84286910D01*
X78746084Y-84217856D01*
X78764001Y-84168282D01*
X78775789Y-84149522D01*
X78835368Y-83979255D01*
X78835369Y-83979249D01*
X78855565Y-83800003D01*
X78855565Y-83799996D01*
X78835369Y-83620750D01*
X78835368Y-83620745D01*
X78803615Y-83530000D01*
X78775789Y-83450478D01*
X78746083Y-83403201D01*
X78727083Y-83335965D01*
X78747451Y-83269129D01*
X78800718Y-83223915D01*
X78821402Y-83216832D01*
X78824432Y-83216084D01*
X78913434Y-83194148D01*
X79047934Y-83123557D01*
X79161632Y-83022830D01*
X79247921Y-82897819D01*
X79301785Y-82755791D01*
X79320094Y-82605000D01*
X79301785Y-82454209D01*
X79247921Y-82312181D01*
X79161632Y-82187170D01*
X79147876Y-82174983D01*
X81849500Y-82174983D01*
X81849500Y-83375001D01*
X81849501Y-83375018D01*
X81860000Y-83477796D01*
X81860001Y-83477799D01*
X81915185Y-83644331D01*
X81915187Y-83644336D01*
X81950069Y-83700888D01*
X82007288Y-83793656D01*
X82131344Y-83917712D01*
X82280666Y-84009814D01*
X82447203Y-84064999D01*
X82549991Y-84075500D01*
X83750008Y-84075499D01*
X83852797Y-84064999D01*
X84019334Y-84009814D01*
X84168656Y-83917712D01*
X84292712Y-83793656D01*
X84384814Y-83644334D01*
X84439999Y-83477797D01*
X84450500Y-83375009D01*
X84450499Y-82174992D01*
X84439999Y-82072203D01*
X84384814Y-81905666D01*
X84292712Y-81756344D01*
X84168656Y-81632288D01*
X84019334Y-81540186D01*
X83852797Y-81485001D01*
X83852795Y-81485000D01*
X83750010Y-81474500D01*
X82549998Y-81474500D01*
X82549981Y-81474501D01*
X82447203Y-81485000D01*
X82447200Y-81485001D01*
X82280668Y-81540185D01*
X82280663Y-81540187D01*
X82131342Y-81632289D01*
X82007289Y-81756342D01*
X81915187Y-81905663D01*
X81915186Y-81905666D01*
X81860001Y-82072203D01*
X81860001Y-82072204D01*
X81860000Y-82072204D01*
X81849500Y-82174983D01*
X79147876Y-82174983D01*
X79047934Y-82086443D01*
X78913434Y-82015852D01*
X78913433Y-82015851D01*
X78913432Y-82015851D01*
X78765950Y-81979500D01*
X78765949Y-81979500D01*
X78614051Y-81979500D01*
X78614050Y-81979500D01*
X78466567Y-82015851D01*
X78332067Y-82086442D01*
X78332066Y-82086443D01*
X78232108Y-82174998D01*
X78218367Y-82187171D01*
X78132080Y-82312179D01*
X78132079Y-82312180D01*
X78078215Y-82454208D01*
X78059906Y-82605000D01*
X78078215Y-82755792D01*
X78078215Y-82755794D01*
X78107228Y-82832295D01*
X78112595Y-82901958D01*
X78079447Y-82963464D01*
X78018309Y-82997285D01*
X78005170Y-82999485D01*
X77870749Y-83014630D01*
X77870745Y-83014631D01*
X77700476Y-83074211D01*
X77547737Y-83170184D01*
X77420184Y-83297737D01*
X77324211Y-83450476D01*
X77264631Y-83620745D01*
X77264630Y-83620750D01*
X77244435Y-83799996D01*
X73500500Y-83799996D01*
X73500500Y-82542399D01*
X74484500Y-82542399D01*
X74484500Y-82667601D01*
X74516905Y-82788536D01*
X74579505Y-82896964D01*
X74668036Y-82985495D01*
X74776464Y-83048095D01*
X74897399Y-83080500D01*
X74897401Y-83080500D01*
X76522599Y-83080500D01*
X76522601Y-83080500D01*
X76643536Y-83048095D01*
X76751964Y-82985495D01*
X76840495Y-82896964D01*
X76903095Y-82788536D01*
X76935500Y-82667601D01*
X76935500Y-82542399D01*
X76903095Y-82421464D01*
X76840495Y-82313036D01*
X76751964Y-82224505D01*
X76643536Y-82161905D01*
X76643537Y-82161905D01*
X76603224Y-82151103D01*
X76522601Y-82129500D01*
X74897399Y-82129500D01*
X74816775Y-82151103D01*
X74776463Y-82161905D01*
X74668037Y-82224504D01*
X74668034Y-82224506D01*
X74579506Y-82313034D01*
X74579504Y-82313037D01*
X74516905Y-82421463D01*
X74516905Y-82421464D01*
X74484500Y-82542399D01*
X73500500Y-82542399D01*
X73500500Y-80119996D01*
X99224435Y-80119996D01*
X99224435Y-80120003D01*
X99244630Y-80299249D01*
X99244631Y-80299254D01*
X99304211Y-80469523D01*
X99400184Y-80622262D01*
X99527738Y-80749816D01*
X99680478Y-80845789D01*
X99850745Y-80905368D01*
X99850750Y-80905369D01*
X100029996Y-80925565D01*
X100030000Y-80925565D01*
X100030004Y-80925565D01*
X100209249Y-80905369D01*
X100209252Y-80905368D01*
X100209255Y-80905368D01*
X100379522Y-80845789D01*
X100532262Y-80749816D01*
X100659816Y-80622262D01*
X100755789Y-80469522D01*
X100815368Y-80299255D01*
X100835565Y-80120000D01*
X100815368Y-79940745D01*
X100755789Y-79770478D01*
X100659816Y-79617738D01*
X100532262Y-79490184D01*
X100379523Y-79394211D01*
X100209254Y-79334631D01*
X100209249Y-79334630D01*
X100030004Y-79314435D01*
X100029996Y-79314435D01*
X99850750Y-79334630D01*
X99850745Y-79334631D01*
X99680476Y-79394211D01*
X99527737Y-79490184D01*
X99400184Y-79617737D01*
X99304211Y-79770476D01*
X99244631Y-79940745D01*
X99244630Y-79940750D01*
X99224435Y-80119996D01*
X73500500Y-80119996D01*
X73500500Y-77119996D01*
X74944435Y-77119996D01*
X74944435Y-77120003D01*
X74964630Y-77299249D01*
X74964631Y-77299254D01*
X75024211Y-77469523D01*
X75107617Y-77602262D01*
X75120184Y-77622262D01*
X75247738Y-77749816D01*
X75263653Y-77759816D01*
X75368646Y-77825788D01*
X75400478Y-77845789D01*
X75513591Y-77885369D01*
X75570745Y-77905368D01*
X75570750Y-77905369D01*
X75749996Y-77925565D01*
X75750000Y-77925565D01*
X75750004Y-77925565D01*
X75929249Y-77905369D01*
X75929252Y-77905368D01*
X75929255Y-77905368D01*
X76099522Y-77845789D01*
X76252262Y-77749816D01*
X76379816Y-77622262D01*
X76475789Y-77469522D01*
X76535368Y-77299255D01*
X76535369Y-77299249D01*
X76555565Y-77120003D01*
X76555565Y-77119996D01*
X76553312Y-77099996D01*
X77294435Y-77099996D01*
X77294435Y-77100003D01*
X77314630Y-77279249D01*
X77314631Y-77279254D01*
X77374211Y-77449523D01*
X77470184Y-77602262D01*
X77597738Y-77729816D01*
X77750478Y-77825789D01*
X77891104Y-77874996D01*
X77920745Y-77885368D01*
X77920750Y-77885369D01*
X78099996Y-77905565D01*
X78100000Y-77905565D01*
X78100004Y-77905565D01*
X78279249Y-77885369D01*
X78279252Y-77885368D01*
X78279255Y-77885368D01*
X78449522Y-77825789D01*
X78602262Y-77729816D01*
X78729816Y-77602262D01*
X78825789Y-77449522D01*
X78885368Y-77279255D01*
X78889207Y-77245184D01*
X78899932Y-77149996D01*
X84269435Y-77149996D01*
X84269435Y-77150003D01*
X84289630Y-77329249D01*
X84289631Y-77329254D01*
X84349211Y-77499523D01*
X84365520Y-77525478D01*
X84445184Y-77652262D01*
X84572738Y-77779816D01*
X84645902Y-77825788D01*
X84693646Y-77855788D01*
X84725478Y-77875789D01*
X84881770Y-77930478D01*
X84895745Y-77935368D01*
X84895750Y-77935369D01*
X85074996Y-77955565D01*
X85075000Y-77955565D01*
X85075004Y-77955565D01*
X85254249Y-77935369D01*
X85254252Y-77935368D01*
X85254255Y-77935368D01*
X85424522Y-77875789D01*
X85425784Y-77874996D01*
X89969435Y-77874996D01*
X89969435Y-77875003D01*
X89989630Y-78054249D01*
X89989631Y-78054254D01*
X90049211Y-78224523D01*
X90084070Y-78280000D01*
X90145184Y-78377262D01*
X90272738Y-78504816D01*
X90425478Y-78600789D01*
X90507595Y-78629523D01*
X90595745Y-78660368D01*
X90595750Y-78660369D01*
X90774996Y-78680565D01*
X90775000Y-78680565D01*
X90775004Y-78680565D01*
X90954249Y-78660369D01*
X90954252Y-78660368D01*
X90954255Y-78660368D01*
X91124522Y-78600789D01*
X91277262Y-78504816D01*
X91404816Y-78377262D01*
X91465932Y-78279996D01*
X111774435Y-78279996D01*
X111774435Y-78280003D01*
X111794630Y-78459249D01*
X111794631Y-78459254D01*
X111854211Y-78629523D01*
X111873593Y-78660369D01*
X111950184Y-78782262D01*
X112077738Y-78909816D01*
X112230478Y-79005789D01*
X112400745Y-79065368D01*
X112400750Y-79065369D01*
X112579996Y-79085565D01*
X112580000Y-79085565D01*
X112580004Y-79085565D01*
X112759249Y-79065369D01*
X112759252Y-79065368D01*
X112759255Y-79065368D01*
X112929522Y-79005789D01*
X113082262Y-78909816D01*
X113209816Y-78782262D01*
X113305789Y-78629522D01*
X113365368Y-78459255D01*
X113365369Y-78459249D01*
X113385565Y-78280003D01*
X113385565Y-78279996D01*
X113365369Y-78100750D01*
X113365368Y-78100745D01*
X113305788Y-77930476D01*
X113240008Y-77825788D01*
X113209816Y-77777738D01*
X113082262Y-77650184D01*
X112929523Y-77554211D01*
X112759254Y-77494631D01*
X112759249Y-77494630D01*
X112580004Y-77474435D01*
X112579996Y-77474435D01*
X112400750Y-77494630D01*
X112400745Y-77494631D01*
X112230476Y-77554211D01*
X112077737Y-77650184D01*
X111950184Y-77777737D01*
X111854211Y-77930476D01*
X111794631Y-78100745D01*
X111794630Y-78100750D01*
X111774435Y-78279996D01*
X91465932Y-78279996D01*
X91500789Y-78224522D01*
X91560368Y-78054255D01*
X91573763Y-77935369D01*
X91580565Y-77875003D01*
X91580565Y-77874996D01*
X91560369Y-77695750D01*
X91560368Y-77695745D01*
X91545153Y-77652262D01*
X91500789Y-77525478D01*
X91484480Y-77499523D01*
X91404815Y-77372737D01*
X91348558Y-77316480D01*
X91315073Y-77255157D01*
X91320057Y-77185465D01*
X91361582Y-77129996D01*
X98064435Y-77129996D01*
X98064435Y-77130003D01*
X98084630Y-77309249D01*
X98084631Y-77309254D01*
X98144211Y-77479523D01*
X98173087Y-77525478D01*
X98240184Y-77632262D01*
X98367738Y-77759816D01*
X98399568Y-77779816D01*
X98504561Y-77845788D01*
X98520478Y-77855789D01*
X98662730Y-77905565D01*
X98690745Y-77915368D01*
X98690750Y-77915369D01*
X98869996Y-77935565D01*
X98870000Y-77935565D01*
X98870004Y-77935565D01*
X99049249Y-77915369D01*
X99049252Y-77915368D01*
X99049255Y-77915368D01*
X99219522Y-77855789D01*
X99372262Y-77759816D01*
X99499816Y-77632262D01*
X99595789Y-77479522D01*
X99655368Y-77309255D01*
X99656495Y-77299254D01*
X99675565Y-77130003D01*
X99675565Y-77129996D01*
X99655369Y-76950750D01*
X99655368Y-76950745D01*
X99644872Y-76920750D01*
X99595789Y-76780478D01*
X99589504Y-76770476D01*
X99499815Y-76627737D01*
X99372262Y-76500184D01*
X99219523Y-76404211D01*
X99049254Y-76344631D01*
X99049249Y-76344630D01*
X98870004Y-76324435D01*
X98869996Y-76324435D01*
X98690750Y-76344630D01*
X98690745Y-76344631D01*
X98520476Y-76404211D01*
X98367737Y-76500184D01*
X98240184Y-76627737D01*
X98144211Y-76780476D01*
X98084631Y-76950745D01*
X98084630Y-76950750D01*
X98064435Y-77129996D01*
X91361582Y-77129996D01*
X91361929Y-77129532D01*
X91427393Y-77105115D01*
X91449439Y-77105565D01*
X91450000Y-77105565D01*
X91450004Y-77105565D01*
X91629249Y-77085369D01*
X91629252Y-77085368D01*
X91629255Y-77085368D01*
X91799522Y-77025789D01*
X91952262Y-76929816D01*
X92079816Y-76802262D01*
X92175789Y-76649522D01*
X92235368Y-76479255D01*
X92241570Y-76424211D01*
X92255565Y-76300003D01*
X92255565Y-76299996D01*
X92235369Y-76120750D01*
X92235368Y-76120745D01*
X92186118Y-75979996D01*
X111764435Y-75979996D01*
X111764435Y-75980003D01*
X111784630Y-76159249D01*
X111784631Y-76159254D01*
X111844211Y-76329523D01*
X111891141Y-76404211D01*
X111940184Y-76482262D01*
X112067738Y-76609816D01*
X112220478Y-76705789D01*
X112348186Y-76750476D01*
X112390745Y-76765368D01*
X112390750Y-76765369D01*
X112569996Y-76785565D01*
X112570000Y-76785565D01*
X112570004Y-76785565D01*
X112749249Y-76765369D01*
X112749252Y-76765368D01*
X112749255Y-76765368D01*
X112919522Y-76705789D01*
X113072262Y-76609816D01*
X113199816Y-76482262D01*
X113295789Y-76329522D01*
X113355368Y-76159255D01*
X113355369Y-76159249D01*
X113375565Y-75980003D01*
X113375565Y-75979996D01*
X113355369Y-75800750D01*
X113355368Y-75800745D01*
X113295788Y-75630476D01*
X113199815Y-75477737D01*
X113072262Y-75350184D01*
X112919523Y-75254211D01*
X112749254Y-75194631D01*
X112749249Y-75194630D01*
X112570004Y-75174435D01*
X112569996Y-75174435D01*
X112390750Y-75194630D01*
X112390745Y-75194631D01*
X112220476Y-75254211D01*
X112067737Y-75350184D01*
X111940184Y-75477737D01*
X111844211Y-75630476D01*
X111784631Y-75800745D01*
X111784630Y-75800750D01*
X111764435Y-75979996D01*
X92186118Y-75979996D01*
X92175788Y-75950476D01*
X92136582Y-75888080D01*
X92079816Y-75797738D01*
X91952262Y-75670184D01*
X91799523Y-75574211D01*
X91629254Y-75514631D01*
X91629249Y-75514630D01*
X91450004Y-75494435D01*
X91449996Y-75494435D01*
X91270750Y-75514630D01*
X91270745Y-75514631D01*
X91100476Y-75574211D01*
X90947737Y-75670184D01*
X90820184Y-75797737D01*
X90724211Y-75950476D01*
X90664631Y-76120745D01*
X90664630Y-76120750D01*
X90644435Y-76299996D01*
X90644435Y-76300003D01*
X90664630Y-76479249D01*
X90664631Y-76479254D01*
X90724211Y-76649523D01*
X90820184Y-76802262D01*
X90876441Y-76858519D01*
X90909926Y-76919842D01*
X90904942Y-76989534D01*
X90863070Y-77045467D01*
X90797606Y-77069884D01*
X90775528Y-77069435D01*
X90774996Y-77069435D01*
X90595750Y-77089630D01*
X90595745Y-77089631D01*
X90425476Y-77149211D01*
X90272737Y-77245184D01*
X90145184Y-77372737D01*
X90049211Y-77525476D01*
X89989631Y-77695745D01*
X89989630Y-77695750D01*
X89969435Y-77874996D01*
X85425784Y-77874996D01*
X85577262Y-77779816D01*
X85704816Y-77652262D01*
X85800789Y-77499522D01*
X85860368Y-77329255D01*
X85860369Y-77329249D01*
X85880565Y-77150003D01*
X85880565Y-77149996D01*
X85860369Y-76970750D01*
X85860368Y-76970745D01*
X85849872Y-76940750D01*
X85800789Y-76800478D01*
X85781937Y-76770476D01*
X85741291Y-76705788D01*
X85704816Y-76647738D01*
X85577262Y-76520184D01*
X85545432Y-76500184D01*
X85424523Y-76424211D01*
X85254254Y-76364631D01*
X85254249Y-76364630D01*
X85075004Y-76344435D01*
X85074996Y-76344435D01*
X84895750Y-76364630D01*
X84895745Y-76364631D01*
X84725476Y-76424211D01*
X84572737Y-76520184D01*
X84445184Y-76647737D01*
X84349211Y-76800476D01*
X84289631Y-76970745D01*
X84289630Y-76970750D01*
X84269435Y-77149996D01*
X78899932Y-77149996D01*
X78905565Y-77100003D01*
X78905565Y-77099996D01*
X78885369Y-76920750D01*
X78885368Y-76920745D01*
X78832787Y-76770478D01*
X78825789Y-76750478D01*
X78729816Y-76597738D01*
X78602262Y-76470184D01*
X78449523Y-76374211D01*
X78279254Y-76314631D01*
X78279249Y-76314630D01*
X78100004Y-76294435D01*
X78099996Y-76294435D01*
X77920750Y-76314630D01*
X77920745Y-76314631D01*
X77750476Y-76374211D01*
X77597737Y-76470184D01*
X77470184Y-76597737D01*
X77374211Y-76750476D01*
X77314631Y-76920745D01*
X77314630Y-76920750D01*
X77294435Y-77099996D01*
X76553312Y-77099996D01*
X76535369Y-76940750D01*
X76535368Y-76940745D01*
X76506596Y-76858519D01*
X76475789Y-76770478D01*
X76379816Y-76617738D01*
X76252262Y-76490184D01*
X76147267Y-76424211D01*
X76099523Y-76394211D01*
X75929254Y-76334631D01*
X75929249Y-76334630D01*
X75750004Y-76314435D01*
X75749996Y-76314435D01*
X75570750Y-76334630D01*
X75570745Y-76334631D01*
X75400476Y-76394211D01*
X75247737Y-76490184D01*
X75120184Y-76617737D01*
X75024211Y-76770476D01*
X74964631Y-76940745D01*
X74964630Y-76940750D01*
X74944435Y-77119996D01*
X73500500Y-77119996D01*
X73500500Y-71624500D01*
X73520185Y-71557461D01*
X73572989Y-71511706D01*
X73624500Y-71500500D01*
X74567692Y-71500500D01*
X74634731Y-71520185D01*
G37*
%TD.AperFunction*%
%TD*%
M02*
