%TF.GenerationSoftware,KiCad,Pcbnew,8.0.4*%
%TF.CreationDate,2024-09-26T12:10:35+10:00*%
%TF.ProjectId,OuchButtonV2,4f756368-4275-4747-946f-6e56322e6b69,rev?*%
%TF.SameCoordinates,Original*%
%TF.FileFunction,Paste,Bot*%
%TF.FilePolarity,Positive*%
%FSLAX46Y46*%
G04 Gerber Fmt 4.6, Leading zero omitted, Abs format (unit mm)*
G04 Created by KiCad (PCBNEW 8.0.4) date 2024-09-26 12:10:35*
%MOMM*%
%LPD*%
G01*
G04 APERTURE LIST*
G04 Aperture macros list*
%AMRoundRect*
0 Rectangle with rounded corners*
0 $1 Rounding radius*
0 $2 $3 $4 $5 $6 $7 $8 $9 X,Y pos of 4 corners*
0 Add a 4 corners polygon primitive as box body*
4,1,4,$2,$3,$4,$5,$6,$7,$8,$9,$2,$3,0*
0 Add four circle primitives for the rounded corners*
1,1,$1+$1,$2,$3*
1,1,$1+$1,$4,$5*
1,1,$1+$1,$6,$7*
1,1,$1+$1,$8,$9*
0 Add four rect primitives between the rounded corners*
20,1,$1+$1,$2,$3,$4,$5,0*
20,1,$1+$1,$4,$5,$6,$7,0*
20,1,$1+$1,$6,$7,$8,$9,0*
20,1,$1+$1,$8,$9,$2,$3,0*%
G04 Aperture macros list end*
%ADD10RoundRect,0.250000X-0.250000X-0.475000X0.250000X-0.475000X0.250000X0.475000X-0.250000X0.475000X0*%
%ADD11RoundRect,0.075000X-0.350000X-0.075000X0.350000X-0.075000X0.350000X0.075000X-0.350000X0.075000X0*%
%ADD12RoundRect,0.075000X-0.075000X0.350000X-0.075000X-0.350000X0.075000X-0.350000X0.075000X0.350000X0*%
%ADD13RoundRect,0.250000X0.250000X0.750000X-0.250000X0.750000X-0.250000X-0.750000X0.250000X-0.750000X0*%
%ADD14RoundRect,0.112500X-0.112500X0.187500X-0.112500X-0.187500X0.112500X-0.187500X0.112500X0.187500X0*%
%ADD15RoundRect,0.237500X0.237500X-0.250000X0.237500X0.250000X-0.237500X0.250000X-0.237500X-0.250000X0*%
%ADD16RoundRect,0.250000X0.262500X0.450000X-0.262500X0.450000X-0.262500X-0.450000X0.262500X-0.450000X0*%
%ADD17RoundRect,0.250000X-0.450000X0.262500X-0.450000X-0.262500X0.450000X-0.262500X0.450000X0.262500X0*%
%ADD18RoundRect,0.150000X-0.512500X-0.150000X0.512500X-0.150000X0.512500X0.150000X-0.512500X0.150000X0*%
%ADD19RoundRect,0.250000X0.250000X0.475000X-0.250000X0.475000X-0.250000X-0.475000X0.250000X-0.475000X0*%
%ADD20RoundRect,0.250000X0.450000X-0.262500X0.450000X0.262500X-0.450000X0.262500X-0.450000X-0.262500X0*%
%ADD21RoundRect,0.150000X0.512500X0.150000X-0.512500X0.150000X-0.512500X-0.150000X0.512500X-0.150000X0*%
%ADD22RoundRect,0.150000X0.150000X-0.825000X0.150000X0.825000X-0.150000X0.825000X-0.150000X-0.825000X0*%
%ADD23C,0.250000*%
%ADD24RoundRect,0.150000X-0.150000X0.512500X-0.150000X-0.512500X0.150000X-0.512500X0.150000X0.512500X0*%
%ADD25RoundRect,0.250000X0.475000X-0.250000X0.475000X0.250000X-0.475000X0.250000X-0.475000X-0.250000X0*%
%ADD26RoundRect,0.120000X-0.180000X0.430000X-0.180000X-0.430000X0.180000X-0.430000X0.180000X0.430000X0*%
%ADD27RoundRect,0.250000X0.159099X-0.512652X0.512652X-0.159099X-0.159099X0.512652X-0.512652X0.159099X0*%
%ADD28RoundRect,0.250000X-0.262500X-0.450000X0.262500X-0.450000X0.262500X0.450000X-0.262500X0.450000X0*%
%ADD29R,0.952500X0.558800*%
%ADD30R,1.100000X1.050000*%
%ADD31RoundRect,0.250000X-0.475000X0.250000X-0.475000X-0.250000X0.475000X-0.250000X0.475000X0.250000X0*%
%ADD32R,1.092200X0.990600*%
%ADD33R,1.100000X0.250000*%
%ADD34RoundRect,0.243750X0.456250X-0.243750X0.456250X0.243750X-0.456250X0.243750X-0.456250X-0.243750X0*%
G04 APERTURE END LIST*
D10*
%TO.C,C8*%
X111250000Y-80600000D03*
X113150000Y-80600000D03*
%TD*%
D11*
%TO.C,U4*%
X105375000Y-82400000D03*
X105375000Y-81900000D03*
X105375000Y-81400000D03*
X105375000Y-80900000D03*
X105375000Y-80400000D03*
X105375000Y-79900000D03*
D12*
X106075000Y-79200000D03*
X106575000Y-79200000D03*
X107075000Y-79200000D03*
X107575000Y-79200000D03*
X108075000Y-79200000D03*
X108575000Y-79200000D03*
D11*
X109275000Y-79900000D03*
X109275000Y-80400000D03*
X109275000Y-80900000D03*
X109275000Y-81400000D03*
X109275000Y-81900000D03*
X109275000Y-82400000D03*
D12*
X108575000Y-83100000D03*
X108075000Y-83100000D03*
X107575000Y-83100000D03*
X107075000Y-83100000D03*
X106575000Y-83100000D03*
X106075000Y-83100000D03*
%TD*%
D13*
%TO.C,J3*%
X89900000Y-108180000D03*
%TD*%
D14*
%TO.C,D1*%
X92900000Y-79337500D03*
X92900000Y-81437500D03*
%TD*%
D15*
%TO.C,R21*%
X95375000Y-81325000D03*
X95375000Y-79500000D03*
%TD*%
D16*
%TO.C,R13*%
X79775000Y-93250000D03*
X77950000Y-93250000D03*
%TD*%
D17*
%TO.C,R1*%
X76450000Y-88600000D03*
X76450000Y-90425000D03*
%TD*%
D18*
%TO.C,U6*%
X94150000Y-107900000D03*
X94150000Y-106950000D03*
X94150000Y-106000000D03*
X96425000Y-106000000D03*
X96425000Y-106950000D03*
X96425000Y-107900000D03*
%TD*%
D19*
%TO.C,C15*%
X101550000Y-95375000D03*
X99650000Y-95375000D03*
%TD*%
D20*
%TO.C,R6*%
X82275000Y-90500000D03*
X82275000Y-88675000D03*
%TD*%
D17*
%TO.C,R3*%
X90425000Y-72950000D03*
X90425000Y-74775000D03*
%TD*%
D21*
%TO.C,U3*%
X82750000Y-75350000D03*
X82750000Y-76300000D03*
X82750000Y-77250000D03*
X80475000Y-77250000D03*
X80475000Y-75350000D03*
%TD*%
D19*
%TO.C,C9*%
X104775000Y-76925000D03*
X102875000Y-76925000D03*
%TD*%
D22*
%TO.C,U5*%
X109140000Y-108000000D03*
X107870000Y-108000000D03*
X106600000Y-108000000D03*
X105330000Y-108000000D03*
X105330000Y-103050000D03*
X106600000Y-103050000D03*
X107870000Y-103050000D03*
X109140000Y-103050000D03*
%TD*%
D23*
%TO.C,U8*%
X104075000Y-94875000D03*
X104075000Y-95375000D03*
X104075000Y-95875000D03*
X104575000Y-94875000D03*
X104575000Y-95375000D03*
X104575000Y-95875000D03*
X105075000Y-94875000D03*
X105075000Y-95375000D03*
X105075000Y-95875000D03*
X105575000Y-94875000D03*
X105575000Y-95375000D03*
X105575000Y-95875000D03*
X106075000Y-94875000D03*
X106075000Y-95375000D03*
X106075000Y-95875000D03*
%TD*%
D24*
%TO.C,U9*%
X110620000Y-93860000D03*
X111570000Y-93860000D03*
X112520000Y-93860000D03*
X112520000Y-96135000D03*
X111570000Y-96135000D03*
X110620000Y-96135000D03*
%TD*%
D25*
%TO.C,C1*%
X98350000Y-74754600D03*
X98350000Y-72854600D03*
%TD*%
D26*
%TO.C,FL1*%
X104475000Y-89950000D03*
X104475000Y-92650000D03*
X105475000Y-92650000D03*
X105475000Y-89950000D03*
%TD*%
D19*
%TO.C,C10*%
X88275000Y-93675000D03*
X86375000Y-93675000D03*
%TD*%
D16*
%TO.C,R10*%
X101150000Y-86725000D03*
X99325000Y-86725000D03*
%TD*%
D27*
%TO.C,C4*%
X84656498Y-89843502D03*
X86000000Y-88500000D03*
%TD*%
D20*
%TO.C,R12*%
X74700000Y-100712500D03*
X74700000Y-98887500D03*
%TD*%
D17*
%TO.C,R18*%
X78100000Y-97767500D03*
X78100000Y-99592500D03*
%TD*%
D19*
%TO.C,C2*%
X80475000Y-79350000D03*
X78575000Y-79350000D03*
%TD*%
D17*
%TO.C,R4*%
X86010000Y-72835000D03*
X86010000Y-74660000D03*
%TD*%
D10*
%TO.C,C18*%
X90100000Y-101675000D03*
X92000000Y-101675000D03*
%TD*%
D28*
%TO.C,R11*%
X86475000Y-95870000D03*
X88300000Y-95870000D03*
%TD*%
D20*
%TO.C,R2*%
X76450000Y-85800000D03*
X76450000Y-83975000D03*
%TD*%
D16*
%TO.C,R15*%
X85500000Y-102880000D03*
X83675000Y-102880000D03*
%TD*%
D29*
%TO.C,U2*%
X92900000Y-74775000D03*
X92900000Y-73835200D03*
X92900000Y-72895400D03*
X95655900Y-72895400D03*
X95655900Y-74775000D03*
%TD*%
D17*
%TO.C,R17*%
X113190000Y-89050000D03*
X113190000Y-90875000D03*
%TD*%
D30*
%TO.C,Y1*%
X111400000Y-108000000D03*
X111400000Y-106150000D03*
%TD*%
D10*
%TO.C,C7*%
X111275000Y-82850000D03*
X113175000Y-82850000D03*
%TD*%
%TO.C,C6*%
X109175000Y-74450000D03*
X111075000Y-74450000D03*
%TD*%
D25*
%TO.C,R8*%
X88050000Y-74775000D03*
X88050000Y-72875000D03*
%TD*%
D10*
%TO.C,C17*%
X90100000Y-99625000D03*
X92000000Y-99625000D03*
%TD*%
D31*
%TO.C,C12*%
X99000000Y-106000000D03*
X99000000Y-107900000D03*
%TD*%
D10*
%TO.C,C11*%
X94525000Y-103700000D03*
X96425000Y-103700000D03*
%TD*%
%TO.C,C5*%
X92900000Y-77075000D03*
X94800000Y-77075000D03*
%TD*%
D32*
%TO.C,LED1*%
X95232300Y-88750001D03*
X95232300Y-89950001D03*
X95232300Y-91150001D03*
X95232300Y-92350001D03*
X95232300Y-93550001D03*
X95232300Y-94750002D03*
X92717700Y-94749999D03*
X92717700Y-93549999D03*
X92717700Y-92349999D03*
X92717700Y-91149999D03*
X92717700Y-89949999D03*
X92717700Y-88749998D03*
%TD*%
D10*
%TO.C,C3*%
X82750000Y-79350000D03*
X84650000Y-79350000D03*
%TD*%
D33*
%TO.C,U7*%
X102775000Y-90650000D03*
X102775000Y-91150000D03*
X102775000Y-91650000D03*
X102775000Y-92150000D03*
X102775000Y-92650000D03*
X98475000Y-92650000D03*
X98475000Y-92150000D03*
X98475000Y-91650000D03*
X98475000Y-91150000D03*
X98475000Y-90650000D03*
%TD*%
D16*
%TO.C,R5*%
X78375000Y-75350000D03*
X76550000Y-75350000D03*
%TD*%
D34*
%TO.C,D2*%
X97500000Y-81375000D03*
X97500000Y-79500000D03*
%TD*%
D20*
%TO.C,R14*%
X91800000Y-105525000D03*
X91800000Y-103700000D03*
%TD*%
D28*
%TO.C,R16*%
X83705000Y-100740000D03*
X85530000Y-100740000D03*
%TD*%
D17*
%TO.C,R7*%
X80225000Y-88675000D03*
X80225000Y-90500000D03*
%TD*%
D21*
%TO.C,Q1*%
X90525000Y-79425000D03*
X90525000Y-81325000D03*
X88250000Y-80375000D03*
%TD*%
D19*
%TO.C,C14*%
X103000000Y-101625000D03*
X101100000Y-101625000D03*
%TD*%
D28*
%TO.C,R9*%
X103150000Y-86725000D03*
X104975000Y-86725000D03*
%TD*%
D19*
%TO.C,C13*%
X103000000Y-99340000D03*
X101100000Y-99340000D03*
%TD*%
M02*
